<?xml version="1.0" encoding="utf-8"?>
<!-- Generator: Adobe Illustrator 16.0.0, SVG Export Plug-In . SVG Version: 6.00 Build 0)  -->
<!DOCTYPE svg PUBLIC "-//W3C//DTD SVG 1.1//EN" "http://www.w3.org/Graphics/SVG/1.1/DTD/svg11.dtd">
<svg version="1.1" id="Layer_1" xmlns="http://www.w3.org/2000/svg" xmlns:xlink="http://www.w3.org/1999/xlink" x="0px" y="0px"
	 width="464px" height="300px" viewBox="0 0 464 300" enable-background="new 0 0 464 300" xml:space="preserve">
<g>
	<g>
		<path fill="#14201F" d="M368.602,260.699c0,15.62-12.665,28.282-28.281,28.282c-15.621,0-28.281-12.662-28.281-28.282
			c0-15.618,12.66-28.285,28.281-28.285C355.937,232.414,368.602,245.081,368.602,260.699z"/>
		<circle fill="#BBBCBB" cx="340.319" cy="260.699" r="17.872"/>
		<g>
			<g>
				<path fill="#95919C" d="M342.947,249.022c0,1.448-1.176,2.63-2.632,2.63c-1.446,0-2.627-1.182-2.627-2.63
					c0-1.452,1.181-2.628,2.627-2.628C341.771,246.395,342.947,247.57,342.947,249.022z"/>
				<path fill="#95919C" d="M342.947,272.376c0,1.448-1.176,2.628-2.632,2.628c-1.446,0-2.627-1.18-2.627-2.628
					c0-1.453,1.181-2.628,2.627-2.628C341.771,269.748,342.947,270.923,342.947,272.376z"/>
			</g>
			<g>
				<path fill="#95919C" d="M351.994,263.33c-1.449,0-2.627-1.18-2.627-2.631c0-1.449,1.178-2.63,2.627-2.63
					c1.452,0,2.628,1.181,2.628,2.63C354.622,262.15,353.446,263.33,351.994,263.33z"/>
				<path fill="#95919C" d="M328.643,263.33c-1.449,0-2.631-1.18-2.631-2.631c0-1.449,1.182-2.63,2.631-2.63
					c1.452,0,2.627,1.181,2.627,2.63C331.27,262.15,330.095,263.33,328.643,263.33z"/>
			</g>
		</g>
	</g>
	<path fill="#96C11F" d="M349.042,140.656h-45.534h-14.818h-0.095l0.095,21.395v92.854h14.818v-0.014h6.603
		c0,0,3.585-19.978,30.223-19.978c26.639,0,31.762,27.149,31.762,27.149h44.568v-49.689L349.042,140.656z"/>
	<polygon fill="#14201F" points="295.533,149.33 295.533,181.023 343.433,181.023 346.508,184.979 383.86,184.979 350.683,149.384 	
		"/>
	<path fill="#151A2A" d="M323.576,196.623c0,1.821-1.474,3.296-3.295,3.296h-12.583c-1.82,0-3.296-1.475-3.296-3.296l0,0
		c0-1.819,1.476-3.295,3.296-3.295h12.583C322.103,193.328,323.576,194.804,323.576,196.623L323.576,196.623z"/>
	<path fill="#7B9609" d="M421.84,249.344c0,2.452-1.988,4.44-4.442,4.44h-19.223c-2.455,0-4.442-1.988-4.442-4.44v-10.18
		c0-2.453,1.987-4.44,4.442-4.44h19.223c2.454,0,4.442,1.987,4.442,4.44V249.344z"/>
	<g>
		<path fill="#F1E2EB" d="M415.295,226.36v-8.29c0-2.452-1.988-4.439-4.443-4.439h-19.221c-2.455,0-4.443,1.987-4.443,4.439v8.29
			c4.514-0.785,9.203-1.244,14.056-1.244C406.094,225.116,410.783,225.575,415.295,226.36z"/>
		<path fill="#E7A13D" d="M391.631,232.691h19.221c2.455,0,4.443-1.988,4.443-4.441v-1.89c-4.512-0.785-9.201-1.244-14.052-1.244
			c-4.853,0-9.542,0.459-14.056,1.244v1.89C387.188,230.703,389.176,232.691,391.631,232.691z"/>
	</g>
	<path fill="#544A4F" d="M344.604,160.519c0,4.888-3.964,8.852-8.853,8.852h-25.654c-4.888,0-8.852-3.964-8.852-8.852l0,0
		c0-4.888,3.964-8.851,8.852-8.851h25.654C340.641,151.668,344.604,155.631,344.604,160.519L344.604,160.519z"/>
	<path fill="#8DAF10" d="M416.966,240.35c0,1.456-1.181,2.639-2.636,2.639h-30.761c-1.456,0-2.638-1.183-2.638-2.639l0,0
		c0-1.456,1.182-2.636,2.638-2.636h30.761C415.785,237.714,416.966,238.894,416.966,240.35L416.966,240.35z"/>
	<path fill="#8DAF10" d="M374.192,227.899c0,1.213-0.983,2.195-2.196,2.195h-76.17c-1.213,0-2.196-0.982-2.196-2.195l0,0
		c0-1.215,0.983-2.197,2.196-2.197h76.17C373.209,225.702,374.192,226.685,374.192,227.899L374.192,227.899z"/>
	<g>
		<circle fill="#14201F" cx="130.064" cy="260.699" r="28.282"/>
		<circle fill="#BBBCBB" cx="130.063" cy="260.699" r="17.872"/>
		<g>
			<g>
				<path fill="#95919C" d="M132.692,249.022c0,1.448-1.176,2.63-2.631,2.63c-1.449,0-2.628-1.182-2.628-2.63
					c0-1.452,1.179-2.628,2.628-2.628C131.516,246.395,132.692,247.57,132.692,249.022z"/>
				<path fill="#95919C" d="M132.692,272.376c0,1.448-1.176,2.628-2.631,2.628c-1.449,0-2.628-1.18-2.628-2.628
					c0-1.453,1.179-2.628,2.628-2.628C131.516,269.748,132.692,270.923,132.692,272.376z"/>
			</g>
			<g>
				<path fill="#95919C" d="M141.739,263.33c-1.449,0-2.628-1.18-2.628-2.631c0-1.449,1.179-2.63,2.628-2.63
					c1.452,0,2.628,1.181,2.628,2.63C144.367,262.15,143.19,263.33,141.739,263.33z"/>
				<path fill="#95919C" d="M118.386,263.33c-1.449,0-2.63-1.18-2.63-2.631c0-1.449,1.181-2.63,2.63-2.63
					c1.453,0,2.628,1.181,2.628,2.63C121.014,262.15,119.839,263.33,118.386,263.33z"/>
			</g>
		</g>
	</g>
	<path fill="#96C11F" d="M286.2,220.705H80.646v33.335h3.896c-0.479,2.291-0.843,4.623-0.976,7.02h13.115
		c1.354-17.605,16.114-31.52,34.058-31.52c17.945,0,32.702,13.914,34.056,31.52h13.117c-0.123-2.238-0.456-4.419-0.882-6.564H286.2
		V220.705z"/>
	<g>
		<path fill="#8DAF10" d="M286.2,111.753h-17.169c-7.814,19.873-39.273,83.169-129.445,105.795H286.2V111.753z"/>
		<path fill="#96C11F" d="M269.031,111.753H76.727v105.795h62.859C229.758,194.922,261.217,131.626,269.031,111.753z"/>
		<g>
			<defs>
				<path id="SVGID_1_" d="M269.031,111.753H76.727v105.795h62.859C229.758,194.922,261.217,131.626,269.031,111.753z"/>
			</defs>
			<clipPath id="SVGID_2_">
				<use xlink:href="#SVGID_1_"  overflow="visible"/>
			</clipPath>
			<path opacity="0.2" clip-path="url(#SVGID_2_)" fill="#FFFFFD" d="M163.971,148.046c0.042,28.965-23.1,52.483-51.666,52.502
				c-28.329,0.02-51.871-23.52-51.894-51.89c-0.03-29.439,23.017-53.374,51.405-53.386
				C140.815,95.258,163.934,118.65,163.971,148.046z M85.942,147.846c-0.023,15.116,11.608,27.084,26.317,27.09
				c14.523,0.003,26.375-12.059,26.425-26.885c0.049-14.884-11.883-27.137-26.445-27.155
				C97.713,120.881,85.965,132.921,85.942,147.846z"/>
		</g>
	</g>
	<g>
		<g>
			<g>
				<path fill="#FFFFFF" d="M237.282,154.318v-2.565h-0.955v-0.344h2.306v0.344h-0.964v2.565H237.282z"/>
				<path fill="#FFFFFF" d="M237.752,154.401h-0.549v-2.567h-0.96v-0.509h2.469v0.509h-0.96V154.401z M237.365,154.235h0.221v-2.565
					h0.963v-0.178h-2.14v0.178h0.956V154.235z"/>
			</g>
			<g>
				<path fill="#FFFFFF" d="M239.237,154.318v-2.909h0.58l0.688,2.059c0.064,0.193,0.11,0.337,0.141,0.431
					c0.029-0.105,0.084-0.261,0.154-0.464l0.695-2.025h0.52v2.909h-0.371v-2.436l-0.844,2.436h-0.35l-0.842-2.477v2.477H239.237z"/>
				<path fill="#FFFFFF" d="M242.098,154.401h-0.534v-2.028l-0.707,2.028h-0.465l-0.699-2.061v2.061h-0.535v-3.076h0.722l0.018,0.06
					l0.688,2.059c0.021,0.068,0.044,0.131,0.062,0.188c0.021-0.065,0.047-0.142,0.076-0.225l0.715-2.081h0.66V154.401z
					 M241.725,154.235h0.207v-2.743h-0.207V154.235z M240.51,154.235h0.229l0.956-2.743h-0.141l-0.676,1.967
					c-0.07,0.206-0.121,0.36-0.153,0.466l-0.079,0.254l-0.08-0.256c-0.029-0.096-0.076-0.238-0.14-0.428l-0.669-2.004h-0.182
					L240.51,154.235z M239.321,154.235h0.208v-2.743h-0.208V154.235z"/>
			</g>
		</g>
		<g>
			<path fill="#FFFFFF" d="M184.159,175.367c-1.527,0-2.979,0.006-4.43-0.016c-0.098-0.003-0.262-0.229-0.271-0.359
				c-0.079-1.084-0.13-2.173-0.189-3.261c-0.179-3.264-0.361-6.523-0.538-9.786c-0.047-0.859-0.083-1.719-0.212-2.583
				c-0.198,1.085-0.398,2.172-0.595,3.258c-0.64,3.553-1.268,7.107-1.933,10.655c-0.089,0.479-0.305,0.959-0.569,1.368
				c-0.941,1.458-2.8,1.433-3.769-0.013c-0.507-0.756-0.597-1.636-0.752-2.495c-0.566-3.104-1.128-6.211-1.691-9.318
				c-0.164-0.906-0.324-1.813-0.491-2.72c-0.025-0.138-0.071-0.272-0.206-0.396c-0.036,0.532-0.081,1.066-0.109,1.601
				c-0.104,1.994-0.192,3.99-0.302,5.983c-0.141,2.583-0.298,5.164-0.438,7.747c-0.014,0.26-0.114,0.341-0.358,0.34
				c-1.317-0.005-2.636-0.01-3.952,0.003c-0.37,0.005-0.384-0.196-0.358-0.463c0.101-1.01,0.199-2.017,0.3-3.024
				c0.171-1.699,0.344-3.399,0.517-5.1c0.2-1.97,0.394-3.94,0.604-5.91c0.106-1.006,0.198-2.018,0.375-3.013
				c0.41-2.295,1.83-2.979,4.141-2.757c1.67,0.159,2.667,1.261,2.982,3.113c0.367,2.159,0.676,4.329,1.006,6.494
				c0.164,1.075,0.317,2.152,0.479,3.228c0.019,0.13,0.075,0.253,0.224,0.394c0.057-0.262,0.125-0.519,0.167-0.783
				c0.461-3.03,0.907-6.063,1.387-9.091c0.084-0.53,0.25-1.064,0.473-1.553c0.619-1.363,1.946-2.021,3.573-1.835
				c1.812,0.207,2.601,0.82,3.03,2.376c0.093,0.334,0.169,0.678,0.206,1.021c0.254,2.421,0.494,4.843,0.741,7.265
				c0.232,2.27,0.47,4.541,0.7,6.813C183.993,173.464,184.069,174.38,184.159,175.367z"/>
			<path fill="#FFFFFF" d="M135.448,168.322c0.124-0.803,0.248-1.604,0.371-2.404c0.393-2.555,0.781-5.106,1.179-7.658
				c0.044-0.282,0.122-0.563,0.214-0.833c0.608-1.747,2.01-2.595,3.865-2.345c0.224,0.03,0.45,0.055,0.673,0.099
				c1.236,0.238,1.993,1.013,2.256,2.206c0.223,1.014,0.347,2.054,0.462,3.087c0.226,2.029,0.417,4.061,0.619,6.093
				c0.195,1.972,0.382,3.942,0.577,5.914c0.078,0.782,0.157,1.563,0.259,2.343c0.052,0.402-0.047,0.568-0.494,0.556
				c-1.226-0.027-2.453-0.021-3.679-0.001c-0.375,0.007-0.49-0.118-0.508-0.484c-0.1-2.086-0.224-4.167-0.337-6.253
				c-0.157-2.899-0.312-5.798-0.471-8.698c-0.006-0.097-0.037-0.192-0.169-0.299c-0.108,0.561-0.222,1.121-0.324,1.683
				c-0.688,3.789-1.378,7.577-2.055,11.369c-0.139,0.78-0.31,1.537-0.83,2.172c-0.936,1.141-2.53,1.13-3.455-0.017
				c-0.579-0.718-0.715-1.582-0.872-2.446c-0.754-4.177-1.511-8.351-2.268-12.525c-0.012-0.069-0.03-0.137-0.128-0.205
				c-0.033,0.273-0.083,0.547-0.097,0.821c-0.105,1.995-0.199,3.988-0.304,5.981c-0.149,2.84-0.303,5.682-0.469,8.518
				c-0.008,0.129-0.151,0.351-0.234,0.354c-1.479,0.021-2.958,0.016-4.48,0.016c0.101-1.044,0.196-2.031,0.295-3.021
				c0.167-1.668,0.336-3.339,0.504-5.008c0.17-1.685,0.34-3.369,0.511-5.054c0.129-1.263,0.255-2.526,0.399-3.786
				c0.043-0.373,0.12-0.747,0.225-1.107c0.456-1.552,1.368-2.223,3.12-2.322c2.23-0.125,3.593,1.056,3.95,3.413
				c0.48,3.168,0.964,6.332,1.448,9.497c0.019,0.122,0.062,0.241,0.089,0.361C135.344,168.332,135.396,168.327,135.448,168.322z"/>
			<path fill="#FFFFFF" d="M221.94,165.413c0.008,5.685-4.532,10.298-10.138,10.303c-5.558,0.003-10.178-4.616-10.182-10.183
				c-0.006-5.776,4.517-10.473,10.086-10.476C217.396,155.055,221.933,159.645,221.94,165.413z M206.629,165.374
				c-0.005,2.966,2.277,5.314,5.164,5.314c2.85,0.001,5.174-2.366,5.185-5.274c0.009-2.921-2.331-5.325-5.188-5.329
				C208.939,160.082,206.634,162.445,206.629,165.374z"/>
			<path fill="#FFFFFF" d="M230.638,170.606c0.816,0,1.51,0,2.203,0c1.453,0,2.907,0.016,4.358-0.009
				c0.43-0.007,0.537,0.134,0.529,0.548c-0.025,1.256-0.018,2.512-0.002,3.769c0.002,0.316-0.062,0.464-0.421,0.461
				c-3.437-0.014-6.873,0.022-10.31-0.033c-2.286-0.036-3.562-2.055-2.674-4.172c0.313-0.746,0.76-1.444,1.197-2.13
				c1.789-2.806,3.599-5.599,5.4-8.396c0.079-0.123,0.142-0.258,0.248-0.448c-0.216-0.012-0.373-0.028-0.529-0.028
				c-1.683-0.001-3.361-0.009-5.043,0.006c-0.33,0.003-0.449-0.082-0.445-0.431c0.019-1.302,0.019-2.604,0-3.905
				c-0.005-0.352,0.119-0.432,0.447-0.43c2.907,0.014,5.814,0.003,8.721,0.022c0.446,0.002,0.909,0.072,1.339,0.198
				c1.457,0.424,1.936,1.504,1.845,3.08c-0.049,0.839-0.436,1.565-0.87,2.264c-1.877,2.999-3.754,6.001-5.628,9.002
				C230.893,170.149,230.797,170.332,230.638,170.606z"/>
			<path fill="#FFFFFF" d="M192.683,161.211c3.709-0.099,7.198,3.248,7.157,7.278c-0.042,3.94-3.275,7.233-7.178,7.227
				c-3.882-0.008-7.137-3.33-7.136-7.271C185.526,164.315,189.075,161.111,192.683,161.211z M189.907,168.465
				c0.001,1.691,1.188,2.952,2.778,2.951c1.571,0,2.815-1.299,2.816-2.946c0.002-1.651-1.289-3.017-2.835-2.999
				C191.102,165.486,189.907,166.786,189.907,168.465z"/>
			<path fill="#FFFFFF" d="M147.337,168.465c0-4.008,3.205-7.255,7.162-7.254c3.883,0.001,7.146,3.316,7.145,7.259
				c-0.002,3.921-3.296,7.238-7.17,7.248C150.481,175.728,147.225,172.184,147.337,168.465z M157.27,168.486
				c0.005-1.689-1.242-3.033-2.799-3.017c-1.555,0.014-2.807,1.341-2.809,2.974c0,1.653,1.233,2.97,2.79,2.972
				C156.034,171.421,157.265,170.142,157.27,168.486z"/>
			<path fill="#FFFFFF" d="M234.734,177.887c0.535-0.484,1.115-0.695,1.811-0.477c0.719,0.225,1.168,0.793,1.174,1.539
				c0.005,0.757-0.012,1.514,0.008,2.271c0.006,0.301-0.071,0.438-0.401,0.433c-1.198-0.02-0.96,0.102-0.982-0.942
				c-0.011-0.515-0.007-1.028-0.003-1.543c0.003-0.304-0.127-0.507-0.436-0.526c-0.314-0.019-0.479,0.188-0.488,0.478
				c-0.023,0.681-0.037,1.36-0.02,2.042c0.01,0.376-0.119,0.503-0.496,0.494c-1.014-0.025-0.83,0.066-0.844-0.851
				c-0.01-0.514,0-1.028-0.004-1.542c-0.004-0.337-0.114-0.628-0.504-0.616c-0.356,0.009-0.464,0.286-0.464,0.607
				c0,0.666-0.013,1.331,0.006,1.995c0.007,0.295-0.092,0.405-0.389,0.402c-1.232-0.012-0.976,0.088-0.992-0.928
				c-0.012-0.649-0.059-1.308,0.029-1.946c0.179-1.289,1.59-1.865,2.661-1.128C234.498,177.717,234.596,177.788,234.734,177.887z"/>
			<path fill="#FFFFFF" d="M231.002,179.555c0,1.209-0.968,2.215-2.152,2.236c-1.153,0.021-2.229-1.063-2.231-2.244
				c-0.001-1.191,1.046-2.231,2.237-2.224C230.035,177.331,231.002,178.337,231.002,179.555z M229.701,179.551
				c0-0.513-0.376-0.921-0.858-0.931c-0.468-0.013-0.877,0.407-0.887,0.908c-0.013,0.512,0.413,0.971,0.889,0.958
				C229.32,180.477,229.702,180.06,229.701,179.551z"/>
			<path fill="#FFFFFF" d="M225.269,181.648c-1.28-0.015-2.107-0.834-2.111-2.088c-0.002-1.255,0.87-2.13,2.137-2.14
				c0.135-0.001,0.287-0.037,0.404,0.01c0.119,0.052,0.229,0.17,0.298,0.289c0.043,0.078-0.004,0.208,0.011,0.312
				c0.058,0.438-0.063,0.644-0.573,0.639c-0.636-0.008-0.919,0.346-0.896,0.938c0.019,0.54,0.318,0.801,0.92,0.811
				c0.55,0.007,0.522,0.01,0.556,0.684c0.022,0.446-0.135,0.61-0.563,0.546C225.392,181.639,225.33,181.648,225.269,181.648z"/>
			<path fill="#FFFFFF" d="M222.571,180.897c0.001,0.485-0.366,0.877-0.838,0.891c-0.484,0.014-0.878-0.396-0.873-0.903
				c0.006-0.503,0.357-0.845,0.862-0.844C222.229,180.045,222.569,180.387,222.571,180.897z"/>
		</g>
	</g>
</g>
<g>
	<g>
		<path fill="#727373" d="M195.904,164.478l2.699,103.437h10.947c0,0,0.39-70.203,18.49-70.203V160.58L195.904,164.478z"/>
		<path fill="#888586" d="M259.714,164.478l-2.658,103.437h-10.946c0,0-0.475-70.203-18.575-70.203V160.58L259.714,164.478z"/>
		<g>
			<path fill="#CCAC91" d="M240.244,74.698h-24.204v5.722h-0.082c-0.87,1.932-2.044,3.694-3.458,5.234
				c4.081-1.173,23.986-6.99,27.744-9.832V74.698z"/>
			<path fill="#EFD4B7" d="M240.244,83.845v-8.022c-3.758,2.841-23.664,8.659-27.744,9.832c-1.609,1.755-3.529,3.221-5.677,4.303
				c2.367,3.376-0.287,10.372,3.4,12.275l2.565,5.031l2.071,3.65l14.009,20.421l11.345-22.097l2.763-2.565l1.38-3.551l3.157-3.552
				c3.313-1.89-1.108-6.567,1.062-9.687C245.123,88.225,242.229,87.094,240.244,83.845z"/>
		</g>
		<path fill="#C3CBBC" d="M179.412,289.221c0,0-1.971,0.33-1.807,3.615c0.164,3.287,9.53,5.588,16.596,4.108
			c7.065-1.479,19.553-8.215,19.553-8.215s0.493-3.617-0.493-4.273C212.275,283.799,179.412,289.221,179.412,289.221z"/>
		<path fill="#2D3A4C" d="M198.846,276.897c0,0-2.839-0.492-7.111,2.301c-4.271,2.794-12.816,2.792-13.474,11.174
			c0,0,1.808,3.122,9.531,3.122c7.722,0,24.976-7.396,24.976-7.396s2.465-7.721-2.136-8.543L198.846,276.897z"/>
		<path fill="#DEBC9E" d="M209.258,274.67c0,0,4.241,6.208-3.152,6.863c0,0-4.013-4.8-7.26-4.636v-3.799l10.306-2.115
			L209.258,274.67z"/>
		<path fill="#C3CBBC" d="M277.289,289.221c0,0,1.971,0.33,1.807,3.615c-0.162,3.287-9.53,5.588-16.596,4.108
			s-19.554-8.215-19.554-8.215s-0.491-3.617,0.493-4.273C244.426,283.799,277.289,289.221,277.289,289.221z"/>
		<path fill="#2D3A4C" d="M257.854,276.897c0,0,2.839-0.492,7.111,2.301c4.273,2.794,12.818,2.792,13.474,11.174
			c0,0-1.807,3.122-9.53,3.122c-7.722,0-24.977-7.396-24.977-7.396s-2.465-7.721,2.137-8.543L257.854,276.897z"/>
		<path fill="#DEBC9E" d="M247.443,274.67c0,0-4.242,6.208,3.151,6.863c0,0,4.013-4.8,7.259-4.636v-3.799l-10.305-2.115
			L247.443,274.67z"/>
		<path fill="#EFD4B7" d="M250.245,49.06c-0.542,3.727,0.502,6.967,2.33,7.235c1.832,0.271,3.753-2.532,4.296-6.259
			c0.543-3.725-0.502-6.965-2.329-7.235C252.713,42.531,250.789,45.333,250.245,49.06z"/>
		<path fill="#DEBC9E" d="M204.66,48.756c0.357,3.678-0.722,6.793-2.398,6.956c-1.678,0.164-3.326-2.684-3.681-6.364
			c-0.354-3.678,0.721-6.792,2.397-6.957C202.658,42.229,204.309,45.078,204.66,48.756z"/>
		<g>
			<path fill="#DEBC9E" d="M227.326,21.077c-22.195-0.598-24.681,8.596-24.681,25.956c0,17.607,11.001,31.915,24.681,32.307
				c0.193,0.006,0.385,0.02,0.577,0.02h0V21.066C227.711,21.07,227.519,21.082,227.326,21.077z"/>
			<path fill="#EFD4B7" d="M253.161,47.032c0-17.853-10.733-25.976-24.686-25.976c-0.19,0-0.381,0.006-0.572,0.01v58.293
				C241.854,79.358,253.161,64.886,253.161,47.032z"/>
		</g>
		<g>
			<path fill="none" d="M221.152,66.294c0,1.435,1.164,2.599,2.599,2.599h4.152v-5.197h-4.152
				C222.315,63.696,221.152,64.86,221.152,66.294z"/>
			<path fill="none" d="M231.987,68.894c1.435,0,2.598-1.164,2.598-2.599c0-1.435-1.163-2.598-2.598-2.598h-4.084v5.197H231.987z"/>
		</g>
		<path fill="#563722" d="M202.544,49.052c0,0-2.549-18.541-0.623-20.548c1.926-2.006,2.969-1.364,2.969-1.364
			s-2.408-3.691-1.605-5.376c0.803-1.685,7.785-13.643,28.73-10.995c20.945,2.649,22.069,22.07,22.069,22.07
			s-0.563,15.167-1.204,17.975l-1.124-0.16l-2.246-18.458c0,0-2.568,4.575-10.353,1.926c-7.785-2.648-17.254-15.167-31.619-6.661
			c0,0-2.247,2.81-2.327,4.093c-0.08,1.285-2.407,15.087-1.444,18.698L202.544,49.052z"/>
		<path fill="#563722" d="M207.693,40.892c-0.372,0-0.729-0.207-0.903-0.563c-0.245-0.498-0.038-1.101,0.461-1.345
			c0.067-0.033,1.673-0.809,4.342-1.262c2.437-0.414,6.286-0.63,10.79,0.685c0.533,0.156,0.838,0.715,0.684,1.248
			c-0.156,0.533-0.715,0.838-1.248,0.683c-7.896-2.309-13.625,0.424-13.683,0.452C207.993,40.86,207.842,40.892,207.693,40.892z"/>
		<path fill="#563722" d="M246.014,40.892c-0.148,0-0.299-0.032-0.44-0.101c-0.032-0.015-1.483-0.704-3.878-1.1
			c-2.211-0.367-5.707-0.552-9.806,0.646c-0.533,0.155-1.091-0.15-1.247-0.683c-0.156-0.533,0.15-1.092,0.683-1.248
			c4.503-1.315,8.353-1.1,10.79-0.685c2.669,0.453,4.274,1.229,4.341,1.262c0.5,0.244,0.707,0.847,0.463,1.345
			C246.743,40.685,246.385,40.892,246.014,40.892z"/>
		<path fill="#563722" d="M252.127,49.548c-3.467,11.514-9.805,14.432-12.703,15.17c-0.21-0.63-1.101-2.829-4.813-3.705
			c-1.557-0.454-3.372-0.783-4.748-0.787c-0.398-0.012-0.813-0.015-1.244-0.015h-1.521c-0.435,0-0.852,0.003-1.252,0.016
			c-1.346,0.003-3.104,0.333-4.63,0.762c-3.794,0.868-4.705,3.086-4.92,3.726c-2.906-0.746-9.226-3.675-12.685-15.166l-1.048-0.497
			c0,0,1.901,31.549,25.19,31.828v0.005c0,0,0.083-0.002,0.134-0.003c0.012,0.001-0.002,0.001,0.01,0.001
			c0.04,0.001,0.093,0.002,0.093,0.002V80.88c23.23-0.279,25.187-31.828,25.187-31.828L252.127,49.548z"/>
		<g>
			<g>
				<g>
					<g>
						<ellipse fill="#DEBC9E" cx="224.511" cy="57.633" rx="2.742" ry="1.898"/>
					</g>
					<ellipse fill="#EFD4B7" cx="231.623" cy="57.633" rx="2.742" ry="1.898"/>
				</g>
			</g>
			<g>
				<path fill="#DEBC9E" d="M225.248,58.638c0,1.028,1.181,1.865,2.656,1.896v-3.793C226.429,56.772,225.248,57.609,225.248,58.638z
					"/>
				<path fill="#EFD4B7" d="M227.99,56.74c-0.029,0-0.058,0.001-0.086,0.001v3.793c0.028,0.001,0.057,0.002,0.086,0.002
					c1.514,0,2.742-0.851,2.742-1.898C230.731,57.589,229.504,56.74,227.99,56.74z"/>
			</g>
		</g>
		<path fill="#636363" d="M212.474,271.91c0,1.192-0.967,2.158-2.159,2.158h-12.987c-1.192,0-2.159-0.966-2.159-2.158v-4.516
			c0-1.191,0.967-2.16,2.159-2.16h12.987c1.192,0,2.159,0.969,2.159,2.16V271.91z"/>
		<path fill="#636363" d="M260.044,271.91c0,1.192-0.968,2.158-2.159,2.158h-12.988c-1.19,0-2.157-0.966-2.157-2.158v-4.516
			c0-1.191,0.967-2.16,2.157-2.16h12.988c1.191,0,2.159,0.969,2.159,2.16V271.91z"/>
		<path fill="#0D202A" d="M291.435,118.899c-2.429-6.752-7.003-12.784-13.228-17.443c-4.572-3.423-14.633-10.187-15.19-10.338
			c0,0,0.001-0.001,0.001-0.002c-5.973-2.104-12.303-3.772-15.781-4.632l0.029-0.299c0,0-3.938-2.437-6.604-1.738l-0.041-0.125
			l-0.489,0.316c-0.222,0.104-0.431,0.238-0.622,0.403l-12.464,8.075l-0.049-0.003l-11.559-7.086l-0.03-0.143
			c-2.396-2.397-8.1,0.345-8.1,0.345l0.025,0.246c-3.471,0.858-9.823,2.53-15.814,4.641c0.001,0,0.001,0.001,0.001,0.002
			c-0.558,0.152-10.619,6.915-15.191,10.338c-6.224,4.659-10.798,10.69-13.228,17.443c-2.038,5.666-2.614,11.86-1.713,18.411
			c1,7.27,3.852,15.082,8.479,23.218l11.375-6.466c-6.827-12.009-8.719-21.807-5.788-30.109c0.831-2.353,1.958-3.917,3.677-5.268
			c2.851-1.941,6.314-2.989,9.711-3.518c0.263,0.038,0.532,0.066,0.803,0.116l4.582,53.257h31.655h2.774h31.655l4.581-53.257
			c0.271-0.049,0.54-0.087,0.803-0.125c3.398,0.529,6.86,1.581,9.713,3.522c1.719,1.352,2.846,2.917,3.677,5.271
			c2.931,8.303,1.039,18.101-5.787,30.109l11.373,6.467c4.627-8.137,7.479-15.948,8.479-23.217
			C294.049,130.759,293.474,124.564,291.435,118.899z"/>
		<g>
			<g>
				<g>
					<path fill="#EA7A7A" d="M221.266,65.833c0,0,0.066,0.28,0.229,0.703c0.363,0.941,1.208,2.638,2.88,3.789
						c0.896,0.617,2.029,1.081,3.454,1.186c1.426-0.105,2.559-0.565,3.455-1.183c1.672-1.15,2.518-2.851,2.88-3.792
						c0.163-0.423,0.229-0.703,0.229-0.703H221.266z"/>
					<path fill="#EFD4B7" d="M227.83,72.015c-0.012,0-0.024,0-0.037-0.001c-1.38-0.103-2.625-0.53-3.702-1.271
						c-1.793-1.234-2.69-3.046-3.064-4.017c-0.173-0.448-0.246-0.744-0.249-0.757c-0.037-0.149-0.003-0.288,0.092-0.41
						c0.096-0.121,0.241-0.172,0.395-0.172h13.128c0.154,0,0.301,0.051,0.395,0.172c0.096,0.122,0.131,0.27,0.094,0.42
						c-0.004,0.012-0.076,0.302-0.249,0.751c-0.375,0.971-1.271,2.781-3.064,4.015c-1.077,0.741-2.323,1.167-3.702,1.269
						C227.855,72.016,227.843,72.015,227.83,72.015z M221.959,66.391c0.002,0,0.003-0.011,0.005-0.007
						c0.333,0.863,1.125,2.461,2.696,3.542c0.918,0.633,1.985,0.995,3.169,1.089c1.185-0.094,2.251-0.463,3.17-1.096
						c1.571-1.081,2.364-2.671,2.697-3.534c0-0.003,0.002,0.006,0.004,0.006H221.959z"/>
				</g>
				<path fill="#FFFFFF" d="M231.285,70.33h-6.909c0.896,0.617,2.029,1.079,3.454,1.184
					C229.256,71.408,230.389,70.946,231.285,70.33z"/>
			</g>
			<g>
				<path fill="#FFFFFF" d="M221.266,65.85c0,0,0.066,0.271,0.229,0.695c0.051,0.131,0.112,0.279,0.183,0.438h12.304
					c0.07-0.159,0.131-0.306,0.183-0.438c0.163-0.424,0.229-0.695,0.229-0.695H221.266z"/>
				<path fill="#EA7A7A" d="M221.679,66.983c0.435,0.968,1.26,2.358,2.697,3.347h6.909c1.437-0.989,2.264-2.378,2.697-3.347H221.679
					z"/>
			</g>
		</g>
		<path fill="#FFFFFF" d="M220.444,45.861c0,0-2.31,2.198-5.159,2.198c-2.848,0-5.158-2.198-5.158-2.198s2.31-2.199,5.158-2.199
			C218.134,43.663,220.444,45.861,220.444,45.861z"/>
		<path fill="#FFFFFF" d="M245.703,45.861c0,0-2.309,2.198-5.157,2.198s-5.157-2.198-5.157-2.198s2.309-2.199,5.157-2.199
			S245.703,45.861,245.703,45.861z"/>
		<g>
			<circle fill="#1C140F" cx="215.304" cy="45.984" r="2.122"/>
			<circle fill="#FFFFFF" cx="215.801" cy="45.418" r="0.712"/>
		</g>
		<g>
			<circle fill="#1C140F" cx="240.514" cy="45.984" r="2.123"/>
			<circle fill="#FFFFFF" cx="241.011" cy="45.418" r="0.712"/>
		</g>
		<g>
			<path fill="#90908E" d="M218.114,3.688c0.004-0.004,0.006-0.008,0.01-0.013c-22.893,4.724-18.296,26.683-18.296,26.683
				c2.172-1.322,4.884-2.306,7.756-3.038C207.836,22.04,209.646,12.753,218.114,3.688z"/>
			<path fill="#979998" d="M207.583,27.32c8.271-2.105,17.885-2.115,19.865-2.029v-6.037c0.029-2.636,0.455-7.059,0-7.631V4.088
				c-1.434,0-2.604-0.545-2.679-1.231c-2.439,0.125-4.646,0.407-6.646,0.819c-0.003,0.005-0.006,0.008-0.01,0.013
				C209.646,12.753,207.836,22.04,207.583,27.32z"/>
			<path fill="#8C8D8B" d="M227.449,4.088v21.203c0.038,0.002,0.074,0.003,0.105,0.005c1.72-0.09,11.402-0.122,19.762,2.015
				c-0.254-5.282-2.067-14.564-10.529-23.624c-0.004-0.004-0.008-0.008-0.011-0.012c-2-0.413-4.207-0.695-6.646-0.82
				C230.054,3.543,228.885,4.088,227.449,4.088z"/>
			<path fill="#808080" d="M255.44,25.149c-0.001-0.013-0.001-0.024-0.001-0.037c-0.008-0.288-0.021-0.585-0.038-0.889
				c-0.001-0.029-0.003-0.06-0.005-0.09c-0.019-0.302-0.044-0.61-0.073-0.926c-0.002-0.029-0.006-0.058-0.009-0.088
				c-0.032-0.324-0.07-0.653-0.115-0.989c-0.002-0.013-0.004-0.028-0.007-0.042c-0.146-1.058-0.365-2.167-0.683-3.298
				c0-0.001-0.001-0.002-0.002-0.005c-0.105-0.377-0.224-0.757-0.352-1.137c-0.002-0.004-0.004-0.008-0.005-0.013
				c-1.825-5.362-6.028-10.938-15.288-13.461c-0.014-0.004-0.027-0.007-0.04-0.01c-0.653-0.178-1.331-0.339-2.034-0.485
				c-0.005,0-0.009-0.001-0.013-0.002c0.003,0.004,0.007,0.007,0.011,0.012c8.462,9.06,10.275,18.342,10.529,23.624
				c2.865,0.733,5.574,1.72,7.755,3.046c0,0,0.085-0.406,0.173-1.112c0.007-0.052,0.014-0.106,0.02-0.161
				c0.013-0.104,0.024-0.215,0.037-0.331c0.011-0.1,0.021-0.204,0.031-0.312c0.006-0.071,0.013-0.14,0.019-0.213
				c0.014-0.161,0.026-0.331,0.038-0.506c0.004-0.063,0.009-0.128,0.012-0.195c0.013-0.193,0.021-0.396,0.029-0.605
				c0.002-0.053,0.004-0.108,0.005-0.163c0.008-0.229,0.013-0.466,0.015-0.712c0-0.03,0-0.062,0-0.092
				C255.449,25.695,255.447,25.427,255.44,25.149z"/>
			<path fill="#808482" d="M207.583,27.32c-2.873,0.732-5.584,1.716-7.756,3.038c0,0,2.723,7.479,9.696,7.479
				c6.921,0,6.059-3.42,17.925-3.473l0,0v-4.978v-4.095C225.468,25.206,215.854,25.215,207.583,27.32z"/>
			<path fill="#757977" d="M247.316,27.312c-8.36-2.137-18.042-2.105-19.762-2.015c-0.031-0.002-0.068-0.003-0.105-0.005v4.095
				v4.978c11.868,0.053,11.006,3.473,17.927,3.473c6.974,0,9.695-7.479,9.695-7.479C252.891,29.032,250.182,28.045,247.316,27.312z"
				/>
			<path fill="#90908E" d="M224.762,2.787c0,0.023,0.005,0.047,0.008,0.07c0.076,0.687,1.245,1.231,2.679,1.231V2.785v-1.3
				C225.965,1.484,224.762,2.067,224.762,2.787z"/>
			<path fill="#808080" d="M227.449,1.484v1.3v1.304c1.437,0,2.605-0.545,2.682-1.231c0.002-0.023,0.006-0.047,0.006-0.07
				C230.137,2.067,228.934,1.484,227.449,1.484z"/>
		</g>
		<polygon fill="#727373" points="207.389,118.22 197.542,119.161 197.542,88.995 207.389,86.507 		"/>
		<polygon fill="#727373" points="247.211,118.22 257.059,119.161 257.059,88.995 247.245,86.5 		"/>
		<g>
			<g>
				<g>
					<polygon fill="#96C11F" points="187.744,171.137 247.787,171.137 187.744,126.446 					"/>
					<polygon fill="#8EAF17" points="270.891,103.071 187.744,103.071 187.744,126.446 247.787,171.137 270.891,171.137 					"/>
					<g>
						<defs>
							<polygon id="SVGID_3_" points="187.744,171.137 247.787,171.137 251.423,134.773 187.744,126.446 							"/>
						</defs>
						<clipPath id="SVGID_4_">
							<use xlink:href="#SVGID_3_"  overflow="visible"/>
						</clipPath>
						<path opacity="0.3" clip-path="url(#SVGID_4_)" fill="#F9F9F9" d="M222.424,158.396c0.017,11.686-9.319,21.174-20.845,21.183
							c-11.429,0.007-20.927-9.489-20.937-20.936c-0.012-11.878,9.287-21.534,20.739-21.538
							C213.083,137.098,222.409,146.535,222.424,158.396z M190.944,158.314c-0.01,6.099,4.683,10.927,10.618,10.93
							c5.859,0.001,10.642-4.865,10.661-10.847c0.02-6.006-4.794-10.949-10.669-10.955
							C195.692,147.436,190.954,152.293,190.944,158.314z"/>
					</g>
				</g>
				<rect x="185.91" y="100.626" fill="#96C11F" width="86.815" height="24.455"/>
			</g>
		</g>
		<path fill="#DEBC9E" d="M179.747,154.93l2.688,2.788c0,0,6.491-1.191,8.087,3.419l1.131,2.394c0,0,2.479,1.588,1.672,2.908
			c-0.807,1.319-1.354,1.033-1.888,1.276c0,0,1.455,2.215,0.374,3.393c-1.08,1.177-3.056,0.955-3.056,0.955s0.265,1.824-0.69,2.429
			c-0.956,0.604-2.614,0.665-2.614,0.665s0.309,0.743-0.533,1.464c-0.842,0.722-3.244-0.129-3.244-0.129s-7.127-3.031-7.261-10.771
			l0.065-2.23l-2.667-4.064L179.747,154.93z"/>
		<path fill="#DEBC9E" d="M275.36,155.247l-2.898,2.318c0,0-6.335-1.852-8.396,2.572l-1.369,2.264c0,0-2.63,1.325-1.962,2.721
			c0.666,1.397,1.24,1.168,1.747,1.465c0,0-1.675,2.054-0.721,3.336c0.954,1.28,2.943,1.263,2.943,1.263s-0.452,1.788,0.437,2.487
			c0.888,0.698,2.531,0.931,2.531,0.931s-0.382,0.707,0.381,1.51c0.764,0.804,3.24,0.205,3.24,0.205s7.4-2.285,8.326-9.971
			l0.164-2.227l3.575-4.315L275.36,155.247z"/>
		<path fill="#96C11F" d="M233.424,16.638c0.004,3.233-2.58,5.858-5.769,5.86c-3.162,0.002-5.791-2.625-5.793-5.792
			c-0.003-3.287,2.57-5.958,5.739-5.959C230.838,10.745,233.418,13.356,233.424,16.638z M224.712,16.615
			c-0.002,1.688,1.296,3.023,2.938,3.024c1.622,0.001,2.945-1.346,2.95-3.001c0.006-1.661-1.326-3.029-2.952-3.031
			C226.026,13.605,224.714,14.949,224.712,16.615z"/>
	</g>
	<g>
		<g>
			<g>
				<path fill="#FFFFFF" d="M245.773,109.516v-0.852h-0.316v-0.114h0.765v0.114h-0.319v0.852H245.773z"/>
				<path fill="#FFFFFF" d="M245.93,109.543h-0.182v-0.852h-0.318v-0.168h0.818v0.168h-0.318V109.543z M245.801,109.488h0.074v-0.85
					h0.318v-0.06h-0.709v0.06h0.316V109.488z"/>
			</g>
			<g>
				<path fill="#FFFFFF" d="M246.423,109.516v-0.966h0.192l0.229,0.684c0.021,0.063,0.036,0.111,0.047,0.143
					c0.01-0.036,0.027-0.086,0.051-0.155l0.23-0.672h0.172v0.966h-0.122v-0.808l-0.28,0.808h-0.115l-0.28-0.821v0.821H246.423z"/>
				<path fill="#FFFFFF" d="M247.371,109.543h-0.177v-0.673l-0.235,0.673h-0.154l-0.232-0.684v0.684h-0.177v-1.02h0.24l0.005,0.019
					l0.229,0.683c0.007,0.023,0.016,0.043,0.021,0.063c0.006-0.022,0.016-0.046,0.024-0.075l0.237-0.69h0.219V109.543z
					 M247.248,109.488h0.068v-0.91h-0.068V109.488z M246.845,109.488h0.076l0.317-0.91h-0.047l-0.225,0.653
					c-0.023,0.068-0.039,0.12-0.051,0.155l-0.025,0.084l-0.027-0.085c-0.01-0.032-0.025-0.08-0.046-0.142l-0.222-0.665h-0.061
					L246.845,109.488z M246.45,109.488h0.069v-0.91h-0.069V109.488z"/>
			</g>
		</g>
		<g>
			<path fill="#FFFFFF" d="M228.147,116.5c-0.506,0-0.988,0.002-1.47-0.005c-0.032-0.001-0.087-0.076-0.09-0.119
				c-0.026-0.36-0.043-0.722-0.063-1.082c-0.06-1.083-0.119-2.164-0.178-3.247c-0.015-0.285-0.028-0.57-0.07-0.857
				c-0.065,0.36-0.132,0.721-0.198,1.082c-0.212,1.178-0.42,2.357-0.642,3.535c-0.029,0.158-0.101,0.318-0.188,0.454
				c-0.313,0.484-0.929,0.476-1.25-0.004c-0.168-0.251-0.198-0.542-0.25-0.828c-0.188-1.03-0.375-2.061-0.561-3.091
				c-0.054-0.301-0.108-0.603-0.163-0.903c-0.008-0.045-0.024-0.09-0.068-0.13c-0.012,0.177-0.027,0.354-0.037,0.531
				c-0.034,0.661-0.063,1.323-0.1,1.985c-0.047,0.857-0.099,1.713-0.146,2.57c-0.004,0.086-0.037,0.113-0.118,0.113
				c-0.438-0.002-0.875-0.004-1.312,0c-0.122,0.002-0.127-0.065-0.118-0.154c0.034-0.334,0.066-0.668,0.1-1.002
				c0.057-0.564,0.114-1.129,0.171-1.692c0.067-0.654,0.131-1.308,0.201-1.961c0.036-0.334,0.065-0.67,0.125-1
				c0.135-0.762,0.607-0.988,1.374-0.916c0.554,0.053,0.885,0.419,0.99,1.034c0.121,0.717,0.225,1.436,0.334,2.155
				c0.055,0.356,0.104,0.714,0.159,1.071c0.006,0.044,0.024,0.084,0.075,0.131c0.018-0.087,0.042-0.173,0.055-0.261
				c0.153-1.005,0.302-2.012,0.461-3.017c0.028-0.176,0.083-0.352,0.157-0.515c0.206-0.452,0.646-0.67,1.185-0.608
				c0.601,0.069,0.863,0.272,1.006,0.789c0.03,0.11,0.056,0.225,0.068,0.339c0.084,0.803,0.164,1.607,0.246,2.41
				c0.077,0.754,0.156,1.508,0.232,2.261C228.093,115.869,228.118,116.172,228.147,116.5z"/>
			<path fill="#FFFFFF" d="M211.985,114.163c0.041-0.267,0.082-0.532,0.124-0.798c0.129-0.848,0.259-1.694,0.391-2.541
				c0.015-0.093,0.041-0.187,0.071-0.275c0.202-0.581,0.667-0.862,1.283-0.779c0.074,0.01,0.149,0.019,0.224,0.032
				c0.41,0.08,0.661,0.337,0.748,0.732c0.074,0.336,0.115,0.682,0.153,1.024c0.075,0.673,0.138,1.348,0.206,2.021
				c0.064,0.654,0.126,1.309,0.191,1.962c0.026,0.259,0.052,0.52,0.086,0.777c0.017,0.133-0.016,0.188-0.164,0.185
				c-0.407-0.01-0.813-0.008-1.22-0.001c-0.125,0.002-0.163-0.039-0.169-0.161c-0.033-0.691-0.074-1.382-0.112-2.074
				c-0.053-0.962-0.104-1.924-0.157-2.887c-0.001-0.031-0.012-0.063-0.056-0.099c-0.036,0.186-0.074,0.372-0.108,0.558
				c-0.228,1.258-0.457,2.514-0.683,3.772c-0.045,0.259-0.102,0.51-0.274,0.72c-0.311,0.378-0.839,0.375-1.146-0.005
				c-0.192-0.238-0.237-0.525-0.29-0.812c-0.25-1.386-0.502-2.771-0.753-4.156c-0.004-0.022-0.01-0.045-0.042-0.068
				c-0.011,0.091-0.028,0.181-0.032,0.272c-0.035,0.662-0.066,1.323-0.101,1.985c-0.05,0.942-0.101,1.885-0.156,2.826
				c-0.002,0.042-0.05,0.116-0.077,0.117c-0.491,0.007-0.981,0.005-1.487,0.005c0.034-0.346,0.065-0.673,0.098-1.001
				c0.056-0.554,0.112-1.108,0.168-1.662c0.056-0.56,0.113-1.118,0.169-1.677c0.043-0.419,0.084-0.838,0.132-1.257
				c0.015-0.124,0.04-0.247,0.075-0.367c0.152-0.515,0.455-0.738,1.035-0.77c0.74-0.042,1.192,0.35,1.311,1.131
				c0.159,1.051,0.32,2.101,0.481,3.151c0.007,0.041,0.02,0.08,0.029,0.12C211.951,114.166,211.968,114.164,211.985,114.163z"/>
			<path fill="#FFFFFF" d="M240.684,113.197c0.002,1.886-1.504,3.417-3.364,3.418c-1.845,0.001-3.376-1.531-3.378-3.378
				c-0.002-1.917,1.498-3.476,3.346-3.477C239.176,109.76,240.681,111.283,240.684,113.197z M235.604,113.184
				c-0.002,0.984,0.755,1.764,1.713,1.764c0.945,0,1.717-0.785,1.721-1.75c0.003-0.97-0.773-1.767-1.723-1.768
				C236.369,111.429,235.604,112.213,235.604,113.184z"/>
			<path fill="#FFFFFF" d="M243.568,114.92c0.271,0,0.502,0,0.732,0c0.481,0,0.965,0.005,1.445-0.003
				c0.143-0.002,0.178,0.045,0.176,0.182c-0.009,0.417-0.006,0.834-0.002,1.25c0.002,0.105-0.019,0.154-0.139,0.153
				c-1.141-0.005-2.28,0.007-3.42-0.011c-0.76-0.012-1.183-0.682-0.889-1.384c0.104-0.249,0.253-0.479,0.398-0.708
				c0.593-0.93,1.193-1.857,1.791-2.785c0.027-0.041,0.047-0.085,0.082-0.149c-0.072-0.004-0.123-0.009-0.176-0.009
				c-0.558,0-1.115-0.002-1.672,0.002c-0.11,0.001-0.149-0.027-0.148-0.143c0.006-0.432,0.006-0.864,0-1.296
				c-0.002-0.117,0.039-0.144,0.148-0.143c0.965,0.004,1.929,0.001,2.893,0.007c0.149,0.001,0.303,0.024,0.445,0.066
				c0.484,0.141,0.643,0.499,0.611,1.021c-0.016,0.279-0.145,0.52-0.289,0.751c-0.621,0.996-1.244,1.991-1.867,2.987
				C243.654,114.768,243.621,114.829,243.568,114.92z"/>
			<path fill="#FFFFFF" d="M230.976,111.804c1.23-0.034,2.388,1.077,2.374,2.414c-0.014,1.308-1.086,2.4-2.381,2.398
				c-1.288-0.002-2.367-1.105-2.367-2.411C228.601,112.833,229.779,111.77,230.976,111.804z M230.055,114.209
				c0,0.562,0.394,0.981,0.921,0.98c0.521,0,0.934-0.432,0.934-0.978c0.001-0.548-0.427-1-0.94-0.996
				C230.451,113.222,230.055,113.653,230.055,114.209z"/>
			<path fill="#FFFFFF" d="M215.93,114.21c0-1.331,1.063-2.407,2.376-2.406c1.289,0,2.371,1.099,2.371,2.408
				c-0.001,1.301-1.094,2.402-2.379,2.404C216.974,116.62,215.893,115.444,215.93,114.21z M219.226,114.217
				c0.002-0.561-0.412-1.006-0.928-1.001c-0.517,0.005-0.932,0.445-0.933,0.987c0,0.548,0.41,0.984,0.926,0.986
				C218.815,115.19,219.224,114.766,219.226,114.217z"/>
			<path fill="#FFFFFF" d="M244.929,117.336c0.177-0.161,0.37-0.231,0.601-0.159c0.238,0.075,0.387,0.264,0.389,0.51
				c0.002,0.251-0.003,0.503,0.002,0.754c0.003,0.1-0.021,0.145-0.131,0.144c-0.399-0.006-0.32,0.034-0.326-0.312
				c-0.004-0.171-0.004-0.341-0.002-0.513c0.002-0.101-0.042-0.168-0.145-0.174c-0.104-0.007-0.159,0.062-0.162,0.158
				c-0.008,0.226-0.012,0.452-0.006,0.678c0.003,0.125-0.04,0.167-0.164,0.164c-0.338-0.008-0.276,0.022-0.281-0.282
				c-0.002-0.171,0-0.341-0.002-0.512c0-0.112-0.037-0.209-0.166-0.205c-0.118,0.003-0.154,0.095-0.154,0.202
				c0,0.221-0.004,0.442,0.002,0.663c0.003,0.097-0.03,0.134-0.129,0.133c-0.408-0.004-0.324,0.028-0.328-0.308
				c-0.004-0.216-0.021-0.435,0.009-0.646c0.059-0.428,0.528-0.619,0.883-0.374C244.85,117.279,244.883,117.302,244.929,117.336z"/>
			<path fill="#FFFFFF" d="M243.689,117.889c0,0.401-0.32,0.734-0.713,0.742c-0.383,0.007-0.74-0.352-0.741-0.745
				c0-0.396,0.348-0.74,0.743-0.738C243.369,117.151,243.689,117.485,243.689,117.889z M243.258,117.888
				c0-0.17-0.124-0.306-0.283-0.31c-0.156-0.004-0.293,0.135-0.295,0.302c-0.004,0.17,0.137,0.323,0.295,0.318
				C243.133,118.195,243.259,118.056,243.258,117.888z"/>
			<path fill="#FFFFFF" d="M241.787,118.584c-0.424-0.005-0.699-0.277-0.701-0.694c0-0.416,0.29-0.706,0.711-0.709
				c0.044-0.001,0.094-0.012,0.133,0.003c0.039,0.017,0.077,0.056,0.1,0.096c0.014,0.026-0.002,0.069,0.004,0.104
				c0.019,0.146-0.021,0.213-0.19,0.211c-0.212-0.001-0.306,0.115-0.298,0.312c0.006,0.179,0.105,0.266,0.306,0.269
				c0.183,0.003,0.173,0.004,0.185,0.228c0.008,0.148-0.045,0.203-0.187,0.182C241.828,118.582,241.809,118.584,241.787,118.584z"/>
			<path fill="#FFFFFF" d="M240.893,118.334c0.001,0.161-0.121,0.291-0.278,0.295c-0.16,0.005-0.292-0.131-0.29-0.299
				c0.002-0.167,0.119-0.28,0.287-0.28C240.779,118.052,240.892,118.166,240.893,118.334z"/>
		</g>
	</g>
</g>
</svg>
