<?xml version="1.0" encoding="utf-8"?>
<!-- Generator: Adobe Illustrator 16.0.0, SVG Export Plug-In . SVG Version: 6.00 Build 0)  -->
<!DOCTYPE svg PUBLIC "-//W3C//DTD SVG 1.1//EN" "http://www.w3.org/Graphics/SVG/1.1/DTD/svg11.dtd">
<svg version="1.1" id="Layer_1" xmlns="http://www.w3.org/2000/svg" xmlns:xlink="http://www.w3.org/1999/xlink" x="0px" y="0px"
	 width="200px" height="53.085px" viewBox="0 0 200 53.085" enable-background="new 0 0 200 53.085" xml:space="preserve">
<path fill-rule="evenodd" clip-rule="evenodd" fill="#96C11F" d="M101.376,41.64c-2.581,0-5.036,0.012-7.489-0.026
	c-0.164-0.004-0.443-0.385-0.459-0.607c-0.134-1.834-0.22-3.673-0.321-5.512c-0.304-5.516-0.609-11.029-0.908-16.544
	c-0.079-1.452-0.14-2.904-0.359-4.368c-0.335,1.837-0.673,3.673-1.005,5.51c-1.083,6.005-2.144,12.013-3.269,18.012
	c-0.151,0.806-0.514,1.621-0.961,2.313c-1.592,2.464-4.733,2.421-6.37-0.021c-0.858-1.281-1.01-2.766-1.274-4.219
	c-0.956-5.249-1.906-10.501-2.857-15.752c-0.277-1.533-0.55-3.066-0.831-4.598c-0.043-0.233-0.121-0.46-0.346-0.669
	c-0.062,0.902-0.138,1.803-0.186,2.707c-0.174,3.371-0.325,6.744-0.51,10.114c-0.238,4.365-0.505,8.73-0.742,13.096
	c-0.023,0.438-0.192,0.577-0.604,0.576c-2.227-0.01-4.455-0.02-6.682,0.005c-0.625,0.007-0.648-0.334-0.604-0.785
	c0.17-1.704,0.336-3.408,0.508-5.112c0.29-2.872,0.581-5.747,0.873-8.62c0.338-3.33,0.666-6.662,1.021-9.991
	c0.181-1.701,0.334-3.41,0.634-5.092c0.692-3.881,3.094-5.036,7-4.662c2.822,0.269,4.508,2.132,5.041,5.264
	c0.62,3.65,1.142,7.316,1.701,10.978c0.277,1.817,0.535,3.638,0.811,5.456c0.033,0.22,0.125,0.428,0.379,0.666
	c0.095-0.442,0.213-0.879,0.282-1.325c0.78-5.123,1.535-10.251,2.346-15.369c0.143-0.897,0.422-1.798,0.798-2.625
	c1.047-2.304,3.29-3.416,6.04-3.101c3.062,0.351,4.396,1.387,5.123,4.018c0.156,0.564,0.286,1.144,0.347,1.726
	c0.43,4.091,0.835,8.187,1.254,12.28c0.391,3.838,0.794,7.677,1.182,11.517C101.095,38.422,101.224,39.971,101.376,41.64z"/>
<path fill-rule="evenodd" clip-rule="evenodd" fill="#96C11F" d="M19.031,29.731c0.209-1.356,0.42-2.71,0.628-4.066
	c0.663-4.315,1.32-8.631,1.994-12.944c0.074-0.477,0.205-0.951,0.363-1.407c1.027-2.955,3.396-4.387,6.532-3.965
	c0.379,0.051,0.761,0.093,1.137,0.166c2.09,0.404,3.37,1.714,3.815,3.73c0.377,1.715,0.586,3.472,0.781,5.219
	c0.382,3.43,0.705,6.865,1.045,10.298c0.33,3.333,0.646,6.666,0.977,9.998c0.13,1.322,0.265,2.645,0.436,3.961
	c0.089,0.681-0.079,0.96-0.834,0.941c-2.072-0.048-4.146-0.037-6.22-0.002c-0.633,0.012-0.828-0.201-0.858-0.82
	c-0.168-3.525-0.379-7.046-0.57-10.57c-0.267-4.902-0.529-9.802-0.797-14.705c-0.009-0.163-0.062-0.324-0.286-0.505
	c-0.183,0.948-0.375,1.896-0.548,2.846c-1.162,6.405-2.328,12.808-3.473,19.218c-0.235,1.32-0.524,2.599-1.404,3.673
	c-1.581,1.927-4.276,1.909-5.839-0.029c-0.978-1.214-1.209-2.675-1.474-4.137c-1.275-7.059-2.555-14.115-3.834-21.172
	c-0.021-0.117-0.052-0.232-0.217-0.348c-0.056,0.463-0.14,0.924-0.164,1.389c-0.177,3.371-0.335,6.742-0.513,10.113
	c-0.253,4.799-0.513,9.602-0.793,14.398c-0.013,0.216-0.256,0.592-0.396,0.596c-2.5,0.034-5,0.025-7.573,0.025
	c0.171-1.761,0.332-3.432,0.5-5.104c0.281-2.822,0.567-5.645,0.852-8.467c0.288-2.847,0.574-5.694,0.865-8.542
	c0.218-2.135,0.43-4.272,0.674-6.403c0.073-0.63,0.203-1.262,0.381-1.872c0.771-2.621,2.313-3.756,5.274-3.923
	c3.772-0.213,6.074,1.783,6.678,5.77c0.81,5.353,1.629,10.702,2.448,16.052c0.032,0.207,0.102,0.409,0.152,0.611
	C18.858,29.748,18.945,29.739,19.031,29.731z"/>
<path fill-rule="evenodd" clip-rule="evenodd" fill="#96C11F" d="M165.243,24.814c0.014,9.607-7.662,17.408-17.137,17.415
	c-9.397,0.006-17.205-7.802-17.214-17.212c-0.009-9.765,7.635-17.704,17.052-17.708C157.563,7.304,165.23,15.063,165.243,24.814z
	 M139.361,24.747c-0.008,5.014,3.851,8.984,8.73,8.986c4.817,0.001,8.748-4,8.764-8.918c0.017-4.937-3.941-9.001-8.771-9.007
	C143.266,15.803,139.369,19.797,139.361,24.747z"/>
<path fill-rule="evenodd" clip-rule="evenodd" fill="#96C11F" d="M179.946,33.593c1.379,0,2.553,0,3.725,0
	c2.456,0,4.915,0.026,7.369-0.015c0.726-0.011,0.906,0.228,0.894,0.925c-0.043,2.124-0.03,4.248-0.005,6.372
	c0.005,0.535-0.103,0.785-0.71,0.78c-5.81-0.025-11.62,0.038-17.429-0.057c-3.865-0.062-6.023-3.476-4.521-7.054
	c0.529-1.262,1.285-2.44,2.024-3.6c3.024-4.743,6.084-9.462,9.128-14.192c0.134-0.208,0.24-0.434,0.42-0.758
	c-0.366-0.02-0.632-0.046-0.896-0.046c-2.844-0.003-5.682-0.015-8.523,0.009c-0.559,0.005-0.76-0.139-0.753-0.728
	c0.033-2.2,0.033-4.402,0-6.602c-0.009-0.595,0.201-0.729,0.756-0.727c4.914,0.022,9.828,0.005,14.741,0.038
	c0.756,0.004,1.538,0.124,2.263,0.335c2.463,0.718,3.274,2.543,3.12,5.208c-0.083,1.418-0.736,2.645-1.472,3.824
	c-3.171,5.073-6.346,10.145-9.515,15.22C180.379,32.819,180.216,33.128,179.946,33.593z"/>
<path fill-rule="evenodd" clip-rule="evenodd" fill="#96C11F" d="M115.785,17.712c6.27-0.168,12.168,5.489,12.097,12.302
	c-0.07,6.661-5.536,12.227-12.132,12.216c-6.563-0.013-12.066-5.631-12.065-12.29C103.688,22.958,109.687,17.542,115.785,17.712z
	 M111.094,29.972c0.002,2.859,2.007,4.992,4.694,4.99c2.658,0,4.76-2.198,4.761-4.981c0.003-2.793-2.178-5.1-4.791-5.071
	C113.114,24.938,111.093,27.136,111.094,29.972z"/>
<path fill-rule="evenodd" clip-rule="evenodd" fill="#96C11F" d="M39.13,29.973c0-6.776,5.418-12.264,12.108-12.261
	c6.565,0.001,12.079,5.604,12.076,12.269c-0.003,6.627-5.571,12.236-12.121,12.253C44.445,42.25,38.942,36.259,39.13,29.973z
	 M55.921,30.008c0.009-2.854-2.1-5.127-4.731-5.101c-2.629,0.027-4.744,2.268-4.748,5.029c-0.003,2.794,2.084,5.018,4.715,5.025
	C53.833,34.969,55.912,32.807,55.921,30.008z"/>
<path fill-rule="evenodd" clip-rule="evenodd" fill="#706F6F" d="M186.872,45.901c0.904-0.819,1.884-1.176,3.06-0.807
	c1.214,0.38,1.975,1.341,1.986,2.6c0.007,1.28-0.019,2.56,0.011,3.838c0.011,0.51-0.119,0.743-0.677,0.733
	c-2.027-0.033-1.624,0.171-1.661-1.592c-0.018-0.87-0.013-1.739-0.005-2.609c0.005-0.513-0.215-0.857-0.736-0.89
	c-0.533-0.031-0.809,0.318-0.826,0.809c-0.04,1.15-0.063,2.3-0.033,3.45c0.017,0.635-0.201,0.852-0.836,0.836
	c-1.716-0.044-1.405,0.113-1.431-1.437c-0.013-0.869,0.004-1.739-0.005-2.608c-0.006-0.568-0.194-1.062-0.851-1.042
	c-0.604,0.016-0.784,0.484-0.784,1.026c0,1.127-0.021,2.252,0.01,3.376c0.011,0.496-0.156,0.683-0.658,0.679
	c-2.083-0.021-1.649,0.147-1.677-1.568c-0.02-1.099-0.1-2.212,0.049-3.292c0.301-2.18,2.688-3.152,4.499-1.905
	C186.473,45.613,186.638,45.733,186.872,45.901z"/>
<path fill-rule="evenodd" clip-rule="evenodd" fill="#706F6F" d="M180.563,48.718c0,2.044-1.637,3.744-3.638,3.781
	c-1.95,0.036-3.768-1.794-3.77-3.794c-0.002-2.012,1.767-3.77,3.78-3.757C178.928,44.96,180.563,46.659,180.563,48.718z
	 M178.363,48.712c0-0.865-0.637-1.556-1.45-1.573c-0.791-0.02-1.483,0.689-1.5,1.534c-0.02,0.868,0.698,1.643,1.502,1.623
	C177.72,50.277,178.365,49.573,178.363,48.712z"/>
<path fill-rule="evenodd" clip-rule="evenodd" fill="#706F6F" d="M170.871,52.259c-2.163-0.024-3.563-1.41-3.569-3.531
	c-0.004-2.12,1.472-3.598,3.612-3.617c0.229-0.001,0.486-0.061,0.683,0.02c0.201,0.086,0.39,0.287,0.503,0.485
	c0.075,0.134-0.006,0.352,0.02,0.527c0.098,0.743-0.106,1.089-0.968,1.08c-1.076-0.01-1.554,0.585-1.516,1.587
	c0.032,0.912,0.537,1.354,1.556,1.37c0.931,0.013,0.883,0.016,0.94,1.156c0.038,0.755-0.228,1.032-0.953,0.923
	C171.079,52.244,170.974,52.259,170.871,52.259z"/>
<path fill-rule="evenodd" clip-rule="evenodd" fill="#706F6F" d="M166.31,50.99c0.003,0.819-0.619,1.483-1.417,1.505
	c-0.817,0.023-1.485-0.67-1.476-1.527c0.011-0.849,0.604-1.428,1.459-1.425C165.732,49.548,166.306,50.124,166.31,50.99z"/>
<g>
	<g>
		<path fill="#706F6F" d="M191.18,6.058V1.72h-1.616V1.14h3.898v0.58h-1.63v4.338H191.18z"/>
		<path fill="#706F6F" d="M191.973,6.198h-0.927V1.858h-1.623V1h4.173v0.858h-1.623V6.198z M191.32,5.918h0.371V1.581h1.629v-0.3
			h-3.618v0.3h1.618V5.918z"/>
	</g>
	<g>
		<path fill="#706F6F" d="M194.485,6.058V1.14h0.979l1.164,3.482c0.111,0.324,0.186,0.567,0.238,0.728
			c0.05-0.18,0.142-0.442,0.26-0.787l1.177-3.423h0.876v4.918h-0.627V1.942l-1.426,4.116h-0.591l-1.424-4.186v4.186H194.485z"/>
		<path fill="#706F6F" d="M199.319,6.198h-0.904V2.769l-1.194,3.429h-0.785l-1.184-3.482v3.482h-0.904V1h1.221l0.029,0.098
			l1.164,3.48c0.035,0.117,0.074,0.221,0.104,0.319c0.037-0.111,0.08-0.239,0.13-0.38L198.204,1h1.115V6.198z M198.69,5.918h0.347
			V1.281h-0.347V5.918z M196.636,5.918h0.387l1.616-4.637h-0.239l-1.142,3.326c-0.118,0.345-0.203,0.607-0.259,0.786l-0.133,0.429
			l-0.135-0.432c-0.051-0.161-0.129-0.402-0.237-0.724l-1.129-3.386h-0.308L196.636,5.918z M194.626,5.918h0.35V1.281h-0.35V5.918z"
			/>
	</g>
</g>
<g>
	<path fill-rule="evenodd" clip-rule="evenodd" fill="#96C11F" d="M101.376,41.64c-2.581,0-5.036,0.012-7.489-0.026
		c-0.164-0.004-0.443-0.385-0.459-0.607c-0.134-1.834-0.22-3.673-0.321-5.512c-0.304-5.516-0.609-11.029-0.908-16.544
		c-0.079-1.452-0.14-2.904-0.359-4.368c-0.335,1.837-0.673,3.673-1.005,5.51c-1.083,6.005-2.144,12.013-3.269,18.012
		c-0.151,0.806-0.514,1.621-0.961,2.313c-1.592,2.464-4.733,2.421-6.37-0.021c-0.858-1.281-1.01-2.766-1.274-4.219
		c-0.956-5.249-1.906-10.501-2.857-15.752c-0.277-1.533-0.55-3.066-0.831-4.598c-0.043-0.233-0.121-0.46-0.346-0.669
		c-0.062,0.902-0.138,1.803-0.186,2.707c-0.174,3.371-0.325,6.744-0.51,10.114c-0.238,4.365-0.505,8.73-0.742,13.096
		c-0.023,0.438-0.192,0.577-0.604,0.576c-2.227-0.01-4.455-0.02-6.682,0.005c-0.625,0.007-0.648-0.334-0.604-0.785
		c0.17-1.704,0.336-3.408,0.508-5.112c0.29-2.872,0.581-5.747,0.873-8.62c0.338-3.33,0.666-6.662,1.021-9.991
		c0.181-1.701,0.334-3.41,0.634-5.092c0.692-3.881,3.094-5.036,7-4.662c2.822,0.269,4.508,2.132,5.041,5.264
		c0.62,3.65,1.142,7.316,1.701,10.978c0.277,1.817,0.535,3.638,0.811,5.456c0.033,0.22,0.125,0.428,0.379,0.666
		c0.095-0.442,0.213-0.879,0.282-1.325c0.78-5.123,1.535-10.251,2.346-15.369c0.143-0.897,0.422-1.798,0.798-2.625
		c1.047-2.304,3.29-3.416,6.04-3.101c3.062,0.351,4.396,1.387,5.123,4.018c0.156,0.564,0.286,1.144,0.347,1.726
		c0.43,4.091,0.835,8.187,1.254,12.28c0.391,3.838,0.794,7.677,1.182,11.517C101.095,38.422,101.224,39.971,101.376,41.64z"/>
	<path fill-rule="evenodd" clip-rule="evenodd" fill="#96C11F" d="M19.031,29.731c0.209-1.356,0.42-2.71,0.628-4.066
		c0.663-4.315,1.32-8.631,1.994-12.944c0.074-0.477,0.205-0.951,0.363-1.407c1.027-2.955,3.396-4.387,6.532-3.965
		c0.379,0.051,0.761,0.093,1.137,0.166c2.09,0.404,3.37,1.714,3.815,3.73c0.377,1.715,0.586,3.472,0.781,5.219
		c0.382,3.43,0.705,6.865,1.045,10.298c0.33,3.333,0.646,6.666,0.977,9.998c0.13,1.322,0.265,2.645,0.436,3.961
		c0.089,0.681-0.079,0.96-0.834,0.941c-2.072-0.048-4.146-0.037-6.22-0.002c-0.633,0.012-0.828-0.201-0.858-0.82
		c-0.168-3.525-0.379-7.046-0.57-10.57c-0.267-4.902-0.529-9.802-0.797-14.705c-0.009-0.163-0.062-0.324-0.286-0.505
		c-0.183,0.948-0.375,1.896-0.548,2.846c-1.162,6.405-2.328,12.808-3.473,19.218c-0.235,1.32-0.524,2.599-1.404,3.673
		c-1.581,1.927-4.276,1.909-5.839-0.029c-0.978-1.214-1.209-2.675-1.474-4.137c-1.275-7.059-2.555-14.115-3.834-21.172
		c-0.021-0.117-0.052-0.232-0.217-0.348c-0.056,0.463-0.14,0.924-0.164,1.389c-0.177,3.371-0.335,6.742-0.513,10.113
		c-0.253,4.799-0.513,9.602-0.793,14.398c-0.013,0.216-0.256,0.592-0.396,0.596c-2.5,0.034-5,0.025-7.573,0.025
		c0.171-1.761,0.332-3.432,0.5-5.104c0.281-2.822,0.567-5.645,0.852-8.467c0.288-2.847,0.574-5.694,0.865-8.542
		c0.218-2.135,0.43-4.272,0.674-6.403c0.073-0.63,0.203-1.262,0.381-1.872c0.771-2.621,2.313-3.756,5.274-3.923
		c3.772-0.213,6.074,1.783,6.678,5.77c0.81,5.353,1.629,10.702,2.448,16.052c0.032,0.207,0.102,0.409,0.152,0.611
		C18.858,29.748,18.945,29.739,19.031,29.731z"/>
	<path fill-rule="evenodd" clip-rule="evenodd" fill="#96C11F" d="M165.243,24.814c0.014,9.607-7.662,17.408-17.137,17.415
		c-9.397,0.006-17.205-7.802-17.214-17.212c-0.009-9.765,7.635-17.704,17.052-17.708C157.563,7.304,165.23,15.063,165.243,24.814z
		 M139.361,24.747c-0.008,5.014,3.851,8.984,8.73,8.986c4.817,0.001,8.748-4,8.764-8.918c0.017-4.937-3.941-9.001-8.771-9.007
		C143.266,15.803,139.369,19.797,139.361,24.747z"/>
	<path fill-rule="evenodd" clip-rule="evenodd" fill="#96C11F" d="M179.946,33.593c1.379,0,2.553,0,3.725,0
		c2.456,0,4.915,0.026,7.369-0.015c0.726-0.011,0.906,0.228,0.894,0.925c-0.043,2.124-0.03,4.248-0.005,6.372
		c0.005,0.535-0.103,0.785-0.71,0.78c-5.81-0.025-11.62,0.038-17.429-0.057c-3.865-0.062-6.023-3.476-4.521-7.054
		c0.529-1.262,1.285-2.44,2.024-3.6c3.024-4.743,6.084-9.462,9.128-14.192c0.134-0.208,0.24-0.434,0.42-0.758
		c-0.366-0.02-0.632-0.046-0.896-0.046c-2.844-0.003-5.682-0.015-8.523,0.009c-0.559,0.005-0.76-0.139-0.753-0.728
		c0.033-2.2,0.033-4.402,0-6.602c-0.009-0.595,0.201-0.729,0.756-0.727c4.914,0.022,9.828,0.005,14.741,0.038
		c0.756,0.004,1.538,0.124,2.263,0.335c2.463,0.718,3.274,2.543,3.12,5.208c-0.083,1.418-0.736,2.645-1.472,3.824
		c-3.171,5.073-6.346,10.145-9.515,15.22C180.379,32.819,180.216,33.128,179.946,33.593z"/>
	<path fill-rule="evenodd" clip-rule="evenodd" fill="#96C11F" d="M115.785,17.712c6.27-0.168,12.168,5.489,12.097,12.302
		c-0.07,6.661-5.536,12.227-12.132,12.216c-6.563-0.013-12.066-5.631-12.065-12.29C103.688,22.958,109.687,17.542,115.785,17.712z
		 M111.094,29.972c0.002,2.859,2.007,4.992,4.694,4.99c2.658,0,4.76-2.198,4.761-4.981c0.003-2.793-2.178-5.1-4.791-5.071
		C113.114,24.938,111.093,27.136,111.094,29.972z"/>
	<path fill-rule="evenodd" clip-rule="evenodd" fill="#96C11F" d="M39.13,29.973c0-6.776,5.418-12.264,12.108-12.261
		c6.565,0.001,12.079,5.604,12.076,12.269c-0.003,6.627-5.571,12.236-12.121,12.253C44.445,42.25,38.942,36.259,39.13,29.973z
		 M55.921,30.008c0.009-2.854-2.1-5.127-4.731-5.101c-2.629,0.027-4.744,2.268-4.748,5.029c-0.003,2.794,2.084,5.018,4.715,5.025
		C53.833,34.969,55.912,32.807,55.921,30.008z"/>
	<path fill-rule="evenodd" clip-rule="evenodd" fill="#706F6F" d="M186.872,45.901c0.904-0.819,1.884-1.176,3.06-0.807
		c1.214,0.38,1.975,1.341,1.986,2.6c0.007,1.28-0.019,2.56,0.011,3.838c0.011,0.51-0.119,0.743-0.677,0.733
		c-2.027-0.033-1.624,0.171-1.661-1.592c-0.018-0.87-0.013-1.739-0.005-2.609c0.005-0.513-0.215-0.857-0.736-0.89
		c-0.533-0.031-0.809,0.318-0.826,0.809c-0.04,1.15-0.063,2.3-0.033,3.45c0.017,0.635-0.201,0.852-0.836,0.836
		c-1.716-0.044-1.405,0.113-1.431-1.437c-0.013-0.869,0.004-1.739-0.005-2.608c-0.006-0.568-0.194-1.062-0.851-1.042
		c-0.604,0.016-0.784,0.484-0.784,1.026c0,1.127-0.021,2.252,0.01,3.376c0.011,0.496-0.156,0.683-0.658,0.679
		c-2.083-0.021-1.649,0.147-1.677-1.568c-0.02-1.099-0.1-2.212,0.049-3.292c0.301-2.18,2.688-3.152,4.499-1.905
		C186.473,45.613,186.638,45.733,186.872,45.901z"/>
	<path fill-rule="evenodd" clip-rule="evenodd" fill="#706F6F" d="M180.563,48.718c0,2.044-1.637,3.744-3.638,3.781
		c-1.95,0.036-3.768-1.794-3.77-3.794c-0.002-2.012,1.767-3.77,3.78-3.757C178.928,44.96,180.563,46.659,180.563,48.718z
		 M178.363,48.712c0-0.865-0.637-1.556-1.45-1.573c-0.791-0.02-1.483,0.689-1.5,1.534c-0.02,0.868,0.698,1.643,1.502,1.623
		C177.72,50.277,178.365,49.573,178.363,48.712z"/>
	<path fill-rule="evenodd" clip-rule="evenodd" fill="#706F6F" d="M170.871,52.259c-2.163-0.024-3.563-1.41-3.569-3.531
		c-0.004-2.12,1.472-3.598,3.612-3.617c0.229-0.001,0.486-0.061,0.683,0.02c0.201,0.086,0.39,0.287,0.503,0.485
		c0.075,0.134-0.006,0.352,0.02,0.527c0.098,0.743-0.106,1.089-0.968,1.08c-1.076-0.01-1.554,0.585-1.516,1.587
		c0.032,0.912,0.537,1.354,1.556,1.37c0.931,0.013,0.883,0.016,0.94,1.156c0.038,0.755-0.228,1.032-0.953,0.923
		C171.079,52.244,170.974,52.259,170.871,52.259z"/>
	<path fill-rule="evenodd" clip-rule="evenodd" fill="#706F6F" d="M166.31,50.99c0.003,0.819-0.619,1.483-1.417,1.505
		c-0.817,0.023-1.485-0.67-1.476-1.527c0.011-0.849,0.604-1.428,1.459-1.425C165.732,49.548,166.306,50.124,166.31,50.99z"/>
</g>
</svg>
