<?xml version="1.0" encoding="utf-8"?>
<!-- Generator: Adobe Illustrator 16.0.0, SVG Export Plug-In . SVG Version: 6.00 Build 0)  -->
<!DOCTYPE svg PUBLIC "-//W3C//DTD SVG 1.1//EN" "http://www.w3.org/Graphics/SVG/1.1/DTD/svg11.dtd">
<svg version="1.1" id="Layer_1" xmlns="http://www.w3.org/2000/svg" xmlns:xlink="http://www.w3.org/1999/xlink" x="0px" y="0px"
	 width="209px" height="151.217px" viewBox="0 0 209 151.217" enable-background="new 0 0 209 151.217" xml:space="preserve">
<g>
	<g>
		<path fill-rule="evenodd" clip-rule="evenodd" fill="#013C5C" d="M34.699,9.294h140.47c2.871,0,5.22,2.349,5.22,5.22v88.743
			c0,2.869-2.349,5.219-5.22,5.219H34.699c-2.871,0-5.22-2.35-5.22-5.219V14.515C29.479,11.644,31.828,9.294,34.699,9.294z"/>
		<rect x="37.309" y="19.65" fill-rule="evenodd" clip-rule="evenodd" fill="#FFFFFF" width="135.25" height="72.608"/>
		<circle fill-rule="evenodd" clip-rule="evenodd" fill="#5895CB" cx="104.934" cy="14.657" r="1.898"/>
		<rect x="101.726" y="96.778" fill-rule="evenodd" clip-rule="evenodd" fill="#055A87" width="6.417" height="6.417"/>
		<polygon fill-rule="evenodd" clip-rule="evenodd" fill="#055A87" points="29.479,108.477 180.39,108.477 206.6,125.658 
			3.269,125.658 		"/>
		<path fill-rule="evenodd" clip-rule="evenodd" fill="#013C5C" d="M3.269,125.658H206.6v2.443c0,2.072-1.698,3.771-3.772,3.771
			H7.041c-2.075,0-3.772-1.699-3.772-3.771V125.658z"/>
		<rect x="3.269" y="125.658" fill-rule="evenodd" clip-rule="evenodd" fill="#013C5C" width="203.331" height="2.926"/>
	</g>
	<path fill-rule="evenodd" clip-rule="evenodd" fill="#8FBFEA" d="M172.377,118.313v-0.125l0.16,0.125H172.377L172.377,118.313z
		 M172.377,114.904c0.736,0.549,1.477,1.094,2.244,1.645c0.81,0.582,1.614,1.174,2.421,1.758c4.355-0.004,8.728-0.008,13.12-0.014
		c-0.957-0.584-1.916-1.168-2.872-1.752c-0.958-0.584-1.896-1.17-2.834-1.756c-4.038,0-8.077,0-12.079,0V114.904L172.377,114.904z
		 M172.377,113.418v-3.512l4.102,0.008c0.976,0.586,1.914,1.17,2.872,1.756c0.957,0.584,1.915,1.168,2.872,1.752
		C178.932,113.42,175.654,113.418,172.377,113.418z M172.377,109.906v3.512l-2.055-0.002c-0.808-0.586-1.633-1.172-2.44-1.76
		c-0.68-0.492-1.348-0.988-2.046-1.484v-0.277L172.377,109.906L172.377,109.906z M172.377,114.785v0.119l-0.159-0.119H172.377
		L172.377,114.785z M172.377,118.188c-0.7-0.545-1.419-1.088-2.13-1.637c-0.755-0.584-1.501-1.178-2.252-1.766h-2.159v3.533
		l6.541-0.006V118.188L172.377,118.188z M165.836,113.414l0.395,0.002l-0.395-0.305V113.414z M52.515,119.879h103.891l3.65,3.824
		H49.018L52.515,119.879L52.515,119.879z M165.836,109.895v0.277c-0.13-0.094-0.261-0.186-0.395-0.279L165.836,109.895
		L165.836,109.895z M165.836,113.111c-0.634-0.486-1.258-0.973-1.896-1.459c-0.77-0.586-1.501-1.178-2.29-1.768
		c-3.679-0.006-7.339-0.012-10.999-0.02c0.638,0.592,1.233,1.188,1.839,1.773c0.613,0.594,1.239,1.18,1.858,1.77l11.488,0.006
		V113.111L165.836,113.111z M165.836,114.785v3.533l-6.382,0.008c-0.619-0.59-1.238-1.18-1.858-1.77
		c-0.619-0.59-1.201-1.182-1.82-1.771C159.129,114.785,162.482,114.785,165.836,114.785L165.836,114.785z M42.871,118.449v-3.672
		c3.354,0,6.72,0,10.099,0.002c-0.6,0.611-1.214,1.227-1.82,1.834c-0.613,0.613-1.221,1.221-1.84,1.83L42.871,118.449
		L42.871,118.449z M42.871,113.348v-0.305c0.631-0.512,1.271-1.021,1.896-1.533c0.751-0.611,1.502-1.227,2.271-1.842
		c3.66,0.008,7.32,0.014,11,0.021c-0.601,0.611-1.215,1.229-1.821,1.834c-0.614,0.613-1.24,1.221-1.84,1.832
		C50.542,113.352,46.708,113.352,42.871,113.348L42.871,113.348z M42.871,109.947l0.376-0.287h-0.376V109.947L42.871,109.947z
		 M57.174,114.779c4.074,0,8.146,0,12.239,0.002c-0.413,0.607-0.838,1.219-1.239,1.82c-0.406,0.611-0.826,1.217-1.239,1.822
		c-4.373,0.004-8.747,0.01-13.102,0.014c0.564-0.607,1.115-1.215,1.671-1.828C56.054,116.006,56.63,115.389,57.174,114.779
		L57.174,114.779z M73.599,114.779c4.073,0,8.166,0.002,12.238,0.002c-0.207,0.604-0.442,1.211-0.657,1.813
		c-0.216,0.605-0.431,1.207-0.657,1.811c-4.374,0.006-8.747,0.012-13.102,0.014c0.375-0.605,0.732-1.211,1.089-1.816
		C72.867,115.996,73.242,115.389,73.599,114.779L73.599,114.779z M90.042,114.781c4.074,0,8.146,0,12.22,0
		c-0.019,0.602-0.057,1.203-0.075,1.805c-0.019,0.6-0.037,1.201-0.056,1.801c-4.374,0.004-8.729,0.008-13.083,0.014
		c0.169-0.604,0.319-1.205,0.488-1.809C89.704,115.99,89.892,115.385,90.042,114.781L90.042,114.781z M106.484,114.781
		c4.054,0,8.128,0,12.22,0c0.168,0.6,0.328,1.197,0.507,1.795c0.178,0.596,0.337,1.195,0.507,1.791
		c-4.374,0.006-8.729,0.01-13.083,0.014c-0.019-0.598-0.047-1.199-0.075-1.797C106.532,115.982,106.503,115.381,106.484,114.781
		L106.484,114.781z M122.909,114.783c4.073,0,8.146,0,12.238,0c0.357,0.596,0.721,1.188,1.089,1.783
		c0.364,0.592,0.732,1.189,1.108,1.783c-4.374,0.006-8.747,0.01-13.102,0.014c-0.226-0.596-0.451-1.193-0.675-1.789
		C123.34,115.979,123.133,115.381,122.909,114.783L122.909,114.783z M139.333,114.783c4.073,0.002,8.165,0.002,12.238,0.002
		c0.564,0.592,1.108,1.184,1.671,1.773c0.563,0.592,1.126,1.182,1.689,1.771c-4.374,0.006-8.747,0.01-13.102,0.014
		c-0.413-0.592-0.833-1.182-1.258-1.777C140.151,115.975,139.746,115.379,139.333,114.783L139.333,114.783z M61.83,109.697
		c3.66,0.006,7.339,0.014,11.019,0.021c-0.414,0.607-0.827,1.217-1.24,1.822c-0.413,0.607-0.826,1.215-1.238,1.82
		c-3.96,0-7.94-0.004-11.901-0.004c0.563-0.609,1.133-1.217,1.689-1.828C60.709,110.924,61.267,110.309,61.83,109.697L61.83,109.697
		z M76.64,109.725c3.66,0.008,7.339,0.016,11.018,0.021c-0.225,0.605-0.442,1.213-0.657,1.813c-0.216,0.607-0.45,1.209-0.657,1.813
		c-3.96-0.002-7.94-0.004-11.9-0.006c0.357-0.605,0.748-1.205,1.107-1.818C75.904,110.945,76.264,110.332,76.64,109.725
		L76.64,109.725z M91.45,109.754c3.659,0.006,7.32,0.014,10.999,0.021c-0.019,0.6-0.038,1.203-0.056,1.803
		c-0.019,0.602-0.057,1.201-0.075,1.801c-3.96,0-7.921-0.002-11.881-0.004c0.168-0.605,0.338-1.207,0.506-1.809
		C91.111,110.963,91.281,110.357,91.45,109.754L91.45,109.754z M106.241,109.781c3.66,0.008,7.339,0.014,10.999,0.021
		c0.188,0.598,0.357,1.197,0.526,1.793c0.169,0.598,0.337,1.195,0.525,1.795c-3.979-0.004-7.921-0.006-11.881-0.008
		c-0.037-0.6-0.047-1.201-0.075-1.799C106.306,110.982,106.278,110.383,106.241,109.781L106.241,109.781z M121.05,109.809
		c3.661,0.008,7.34,0.014,11.019,0.021c0.376,0.596,0.739,1.188,1.107,1.787c0.363,0.588,0.732,1.186,1.107,1.779
		c-3.979-0.002-7.94-0.002-11.9-0.006c-0.225-0.596-0.451-1.191-0.676-1.789C121.482,111.006,121.275,110.408,121.05,109.809
		L121.05,109.809z M135.842,109.838c3.66,0.006,7.339,0.014,11.018,0.02c0.582,0.596,1.126,1.188,1.689,1.777
		s1.126,1.182,1.708,1.771c-3.979-0.002-7.939-0.004-11.9-0.006c-0.414-0.596-0.838-1.191-1.258-1.779
		C136.674,111.023,136.272,110.432,135.842,109.838z M42.871,109.66v0.287c-0.685,0.521-1.375,1.043-2.045,1.559
		c-0.803,0.617-1.614,1.227-2.422,1.84l-2.027-0.002v-3.695L42.871,109.66L42.871,109.66z M42.871,113.043
		c-0.125,0.102-0.25,0.205-0.375,0.305h0.375V113.043L42.871,113.043z M42.871,114.777v3.672l-6.494,0.006v-0.119
		c0.716-0.57,1.41-1.137,2.121-1.717c0.741-0.605,1.501-1.227,2.252-1.842H42.871L42.871,114.777z M36.377,114.895l0.15-0.117h-0.15
		V114.895z M36.377,109.648v3.695c-3.284-0.002-6.566-0.004-9.835-0.004c0.938-0.617,1.899-1.23,2.853-1.848
		c0.941-0.613,1.896-1.234,2.854-1.852L36.377,109.648L36.377,109.648z M36.377,114.777v0.117c-0.741,0.576-1.496,1.152-2.253,1.727
		c-0.807,0.613-1.595,1.227-2.402,1.84c-4.374,0.004-8.729,0.008-13.083,0.014c0.957-0.615,1.899-1.229,2.853-1.848
		c0.942-0.613,1.896-1.234,2.834-1.852C28.332,114.777,32.354,114.777,36.377,114.777L36.377,114.777z M36.377,118.336l-0.15,0.119
		h0.15V118.336z"/>
	<rect x="77.97" y="28.817" fill-rule="evenodd" clip-rule="evenodd" fill="#5895CB" width="53.928" height="9.325"/>
	<path opacity="0.2" fill-rule="evenodd" clip-rule="evenodd" d="M51.727,28.266c0,4.198,3.403,7.602,7.602,7.602
		c4.198,0,7.601-3.403,7.601-7.602c0,4.198,3.403,7.602,7.601,7.602c4.198,0,7.601-3.403,7.601-7.602
		c0,4.198,3.404,7.602,7.602,7.602c4.198,0,7.601-3.403,7.601-7.602c0,4.198,3.403,7.602,7.602,7.602
		c4.198,0,7.601-3.403,7.601-7.602c0,4.198,3.403,7.602,7.602,7.602c4.198,0,7.601-3.403,7.601-7.602
		c0,4.198,3.403,7.602,7.601,7.602c4.198,0,7.602-3.403,7.602-7.602c0,4.198,3.403,7.602,7.601,7.602
		c4.199,0,7.602-3.403,7.602-7.602c0,4.198,3.403,7.602,7.601,7.602s7.602-3.403,7.602-7.602c0,4.011,3.106,7.296,7.044,7.581
		V14.515c0-2.871-2.349-5.22-5.22-5.22H34.699c-2.871,0-5.22,2.349-5.22,5.22v21.332c3.938-0.285,7.044-3.57,7.044-7.581
		c0,4.198,3.403,7.602,7.602,7.602C48.323,35.867,51.727,32.464,51.727,28.266z"/>
	<rect x="46.997" y="50.164" fill-rule="evenodd" clip-rule="evenodd" fill="#5895CB" width="115.875" height="42.095"/>
	<rect x="69.252" y="41.789" fill-rule="evenodd" clip-rule="evenodd" fill="#90BCE2" width="71.363" height="3.908"/>
	<g>
		<path fill="#DFEEFB" d="M155.571,68.268c-0.19-0.247-0.145-0.602,0.102-0.792c0.247-0.191,0.602-0.146,0.792,0.102l2.534,3.28
			c0.018,0.021,0.033,0.044,0.047,0.068l0.003,0.004l0.002,0.006l0.002,0.004c0.008,0.014,0.016,0.029,0.022,0.044l0.011,0.028
			l0.004,0.011l0.011,0.037l0.01,0.039c0.003,0.018,0.005,0.036,0.007,0.053l0,0.002l0.002,0.024l0.001,0.019l0,0.01v0.009l0,0.01
			l-0.001,0.019l-0.002,0.024l0,0.002l-0.007,0.052l-0.01,0.041l-0.011,0.036l-0.004,0.012l-0.011,0.028l-0.022,0.044l-0.002,0.004
			l-0.002,0.005l-0.003,0.004c-0.014,0.024-0.029,0.046-0.046,0.068l-2.535,3.282c-0.19,0.246-0.545,0.292-0.792,0.101
			c-0.247-0.191-0.292-0.545-0.102-0.793l2.274-2.944L155.571,68.268z"/>
		<path fill="#DFEEFB" d="M53.403,67.577c0.19-0.248,0.545-0.293,0.792-0.102c0.247,0.19,0.292,0.545,0.102,0.792l-2.274,2.942
			l2.274,2.944c0.19,0.248,0.145,0.602-0.102,0.793c-0.246,0.19-0.601,0.145-0.792-0.101l-2.535-3.282
			c-0.018-0.021-0.033-0.044-0.047-0.068l-0.002-0.004l-0.002-0.005l-0.002-0.004c-0.008-0.015-0.016-0.029-0.022-0.044
			l-0.011-0.028l-0.005-0.012l-0.011-0.036l-0.009-0.041c-0.003-0.016-0.006-0.034-0.008-0.052v-0.002l-0.002-0.024l0-0.019
			l-0.001-0.01v-0.009l0.001-0.01l0-0.019l0.002-0.024v-0.002l0.008-0.053l0.009-0.039l0.011-0.037l0.005-0.011l0.011-0.028
			c0.006-0.015,0.014-0.029,0.022-0.044l0.002-0.004l0.002-0.006l0.002-0.004c0.014-0.024,0.03-0.047,0.047-0.068L53.403,67.577z"/>
	</g>
	<rect x="84.398" y="127.662" fill-rule="evenodd" clip-rule="evenodd" fill="#055A87" width="41.072" height="1.914"/>
	<g>
		<path fill-rule="evenodd" clip-rule="evenodd" fill="#FFFFFF" d="M119.003,73.289h1.19c3.418,0,3.563-3.872,0-3.876l-1.19-0.002
			v0.309l0,0c0.897,0,1.624,0.727,1.624,1.625c0,0.896-0.727,1.624-1.624,1.624l0,0V73.289z M90.864,73.289h28.139v-0.322
			c-0.896,0-1.624-0.727-1.624-1.624c0-0.897,0.727-1.623,1.624-1.625V69.41c-9.378-0.014-18.759-0.014-28.139,0v0.309l0,0
			c0.897,0,1.624,0.727,1.624,1.625c0,0.896-0.727,1.624-1.624,1.624l0,0V73.289z M89.674,73.289h1.189v-0.322
			c-0.896,0-1.623-0.727-1.623-1.624c0-0.897,0.727-1.623,1.623-1.625V69.41l-1.189,0.002C86.11,69.417,86.256,73.289,89.674,73.289
			z"/>
		<circle fill-rule="evenodd" clip-rule="evenodd" fill="#FFFFFF" cx="107.089" cy="57.819" r="1.624"/>
		<path fill-rule="evenodd" clip-rule="evenodd" fill="#FFFFFF" d="M119.634,70.912l-11.08-12.392
			c-0.256-0.286-0.7-0.311-0.985-0.055l0,0c-0.286,0.256-0.311,0.699-0.056,0.986l11.08,12.392c0.255,0.285,0.699,0.31,0.985,0.054
			l0,0C119.865,71.641,119.89,71.199,119.634,70.912z"/>
		<circle fill-rule="evenodd" clip-rule="evenodd" fill="#FFFFFF" cx="102.778" cy="57.819" r="1.624"/>
		<path fill-rule="evenodd" clip-rule="evenodd" fill="#FFFFFF" d="M90.233,70.912l12.084-13.517c0.256-0.285,0.7-0.311,0.986-0.054
			l0,0c0.286,0.255,0.311,0.699,0.055,0.984L91.274,71.843c-0.256,0.285-0.7,0.31-0.986,0.054l0,0
			C90.002,71.641,89.978,71.199,90.233,70.912z"/>
		<path fill-rule="evenodd" clip-rule="evenodd" fill="#FFFFFF" d="M114.319,74.441h5.674l-1.486,8.557
			c-0.319,1.842-1.221,3.229-4.05,3.229h-0.138v-2.58c0.402-0.197,0.716-0.6,0.779-1.06c0.133-0.976,0.269-1.953,0.403-2.929
			c0.133-0.976,0.269-1.953,0.403-2.93c0.089-0.655-0.418-1.193-1.131-1.193l0,0c-0.156,0-0.31,0.026-0.454,0.073V74.441z
			 M109.647,74.441h4.672v1.168c-0.514,0.169-0.917,0.608-0.97,1.12c-0.101,0.977-0.207,1.954-0.309,2.93
			c-0.103,0.976-0.208,1.953-0.31,2.929c-0.069,0.656,0.399,1.191,1.041,1.191l0,0c0.19,0,0.377-0.048,0.548-0.132v2.58h-4.672
			V83.74c0.509-0.134,0.914-0.601,0.957-1.152c0.074-0.976,0.151-1.953,0.225-2.929s0.151-1.953,0.225-2.93
			c0.049-0.655-0.487-1.193-1.201-1.193l0,0c-0.069,0-0.138,0.006-0.206,0.015V74.441z M104.93,74.441h4.717v1.11
			c-0.621,0.092-1.12,0.587-1.146,1.178c-0.042,0.977-0.088,1.954-0.131,2.93c-0.042,0.976-0.088,1.953-0.131,2.929
			c-0.028,0.656,0.472,1.191,1.111,1.191l0,0c0.102,0,0.202-0.014,0.297-0.039v2.487h-4.717v-2.448c0.641,0,1.171-0.536,1.182-1.191
			c0.016-0.976,0.031-1.953,0.047-2.929s0.031-1.953,0.047-2.93c0.01-0.655-0.562-1.193-1.274-1.193l0,0h-0.001V74.441z
			 M100.213,74.441h4.717v1.095c-0.71,0.001-1.286,0.538-1.275,1.193c0.016,0.977,0.03,1.954,0.047,2.93
			c0.017,0.976,0.029,1.953,0.045,2.929c0.011,0.656,0.545,1.191,1.183,1.191l0,0h0v2.448h-4.717V83.74
			c0.096,0.025,0.195,0.039,0.298,0.039l0,0c0.639,0,1.138-0.535,1.109-1.191c-0.042-0.976-0.086-1.953-0.129-2.929
			c-0.043-0.976-0.089-1.953-0.132-2.93c-0.026-0.593-0.524-1.088-1.146-1.178V74.441z M95.543,74.441h4.67v1.11
			c-0.066-0.009-0.133-0.015-0.201-0.015l0,0c-0.713,0-1.255,0.538-1.205,1.193c0.075,0.977,0.149,1.954,0.225,2.93
			s0.148,1.953,0.223,2.929c0.042,0.552,0.448,1.019,0.958,1.152v2.487h-4.67v-2.58c0.171,0.084,0.357,0.132,0.547,0.132l0,0
			c0.642,0,1.107-0.535,1.039-1.191c-0.103-0.976-0.204-1.953-0.308-2.929s-0.208-1.953-0.31-2.93
			c-0.053-0.513-0.455-0.952-0.968-1.12V74.441z M95.411,86.227c-2.829,0-3.73-1.387-4.051-3.229l-1.485-8.557h5.669v1.168
			c-0.143-0.047-0.295-0.073-0.451-0.073l0,0c-0.713,0-1.22,0.538-1.131,1.193c0.133,0.977,0.269,1.954,0.403,2.93
			s0.268,1.953,0.401,2.929c0.063,0.46,0.375,0.862,0.778,1.06v2.58H95.411z"/>
	</g>
	<g>
		<g>
			<path fill-rule="evenodd" clip-rule="evenodd" fill="#013C5C" d="M77.993,72.384h0.671c1.929,0,2.011-2.185,0-2.188l-0.671-0.001
				v0.174l0,0c0.506,0,0.916,0.411,0.916,0.917c0,0.505-0.41,0.915-0.916,0.915l0,0V72.384z M62.114,72.384h15.879v-0.182
				c-0.506,0-0.917-0.41-0.917-0.915c0-0.506,0.41-0.917,0.917-0.917v-0.174c-5.293-0.009-10.586-0.009-15.879,0v0.174
				c0.506,0,0.916,0.411,0.916,0.917c0,0.505-0.41,0.915-0.916,0.915V72.384z M61.442,72.384h0.671v-0.182
				c-0.506,0-0.917-0.41-0.917-0.915c0-0.506,0.41-0.917,0.917-0.917v-0.174l-0.671,0.001
				C59.431,70.199,59.514,72.384,61.442,72.384z"/>
			<circle fill-rule="evenodd" clip-rule="evenodd" fill="#013C5C" cx="71.27" cy="63.654" r="0.916"/>
			<path fill-rule="evenodd" clip-rule="evenodd" fill="#013C5C" d="M78.349,71.042l-6.252-6.993
				c-0.145-0.162-0.395-0.176-0.556-0.03l0,0c-0.162,0.144-0.175,0.394-0.031,0.555l6.252,6.993
				c0.144,0.162,0.395,0.175,0.556,0.032l0,0C78.479,71.454,78.494,71.204,78.349,71.042z"/>
			<circle fill-rule="evenodd" clip-rule="evenodd" fill="#013C5C" cx="68.837" cy="63.654" r="0.916"/>
			<path fill-rule="evenodd" clip-rule="evenodd" fill="#013C5C" d="M61.758,71.042l6.82-7.627c0.145-0.162,0.394-0.176,0.556-0.032
				l0,0c0.162,0.144,0.176,0.395,0.031,0.557l-6.82,7.627c-0.145,0.162-0.395,0.175-0.556,0.032l0,0
				C61.627,71.454,61.613,71.204,61.758,71.042z"/>
			<path fill-rule="evenodd" clip-rule="evenodd" fill="#013C5C" d="M75.349,73.034h3.202l-0.838,4.83
				c-0.18,1.039-0.689,1.82-2.286,1.82h-0.078v-1.456c0.227-0.111,0.404-0.337,0.44-0.598c0.075-0.551,0.152-1.101,0.227-1.651
				c0.075-0.552,0.152-1.103,0.228-1.653c0.05-0.371-0.237-0.673-0.639-0.673l0,0c-0.088,0-0.175,0.014-0.256,0.042V73.034z
				 M72.713,73.034h2.636v0.66c-0.289,0.095-0.517,0.342-0.547,0.631c-0.057,0.551-0.117,1.102-0.175,1.653
				c-0.058,0.55-0.116,1.101-0.174,1.651c-0.038,0.371,0.226,0.673,0.587,0.673l0,0c0.107,0,0.213-0.027,0.31-0.075v1.456h-2.636
				v-1.402c0.287-0.076,0.516-0.338,0.539-0.651c0.042-0.551,0.086-1.101,0.127-1.651c0.042-0.552,0.086-1.103,0.127-1.653
				c0.028-0.371-0.275-0.673-0.677-0.673l0,0c-0.04,0-0.078,0.002-0.116,0.009V73.034z M70.051,73.034h2.662v0.627
				c-0.351,0.05-0.632,0.33-0.647,0.664c-0.024,0.55-0.05,1.102-0.074,1.653c-0.024,0.55-0.051,1.101-0.075,1.651
				c-0.016,0.371,0.267,0.673,0.627,0.673l0,0c0.057,0,0.114-0.008,0.168-0.021v1.402h-2.662v-1.381
				c0.361,0,0.661-0.302,0.667-0.673c0.009-0.551,0.018-1.101,0.026-1.651c0.008-0.552,0.017-1.103,0.026-1.653
				c0.006-0.371-0.317-0.673-0.719-0.673l0,0h0V73.034z M67.389,73.034h2.662v0.619c-0.401,0-0.725,0.303-0.719,0.673
				c0.009,0.55,0.016,1.102,0.026,1.653c0.009,0.55,0.016,1.101,0.025,1.651c0.006,0.371,0.308,0.673,0.667,0.673l0,0h0v1.381
				h-2.662v-1.402c0.054,0.014,0.111,0.021,0.168,0.021l0,0c0.36,0,0.642-0.302,0.626-0.673c-0.024-0.551-0.049-1.101-0.073-1.651
				c-0.024-0.552-0.05-1.103-0.074-1.653c-0.015-0.336-0.296-0.615-0.647-0.666V73.034z M64.754,73.034h2.635v0.626
				c-0.038-0.005-0.075-0.007-0.113-0.007l0,0c-0.402,0-0.708,0.302-0.68,0.673c0.042,0.551,0.084,1.102,0.127,1.653
				c0.043,0.55,0.084,1.101,0.125,1.651c0.023,0.312,0.253,0.575,0.541,0.651v1.402h-2.635v-1.456
				c0.096,0.048,0.201,0.075,0.308,0.075l0,0c0.362,0,0.625-0.302,0.586-0.673c-0.058-0.551-0.115-1.101-0.174-1.651
				c-0.059-0.552-0.118-1.102-0.175-1.653c-0.03-0.289-0.257-0.538-0.546-0.633V73.034z M64.679,79.684
				c-1.596,0-2.105-0.781-2.285-1.82l-0.838-4.83h3.199v0.659c-0.081-0.026-0.167-0.04-0.255-0.04l0,0
				c-0.402,0-0.688,0.302-0.638,0.673c0.075,0.55,0.152,1.102,0.228,1.653c0.076,0.55,0.151,1.101,0.227,1.651
				c0.035,0.261,0.212,0.487,0.439,0.598v1.456H64.679z"/>
		</g>
		<g>
			<path fill-rule="evenodd" clip-rule="evenodd" fill="#013C5C" d="M147.754,72.384h0.671c1.928,0,2.012-2.185,0-2.188
				l-0.671-0.001v0.174l0,0c0.506,0,0.917,0.411,0.917,0.917c0,0.505-0.41,0.915-0.917,0.915l0,0V72.384z M131.875,72.384h15.879
				v-0.182c-0.506,0-0.917-0.41-0.917-0.915c0-0.506,0.41-0.917,0.917-0.917v-0.174c-5.293-0.009-10.587-0.009-15.879,0v0.174
				c0.506,0,0.917,0.411,0.917,0.917c0,0.505-0.411,0.915-0.917,0.915V72.384z M131.203,72.384h0.672v-0.182l0,0
				c-0.506,0-0.917-0.41-0.917-0.915c0-0.506,0.41-0.917,0.917-0.917l0,0v-0.174l-0.672,0.001
				C129.192,70.199,129.274,72.384,131.203,72.384z"/>
			<circle fill-rule="evenodd" clip-rule="evenodd" fill="#013C5C" cx="141.031" cy="63.654" r="0.916"/>
			<path fill-rule="evenodd" clip-rule="evenodd" fill="#013C5C" d="M148.11,71.042l-6.253-6.993
				c-0.144-0.162-0.394-0.176-0.555-0.03l0,0c-0.162,0.144-0.175,0.394-0.032,0.555l6.253,6.993
				c0.145,0.162,0.395,0.175,0.556,0.032l0,0C148.241,71.454,148.254,71.204,148.11,71.042z"/>
			<circle fill-rule="evenodd" clip-rule="evenodd" fill="#013C5C" cx="138.598" cy="63.654" r="0.916"/>
			<path fill-rule="evenodd" clip-rule="evenodd" fill="#013C5C" d="M131.518,71.042l6.82-7.627
				c0.144-0.162,0.395-0.176,0.556-0.032l0,0c0.161,0.144,0.175,0.395,0.031,0.557l-6.819,7.627
				c-0.144,0.162-0.395,0.175-0.556,0.032l0,0C131.388,71.454,131.375,71.204,131.518,71.042z"/>
			<path fill-rule="evenodd" clip-rule="evenodd" fill="#013C5C" d="M145.111,73.034h3.202l-0.838,4.83
				c-0.18,1.039-0.689,1.82-2.286,1.82h-0.078v-1.456c0.227-0.111,0.403-0.337,0.439-0.598c0.075-0.551,0.152-1.101,0.228-1.651
				c0.076-0.552,0.152-1.103,0.227-1.653c0.051-0.371-0.235-0.673-0.638-0.673l0,0c-0.088,0-0.174,0.014-0.255,0.042V73.034z
				 M142.474,73.034h2.637v0.66c-0.291,0.095-0.518,0.342-0.548,0.631c-0.057,0.551-0.116,1.102-0.174,1.653
				c-0.058,0.55-0.117,1.101-0.175,1.651c-0.039,0.371,0.225,0.673,0.587,0.673l0,0c0.107,0,0.213-0.027,0.31-0.075v1.456h-2.637
				v-1.402c0.288-0.076,0.517-0.338,0.541-0.651c0.042-0.551,0.085-1.101,0.126-1.651c0.042-0.552,0.086-1.103,0.127-1.653
				c0.028-0.371-0.275-0.673-0.677-0.673l0,0c-0.04,0-0.078,0.002-0.117,0.009V73.034z M139.812,73.034h2.662v0.627
				c-0.35,0.05-0.632,0.33-0.646,0.664c-0.024,0.55-0.051,1.102-0.074,1.653c-0.024,0.55-0.05,1.101-0.074,1.651
				c-0.016,0.371,0.266,0.673,0.626,0.673l0,0c0.058,0,0.114-0.008,0.168-0.021v1.402h-2.662v-1.381
				c0.362,0,0.661-0.302,0.667-0.673c0.009-0.551,0.017-1.101,0.026-1.651c0.009-0.552,0.018-1.103,0.026-1.653
				c0.006-0.371-0.316-0.673-0.719-0.673l0,0h-0.001V73.034z M137.15,73.034h2.662v0.619c-0.4,0-0.725,0.303-0.719,0.673
				c0.009,0.55,0.018,1.102,0.026,1.653c0.009,0.55,0.017,1.101,0.025,1.651c0.006,0.371,0.308,0.673,0.667,0.673l0,0h0v1.381
				h-2.662v-1.402c0.054,0.014,0.111,0.021,0.168,0.021l0,0c0.361,0,0.642-0.302,0.626-0.673c-0.025-0.551-0.049-1.101-0.073-1.651
				c-0.025-0.552-0.05-1.103-0.074-1.653c-0.015-0.336-0.296-0.615-0.647-0.666V73.034z M134.515,73.034h2.635v0.626
				c-0.037-0.005-0.074-0.007-0.113-0.007l0,0c-0.402,0-0.708,0.302-0.68,0.673c0.042,0.551,0.084,1.102,0.127,1.653
				c0.042,0.55,0.083,1.101,0.125,1.651c0.024,0.312,0.253,0.575,0.54,0.651v1.402h-2.635v-1.456
				c0.096,0.048,0.201,0.075,0.309,0.075l0,0c0.362,0,0.624-0.302,0.586-0.673c-0.058-0.551-0.116-1.101-0.174-1.651
				c-0.059-0.552-0.117-1.102-0.175-1.653c-0.03-0.291-0.257-0.538-0.546-0.633V73.034z M134.44,79.684
				c-1.597,0-2.105-0.781-2.286-1.82l-0.838-4.83h3.199v0.659c-0.081-0.026-0.166-0.04-0.254-0.04l0,0
				c-0.403,0-0.689,0.302-0.639,0.673c0.075,0.55,0.151,1.102,0.228,1.653c0.076,0.55,0.15,1.101,0.226,1.651
				c0.036,0.261,0.212,0.487,0.439,0.598v1.456H134.44z"/>
		</g>
	</g>
	<rect x="29.479" fill-rule="evenodd" clip-rule="evenodd" fill="#D32A13" width="150.91" height="9.294"/>
	<polygon fill-rule="evenodd" clip-rule="evenodd" fill="#F65741" points="6.12,19.55 203.749,19.55 180.39,9.294 29.479,9.294 	"/>
	<polygon fill-rule="evenodd" clip-rule="evenodd" fill="#FFD96B" points="188.547,19.55 173.345,19.55 157.172,9.294 
		168.781,9.294 	"/>
	<polygon fill-rule="evenodd" clip-rule="evenodd" fill="#F65741" points="158.142,19.55 173.345,19.55 157.172,9.294 
		145.564,9.294 	"/>
	<polygon fill-rule="evenodd" clip-rule="evenodd" fill="#FFD96B" points="158.142,19.55 142.94,19.55 133.956,9.294 145.564,9.294 
			"/>
	<polygon fill-rule="evenodd" clip-rule="evenodd" fill="#F65741" points="127.738,19.55 142.94,19.55 133.956,9.294 122.347,9.294 
			"/>
	<polygon fill-rule="evenodd" clip-rule="evenodd" fill="#FFD96B" points="127.738,19.55 112.535,19.55 110.738,9.294 
		122.347,9.294 	"/>
	<polygon fill-rule="evenodd" clip-rule="evenodd" fill="#F65741" points="97.333,19.55 112.535,19.55 110.738,9.294 99.13,9.294 	
		"/>
	<polygon fill-rule="evenodd" clip-rule="evenodd" fill="#FFD96B" points="97.333,19.55 82.131,19.55 87.521,9.294 99.13,9.294 	"/>
	<polygon fill-rule="evenodd" clip-rule="evenodd" fill="#F65741" points="66.928,19.55 82.131,19.55 87.521,9.294 75.913,9.294 	
		"/>
	<polygon fill-rule="evenodd" clip-rule="evenodd" fill="#FFD96B" points="66.928,19.55 51.727,19.55 64.305,9.294 75.913,9.294 	
		"/>
	<polygon fill-rule="evenodd" clip-rule="evenodd" fill="#F65741" points="36.524,19.55 51.727,19.55 64.305,9.294 52.696,9.294 	
		"/>
	<polygon fill-rule="evenodd" clip-rule="evenodd" fill="#FFD96B" points="36.524,19.55 21.321,19.55 41.088,9.294 52.696,9.294 	
		"/>
	<polygon fill-rule="evenodd" clip-rule="evenodd" fill="#F65741" points="6.12,19.55 21.321,19.55 41.088,9.294 29.479,9.294 	"/>
	<path fill-rule="evenodd" clip-rule="evenodd" fill="#DDAB14" d="M36.524,19.55c0,4.199-3.403,7.602-7.601,7.602
		s-7.602-3.403-7.602-7.602H36.524z"/>
	<path fill-rule="evenodd" clip-rule="evenodd" fill="#D32A13" d="M6.12,19.55c0,4.199,3.403,7.602,7.601,7.602
		s7.601-3.403,7.601-7.602H6.12z"/>
	<path fill-rule="evenodd" clip-rule="evenodd" fill="#DDAB14" d="M66.929,19.55c0,4.199-3.403,7.602-7.601,7.602
		c-4.199,0-7.602-3.403-7.602-7.602H66.929z"/>
	<path fill-rule="evenodd" clip-rule="evenodd" fill="#D32A13" d="M36.524,19.55c0,4.199,3.403,7.602,7.602,7.602
		c4.198,0,7.601-3.403,7.601-7.602H36.524z"/>
	<path fill-rule="evenodd" clip-rule="evenodd" fill="#DDAB14" d="M97.333,19.55c0,4.199-3.403,7.602-7.601,7.602
		c-4.198,0-7.602-3.403-7.602-7.602H97.333z"/>
	<path fill-rule="evenodd" clip-rule="evenodd" fill="#D32A13" d="M66.929,19.55c0,4.199,3.403,7.602,7.601,7.602
		c4.198,0,7.601-3.403,7.601-7.602H66.929z"/>
	<path fill-rule="evenodd" clip-rule="evenodd" fill="#DDAB14" d="M127.738,19.55c0,4.199-3.403,7.602-7.601,7.602
		c-4.198,0-7.602-3.403-7.602-7.602H127.738z"/>
	<path fill-rule="evenodd" clip-rule="evenodd" fill="#D32A13" d="M97.333,19.55c0,4.199,3.403,7.602,7.602,7.602
		c4.198,0,7.601-3.403,7.601-7.602H97.333z"/>
	<path fill-rule="evenodd" clip-rule="evenodd" fill="#DDAB14" d="M158.144,19.55c0,4.199-3.403,7.602-7.602,7.602
		c-4.198,0-7.601-3.403-7.601-7.602H158.144z"/>
	<path fill-rule="evenodd" clip-rule="evenodd" fill="#D32A13" d="M127.738,19.55c0,4.199,3.403,7.602,7.601,7.602
		c4.198,0,7.602-3.403,7.602-7.602H127.738z"/>
	<path fill-rule="evenodd" clip-rule="evenodd" fill="#DDAB14" d="M188.548,19.55c0,4.199-3.404,7.602-7.602,7.602
		c-4.198,0-7.601-3.403-7.601-7.602H188.548z"/>
	<path fill-rule="evenodd" clip-rule="evenodd" fill="#D32A13" d="M158.144,19.55c0,4.199,3.403,7.602,7.601,7.602
		s7.602-3.403,7.602-7.602H158.144z"/>
	<path fill-rule="evenodd" clip-rule="evenodd" fill="#D32A13" d="M188.548,19.55c0,4.199,3.402,7.602,7.6,7.602
		c4.199,0,7.602-3.403,7.602-7.602H188.548z"/>
</g>
</svg>
