<?xml version="1.0" encoding="utf-8"?>
<!-- Generator: Adobe Illustrator 16.0.0, SVG Export Plug-In . SVG Version: 6.00 Build 0)  -->
<!DOCTYPE svg PUBLIC "-//W3C//DTD SVG 1.1//EN" "http://www.w3.org/Graphics/SVG/1.1/DTD/svg11.dtd">
<svg version="1.1" id="Layer_1" xmlns="http://www.w3.org/2000/svg" xmlns:xlink="http://www.w3.org/1999/xlink" x="0px" y="0px"
	 width="100px" height="72.171px" viewBox="0 0 100 72.171" enable-background="new 0 0 100 72.171" xml:space="preserve">
<g>
	<path fill="#FFFFFF" d="M17.596,64.876c0,0,0.84,2.613,0.887,3.268c0.047,0.652-2.895,0.701-3.174,0.514
		c-0.28-0.188-0.969-3.316-0.695-3.408C14.889,65.155,17.498,64.565,17.596,64.876"/>
	<path fill="#006C9B" d="M14.889,65.155c0,0,1.027,0.98,1.867,0.701c0.84-0.281,1.354-0.701,1.354-0.701s-1.354-8.029-1.611-11.531
		s0.54-10.451,0.303-11.764c-0.236-1.313-4.295,2.613-4.295,2.613S13.908,62.448,14.889,65.155"/>
	<path fill="#FFFFFF" d="M12.741,65.481c0,0-1.167,1.867-1.448,2.008s-2.194-0.141-2.38,0s-0.42,1.307-0.327,1.494
		c0.093,0.188,3.082,0.514,3.922,0.561s2.708-0.139,3.222-0.467c0.093-0.232-0.467-3.268-0.654-3.596
		C14.889,65.155,12.88,64.876,12.741,65.481"/>
	<path fill="#006C9B" d="M8.913,40.599c0,0,0.187,11.764,0.747,14.145c0.56,2.383,2.078,8.404,2.207,8.918c0,0-0.035,0.559,0,0.84
		c0.035,0.279,0.455,1.355,0.735,1.588c0.28,0.234,2.381,0.514,2.877-0.354c0,0-0.684-3.801-0.964-5.342
		c-0.28-1.541-1.54-12.186-1.167-15.594c0,0,2.568-1.68,3.268-2.24c0.701-0.561,0.607-1.82,0.607-1.961S8.913,40.599,8.913,40.599"
		/>
	<path fill="#5C829A" d="M3.053,6.75c0,0-0.233-0.397-0.233-0.607c0-0.209,0.793-2.917,1.167-3.081s2.871,0.327,3.408,0.467
		c0.537,0.14,2.708,0.654,2.824,1.121C10.336,5.116,3.053,6.75,3.053,6.75"/>
	<path fill="#FFE2C9" d="M10.174,4.278c0,0-0.35-1.256-0.77-1.386C8.984,2.761,7.307,3.47,7.307,3.47S9.822,4.122,10.174,4.278"/>
	<path fill="#FFE2C9" d="M10.479,8.244c0,0-1.029,0.514-1.636,0.514S7.83,8.276,7.41,8.276c-0.42,0-0.21-0.7,0.21-0.607
		c0.42,0.093,1.199,0.279,1.479,0.147c0.28-0.132,1.073-2.56,1.027-3.026C10.08,4.322,7.232,3.855,6.812,3.576
		c-0.42-0.28,0.047-0.7,0.047-0.7s1.54,0.467,1.96,0.514c0.42,0.046,1.447,0.046,1.821,0.513c0.373,0.467,0.748,2.848,0.748,2.848
		s3.618,2.941,4.05,3.735s-1.109,1.421-1.109,1.421S10.831,8.011,10.479,8.244"/>
	<path fill="#FFFFFF" d="M7.105,3.699c-2.21-0.51-2.838-0.521-2.978-0.264C3.987,3.692,2.866,6.563,3.053,6.75
		s5.201,1.071,5.88,1.096c0.68,0.025,1.333-2.916,1.286-3.196C10.173,4.37,7.528,3.797,7.105,3.699"/>
	<path fill="#5C829A" d="M6.998,4.117C5.284,3.721,4.796,3.713,4.688,3.912C4.58,4.111,3.711,6.337,3.855,6.483
		C4,6.627,7.214,7.08,7.741,7.098c0.527,0.02,1.034-2.262,0.998-2.479S7.326,4.193,6.998,4.117"/>
	<path fill="#BEBEBE" d="M9.542,6.05c0,0.193-0.156,0.35-0.35,0.35c-0.193,0-0.35-0.157-0.35-0.35c0-0.194,0.156-0.351,0.35-0.351
		C9.386,5.7,9.542,5.856,9.542,6.05"/>
	<path fill="#FFFFFF" d="M5.668,0.1c-0.053-0.171-0.314-0.105-0.3,0.067c0.031,0.404-0.04,0.808-0.001,1.209
		c0.017,0.172,0.286,0.193,0.308,0.015C5.73,0.969,5.794,0.515,5.668,0.1"/>
	<path fill="#FFFFFF" d="M4.008,1.535C3.911,1.219,3.844,0.893,3.672,0.606C3.584,0.459,3.356,0.585,3.412,0.741
		c0.112,0.313,0.173,0.636,0.326,0.933C3.821,1.835,4.057,1.693,4.008,1.535"/>
	<path fill="#FFFFFF" d="M2.94,2.448C2.599,2.203,2.171,2.045,1.78,1.897c-0.186-0.07-0.298,0.171-0.132,0.274
		C2.002,2.395,2.402,2.61,2.804,2.733C2.959,2.781,3.069,2.54,2.94,2.448"/>
	<path fill="#FFFFFF" d="M2.101,3.673C1.92,3.629,1.729,3.624,1.545,3.597C1.344,3.567,1.142,3.542,0.938,3.54
		C0.756,3.537,0.767,3.803,0.925,3.843c0.351,0.09,0.799,0.214,1.161,0.14C2.255,3.948,2.28,3.717,2.101,3.673"/>
	<path fill="#C39E05" d="M13.446,11.548c0,0,0.664-1.753,2.004-1.752c0,0,1.271,1.966,1.563,2.604c0,0-1.362,1.661-2.086,1.555
		C14.926,13.955,13.721,12.16,13.446,11.548"/>
	<path fill="#E4BD00" d="M16.756,12.422c0,0,1.864,3.778,2.636,5.297c0.772,1.519,1.484,5.931,1.619,7.378
		c0.134,1.448-2.363,0.596-2.268,0c0.096-0.596-1.802-8.208-3.528-11.321C15.215,13.776,16.009,12.189,16.756,12.422"/>
	<path fill="#FFE2C9" d="M17.713,21.622c0,0-0.42,1.573-0.35,1.818c0.07,0.246,1.958,0.706,2.029,0.493
		c0.072-0.213,0.247-1.369,0.387-1.753c0.14-0.385-0.402-1.616-0.762-1.701C18.658,20.395,17.713,21.622,17.713,21.622"/>
	<path fill="#FFC800" d="M17.859,41.313c0,0-0.093-4.063,0.969-7.667c1.063-3.607,3.198-7.784,2.218-9.459c0,0-0.806-0.215-1.821,0
		c-1.015,0.215-2.871,0.132-2.871,0.132s-1.821,0.118-2.276,0.224c-0.455,0.105-3.432,2.486-5.252,2.801
		c-1.821,0.315-3.221-0.818-3.607-1.512c-0.385-0.694-2.136-0.618-2.206,0.026c-0.07,0.645,0.525,2.431,2.696,3.551
		c2.171,1.121,5.708,0.315,5.708,0.315s-3.606,5.953-2.941,12.15C8.475,41.874,13.439,43.095,17.859,41.313"/>
	<path fill="#C39E05" d="M15.658,24.343c0,0,0.28-0.981,0.42-1.051s3.222,0.35,4.132,0c0,0,0.104,0.525,0,0.945
		C20.211,24.238,19.125,25.183,15.658,24.343"/>
	<path fill="#FFE2C9" d="M2.271,22.67c0,0,0.488-3.046,1.242-4.552c0,0-0.334-2.649,0-2.964c0.334-0.316,1-0.152,1.069-0.047
		c0,0,0.21-3.117,0.456-3.187c0.245-0.07,0.77,0.105,0.665,0.771c-0.105,0.665-0.043,2.451,0.014,2.59
		c0.056,0.141,1.072-2.906,1.352-2.976s0.77,0.245,0.63,0.595c-0.141,0.351-0.946,2.661-0.946,3.012c0,0.35,0.14,0.77,0.28,0.875
		c0.141,0.105,0.771-0.07,0.84,0.14c0.07,0.209-0.209,0.7-1.155,1.05c-0.945,0.351-1.641,0.561-1.641,0.561
		s-1.021,2.871-0.811,4.376C4.477,24.421,2.621,22.706,2.271,22.67"/>
	<path fill="#C39E05" d="M4.021,26.207c-0.84,0.244-1.26,0.385-1.646,0.385c-0.385,0-0.805-3.537-0.77-4.062
		c0.035-0.526,2.381-0.14,2.766,0c0.385,0.14,0.701,2.38,1.051,2.976C5.423,25.506,4.868,25.961,4.021,26.207"/>
	<path fill="#D89380" d="M16.121,20.566c0,0,0.074-1.22,0.813-1.553c0.739-0.333,1.183,0,1.183,0S16.875,20.746,16.121,20.566"/>
	<path fill="#FFE2C9" d="M19.041,12.767c0,0-1.849,2.772-2.144,3.29c-0.296,0.518-0.518,0.111-0.628,0
		c-0.111-0.111-1.072,0.185-0.776,0.592c0.296,0.406,0.924,0.813,0.924,0.813s-0.48,0.776-0.554,0.961c0,0,1.811,0.111,2.366,0
		c0,0-1,2.033-2.792,1.774c0,0-0.424,1.109-0.313,1.294c0.11,0.185,2.477,0.592,2.994,0.259c0.518-0.333,1.257-1.737,2.107-3.069
		c0.85-1.331,1.811-1.183,1.59-2.587C21.592,14.689,20.113,11.879,19.041,12.767"/>
	<path fill="#A9660C" d="M20.52,14.06c0,0-1.909,0.067-2.045-1.463s0.566-3.046,1.231-3.083c0.666-0.038,2.713,0.961,1.331,2.033
		c0,0,1.885-0.776,2.883-0.443s2.144,1.405,0.37,2.033c0,0,3.4,1.368,2.477,3.438c0,0,1.442,0.518,1.257,1.183
		c-0.185,0.666-1.109,0-1.109,0s0.739,1.553,0.148,1.922c-0.591,0.37-0.666,0-0.666,0s0.222,1.474-1.33,2.197
		c-1.553,0.724-2.181,0.539-2.181,0.539s0.073,1.589-0.851,1.516c-0.924-0.075-1.479-1.553-1.479-1.553s0.074,0.555-0.703,0.481
		c-0.776-0.074-0.803-1.745-0.827-2.241c-0.023-0.495,1.086-2.159,1.086-2.159s0.37-1.736,1.146-1.737
		C21.259,16.723,18.893,15.576,20.52,14.06"/>
	<path fill="#FFE2C9" d="M19.485,16.723c0.369-0.114,1.331,1.404,0.961,2.254c-0.37,0.851-1.257,1.626-1.589,1.22
		c-0.333-0.406,0.074-0.739,0.444-1.257C19.669,18.422,19.004,16.872,19.485,16.723"/>
	<path fill="#955508" d="M18.733,14.394c0,0,0.789,0.406,0.678,1.293c0,0-0.287-1.04-0.953-1.035L18.733,14.394z"/>
	<path fill="#131416" d="M18.095,16.198c-0.091,0.206-0.271,0.325-0.401,0.268c-0.13-0.058-0.162-0.271-0.072-0.477
		c0.091-0.205,0.271-0.325,0.401-0.267C18.153,15.78,18.186,15.993,18.095,16.198"/>
	<path fill="#2A3549" d="M48.292,45.38c0,0,0.302,20.455,0.388,21.135c0.085,0.678-1.369,1.148-1.625,0
		c-0.255-1.15-0.426-21.135-0.426-21.135H48.292z"/>
	<path fill="#3C4D68" d="M32.101,53.503c0,0-0.339,11.916,0,12.277h1.449V53.503C33.549,52.913,32.114,53.007,32.101,53.503"/>
	<path fill="#3C4D68" d="M40.85,53.298c0,0,0.153,12.402,0.48,12.486c0.328,0.084,1.395,0,1.395,0s0.212-11.08,0-12.123
		C42.514,52.616,40.85,53.298,40.85,53.298"/>
	<path fill="#3C4D68" d="M43.921,51.563l-0.536,2.252l-11.746-0.156l-0.046-2.9C31.593,50.759,40.918,50.651,43.921,51.563"/>
	<path fill="#FFFFFF" d="M34.825,37.692c0,0-0.991,1.529-1.034,2.016C33.791,39.708,34.697,38.333,34.825,37.692"/>
	<path fill="#192E3A" d="M42.767,63.524c0,0-1.025,1.656-1.19,2.143c-0.166,0.486,0.338,1.773,0.595,1.842s2.086,0.406,2.221,0.744
		c0.136,0.34,0,0.914,0,0.914s-2.213,0.236-3.41,0c-1.197-0.234-2.124-3.826-1.932-5.182c0,0,1.638-1.221,1.932-1.49
		C41.275,62.222,42.767,63.524,42.767,63.524"/>
	<path fill="#ED3B2E" d="M42.996,48.239c0,0,10.003-1.195,10.749-0.654c0.746,0.543,1.016,1.693,0.339,2.643
		c-0.678,0.949-10.3,12.703-10.842,13.297c-0.542,0.596-2.525-0.354-2.821-1.166c0,0,8.92-10.775,9.259-11.656
		c0,0-8.323-0.027-9.259-1.225c-0.937-1.195-2.329-1.486-1.583-1.893S42.996,48.239,42.996,48.239"/>
	<path fill="#192E3A" d="M49.949,67.44c0,0,0.407,1.627,0.746,1.898c0.339,0.27,3.253-0.406,3.524,0
		c0.271,0.404,0.253,1.828,0.253,1.828s-5.335,0.611-6.081,0c0,0-1.382,0.34-1.842-0.068c0,0,0.284-3.586,0.69-4.063
		C47.646,66.56,49.949,67.44,49.949,67.44"/>
	<path fill="#F84834" d="M38.836,47.585c0,0,1.174,1.492,2.146,1.559c0.971,0.068,10.458-0.135,11.271,0.813
		c0.814,0.949-2.032,15.85-1.694,17.854c0,0-3.591,0.096-4.066,0c0,0,2.982-14.125,2.643-14.803s-13.649-1.359-14.395-2.105
		s-0.813-2.102-0.61-2.846C34.335,47.31,38.836,47.585,38.836,47.585"/>
	<path fill="#4F4003" d="M36.69,28.191c0,0-1.237-1.45-1.45-2.261c-0.213-0.811-0.213-3.583-0.213-3.583s-0.512,0.001-0.64-0.255
		c-0.128-0.257,0.384-0.842,0.64-0.741c0,0-0.555-0.618-0.213-1.048c0.341-0.43,1.195,0.551,1.195,0.551s2.004-1.877,5.332-1.151
		c0,0,1.067-1.485,1.664-0.167c0,0,1.322-1.156,1.962,0.422c0.64,1.579-0.414,2.56-0.414,2.56s0.794,3.128-0.292,4.038
		C43.174,27.466,38.27,28.532,36.69,28.191"/>
	<path fill="#FFE2C9" d="M37.757,25.043c0,0,1.066,6.218,1.237,6.517c0.171,0.298,2.175,1.493,3.754,1.236
		c1.578-0.255,1.876-0.81,1.791-2.687c-0.085-1.877-0.597-7.038-0.725-7.251c0,0-0.682,0.412-1.024,0.354
		c-0.34-0.056-2.9-0.071-3.199,0C39.292,23.286,37.757,25.043,37.757,25.043"/>
	<path fill="#FFE2C9" d="M38.956,28.404c0,0-0.938-1.279-1.749-1.109c-0.811,0.171-0.726,1.579-0.469,2.048
		C36.993,29.812,38.913,30.92,38.956,28.404"/>
	<path fill="#D2A580" d="M42.45,27.279c0,0-0.022,0.89,0.127,0.869c0.149-0.021,0.874-0.041,1.002,0.107s0.107,0.831,0,0.895
		s-0.77,0.192-1.131,0.128c0,0,1.003-0.192,1.024-0.299c0.021-0.106,0.021-0.702-0.085-0.692s-0.792,0.118-0.939,0
		C42.3,28.169,42.407,27.434,42.45,27.279"/>
	<path fill="#7F4516" d="M40.487,30.153c0,0,1.749,0.64,3.092,0.149C43.58,30.302,41.746,31.241,40.487,30.153"/>
	<path fill="#131416" d="M40.835,27.345c0.024,0.227-0.067,0.422-0.204,0.437c-0.137,0.015-0.268-0.157-0.292-0.383
		c-0.025-0.226,0.067-0.422,0.204-0.437C40.681,26.947,40.811,27.119,40.835,27.345"/>
	<path fill="#131416" d="M43.664,26.935c0.025,0.226-0.066,0.422-0.204,0.437s-0.268-0.157-0.292-0.383s0.067-0.422,0.204-0.437
		C43.509,26.536,43.64,26.708,43.664,26.935"/>
	<path fill="#4F4003" d="M40.978,24.693c0.075-0.014-1.115-0.321-1.557,0.703C39.421,25.396,40.615,24.757,40.978,24.693"/>
	<path fill="#4F4003" d="M42.492,24.395c-0.063,0,0.798-0.474,1.176,0.426C43.668,24.821,43.238,24.395,42.492,24.395"/>
	<path fill="#FFE2C9" d="M43.074,38.021c0,0,1.252,3.721,1.829,4.846c0.576,1.127-1.43,1.045-1.43,1.045s-1.803-4.012-1.915-5.035
		C41.447,37.853,42.589,36.618,43.074,38.021"/>
	<path fill="#506A91" d="M36.168,33.661c0.352,0.672,1.919,2.111,2.911,1.983s2.334-0.761,1.1-2.495
		c-0.451-0.116-0.936-0.225-1.41-0.316c-0.844-0.162-1.773-0.155-2.619-0.08C36.087,32.813,35.863,33.079,36.168,33.661"/>
	<path fill="#40567A" d="M42.278,33.906c-0.149-0.179-1.035-0.485-2.099-0.757c1.234,1.734-0.108,2.367-1.1,2.495
		s-2.559-1.312-2.911-1.983c-0.305-0.583-0.082-0.848-0.017-0.908c-1.502,0.134-2.734,0.483-2.734,0.483
		c-0.427,0.306-2.497,5.015-2.314,5.233c0.362,0.438,2.687,1.236,2.687,1.236s-0.832,2.682-0.598,4.207
		c0.098,0.633,0.598,5.451,0.598,5.451c2.56-2.176,8.043-1.242,8.043-1.242s-1.097-2.402-1.24-3.299
		c-0.142-0.895,1.258-6.225,1.258-6.225s1.621,0.17,1.621-0.299S42.492,34.163,42.278,33.906"/>
	<path fill="#FFE2C9" d="M40.829,32.03c0,0-0.795,0.896-1.059,1.45c0,0,0.974,1.152-0.434,1.451
		c-1.407,0.299-2.815-1.593-2.602-2.098c0,0,1.195-0.078,1.536-0.249c0.34-0.17,0.5-1.962,0.5-1.962S40.189,29.939,40.829,32.03"/>
	<path fill="#FFE2C9" d="M33.473,39.595c0,0-0.834,2.545-0.706,2.885c0.127,0.342,5.033,0.725,5.801,0.684
		c0.767-0.043,0.64,1.236-0.171,1.408c-0.81,0.17-7.465,0.34-8.019-0.129c-0.555-0.469,0.743-5.387,0.913-5.814
		C32.119,39.019,32.359,39.108,33.473,39.595"/>
	<path fill="#FFE2C9" d="M40.19,42.614c0,0,0.692-0.906,0.964-1.137c0.273-0.229,0.699-0.25,0.699-0.25s0.512,0.299,0.597,0.555
		c0.085,0.256,0.448,1.031,0,1.199c-0.448,0.166-1.021-0.709-1.021-0.709s-0.421,0.23-0.554,0.447
		C40.745,42.935,40.19,42.614,40.19,42.614"/>
	<path fill="#FFE2C9" d="M38.368,43.558c0,0,2.073-0.891,2.631-0.691c0.558,0.201,1.215,0.303,1.568,0.332
		c0.352,0.027,0.597,0.41,0.663,0.359C43.294,43.507,39.064,44.241,38.368,43.558"/>
	<path fill="#FFE2C9" d="M38.568,43.163c0.125,0.006,1.087-0.234,1.386-0.406c0.299-0.17,1-0.814,1.195-0.746
		c0.194,0.066,0.362,0.385,0.405,0.918c0.043,0.533-0.213,0.854-0.576,0.725c-0.362-0.127-0.298-0.555-0.298-0.555
		s-1.259,0.654-1.685,0.582C38.568,43.61,38.568,43.163,38.568,43.163"/>
	<path fill="#CFD7E2" d="M37.096,44.747c0,0-0.043-0.496,0-0.646c0.042-0.148,0.491-0.512,0.491-0.512s5.886-0.234,6.761-0.277
		c0,0,2.41-7.123,2.793-7.508c0,0,8.189,0.32,9.726,0.641l-2.239,7.242v1.061c0,0-10.003,0.176-10.729,0H37.096z"/>
	<path fill="#FFFFFF" d="M47.141,35.805c0,0,0.736,0.032,0.768,0.288c0.032,0.256-2.431,7.145-2.592,7.252
		c-0.16,0.105-0.97-0.033-0.97-0.033S46.789,36.22,47.141,35.805"/>
	<path fill="#FFFFFF" d="M54.684,34.552c-0.059-0.253-0.1-0.528-0.243-0.752c-0.081-0.129-0.312-0.054-0.285,0.103
		c0.044,0.272,0.119,0.55,0.251,0.792C54.499,34.865,54.72,34.711,54.684,34.552"/>
	<path fill="#FFFFFF" d="M56.45,33.818c-0.068,0.248-0.107,0.505-0.142,0.76c-0.027,0.198,0.268,0.255,0.307,0.056
		c0.053-0.251,0.11-0.506,0.128-0.763C56.755,33.682,56.503,33.631,56.45,33.818"/>
	<path fill="#FFFFFF" d="M58.827,34.993c-0.123,0.055-0.223,0.154-0.331,0.232c-0.108,0.08-0.226,0.15-0.335,0.231
		c-0.149,0.113-0.029,0.345,0.149,0.288c0.129-0.041,0.251-0.113,0.362-0.191c0.127-0.09,0.285-0.196,0.353-0.34
		C59.082,35.093,58.959,34.935,58.827,34.993"/>
	<path fill="#FFFFFF" d="M59.387,37.446c-0.167-0.154-0.472-0.268-0.699-0.229c-0.184,0.031-0.203,0.285-0.015,0.33
		c0.093,0.021,0.187,0.039,0.279,0.07c0.101,0.033,0.199,0.08,0.304,0.098C59.412,37.743,59.499,37.548,59.387,37.446"/>
	<path fill="#2A3549" d="M60.876,45.944c0,0,0.302,23.131,0.388,23.898c0.085,0.768-1.369,1.301-1.625,0
		c-0.255-1.301-0.426-23.898-0.426-23.898H60.876z"/>
	<polygon fill="#2A3549" points="27.136,45.081 36.012,44.569 36.012,47.321 27.136,47.321 	"/>
	<polygon fill="#2A3549" points="62.113,44.569 36.012,44.569 36.012,47.321 62.113,46.702 	"/>
	<path fill="#2A3549" d="M28.889,46.681c0,0-1.465,21.766-1.465,22.523c0,0-1.179,1.129-1.435,0
		c-0.256-1.131,1.198-22.523,1.198-22.523H28.889z"/>
	<path fill="#2A3549" d="M36.012,47.321c0,0-1.494,22.928-1.346,23.439c0.148,0.512,1.323,0.793,1.541,0.281
		s1.551-23.854,1.551-23.854L36.012,47.321z"/>
	<path fill="#864503" d="M75.424,21.08c0,0-0.628,1.691-1.715,2.555c-1.089,0.864-6.271,8.061,0.702,11.997
		c0,0-1.119-1.407-0.383-3.199c0,0,0.283,0.996,1.152,1.407c0,0-1.137-2.943-0.953-5.278c0.184-2.336,1.95-5.559,2.126-7.085
		C76.529,19.95,75.667,20.957,75.424,21.08"/>
	<path fill="#FFC800" d="M75.424,19.329c0,0-0.271,1.458-0.241,1.874c0.028,0.416,0.444,0.917,0.954,0.799
		c0.509-0.116,0.705-1.727,0.802-2.111C77.035,19.507,75.733,19.023,75.424,19.329"/>
	<path fill="#D2E4FF" d="M89.734,65.571c0,0,1.217,0.943,1.664,0.922c0.447-0.023,2.176-1.814,2.943-1.494
		c0.769,0.32,1.343,1.24,1.215,2.027c0,0-3.326,1.748-4.605,2.004c-1.28,0.256-2.624,0.383-2.879,0
		c-0.257-0.385-0.758-1.934-0.38-2.76C88.072,65.446,89.734,65.571,89.734,65.571"/>
	<path fill="#D2E4FF" d="M69.645,64.96c0,0,0.319,2.961,0.832,3.26c0,0,2.239,0.398,2.56,1.053s0,1.225,0,1.225
		s-2.943,0.697-3.967,0c-1.024-0.699-2.98-3.406-3.09-4.004c-0.11-0.598,1.617-2.314,1.617-2.314L69.645,64.96z"/>
	<path fill="#2F5F7C" d="M84.872,37.153c0,0,2.815,7.939,3.583,11.975c0.769,4.035,1.343,15.736,1.601,16.443
		c0,0-0.832,1.604-2.592,0.58c0,0-1.056-10.385-1.76-12.902s-4.337-9.832-4.912-10.648c0,0-2.254,7.682-3.214,10.113
		s-6.525,12.15-7.934,12.857c0,0-1.6,0.545-2.303-0.973c0,0,5.501-8.941,6.27-11.691c0.769-2.752,1.406-13.639,2.714-15.916
		C77.634,34.712,82.889,35.669,84.872,37.153"/>
	<path fill="#FFE2C9" d="M94.234,28.399c0,0-0.082-1.447,0.13-2.215c0.215-0.768,0.905-0.892,1.502-0.381
		c0,0,1.858-1.977,2.285-2.016c0.427-0.04,0.604,0.177,0.179,0.649c-0.427,0.473-1.408,1.877-1.408,1.877s0.725-0.158,0.938,0.184
		c0.214,0.341,0.001,0.859,0.001,0.859s0.598,0.465,0.043,1.043c-0.554,0.578-2.048,1.454-2.304,1.357
		C95.345,29.659,94.234,28.399,94.234,28.399"/>
	<path fill="#FF6955" d="M82.012,23.092c0,0,0.979,0.286,1.632,1.31c0.653,1.024,2.509,5.343,5.067,5.727
		c2.561,0.384,4.831-1.888,5.375-1.983s2.048,1.207,1.888,2.027c-0.161,0.82-5.022,3.091-7.358,2.963
		c-2.336-0.127-4.159-2.495-4.606-3.039C83.561,29.553,81.806,24.661,82.012,23.092"/>
	<path fill="#EDB415" d="M73.683,30.854c0,0-2.015,5.247-5.426,7.208c0,0-1.013-0.084-1.252-0.426c0,0,3.514-1.555,5.264-5.446
		C74.017,28.297,73.683,30.854,73.683,30.854"/>
	<path fill="#FF6955" d="M79.937,22.952c0,0,1.816-0.334,2.113,0.434c0.297,0.768,0.81,2.922,1.227,3.338
		c0.415,0.416,1.917,2.474,0.701,3.977c0,0,1.15,3.257,1.311,6.945c0,0-5.223,1.992-9.613-0.191c0,0,1.652-4.184,1.775-5.022
		c0.226-1.536-1.313-4.799-1.313-4.799s-2.473,4.37-4.285,5.599c-1.813,1.228-5.246,1.664-5.789-0.704
		c-0.545-2.368,1.79-1.757,1.79-1.757s2.208,0.32,3.265-0.451c1.055-0.769,3.199-5.982,3.935-6.654
		C75.787,22.994,79.028,22.976,79.937,22.952"/>
	<path fill="#EDB415" d="M66.68,37.849c0,0-2.985,2.518-3.497,3.285s4.18,4.18,4.862,4.094c0.683-0.084,4.229-3.648,4.163-4.094
		C72.144,40.688,67.55,37.698,66.68,37.849"/>
	<path fill="#EDB415" d="M76.137,23.245c0,0,1.122,2.406,0.802,5.413c-0.32,3.007-3.199,10.078-5.056,11.758l0.514,0.719
		c0,0,7.92-11.401,4.247-17.889H76.137z"/>
	<path fill="#FFD261" d="M72.509,40.968c0,0-1.058-0.814-2.271-1.668c-1.212-0.854-2.876-2.09-3.431-1.963
		c-0.554,0.129-1.837,1.361-1.835,1.811c0.001,0.449,2.134,2.668,2.944,2.754c0,0,2.063-0.602,3.327-0.768
		S72.237,41.382,72.509,40.968"/>
	<path fill="#FFE2C9" d="M80.111,22.261c0,0,0.22,0.894,0.507,0.926c0,0,0.298,0.64-0.253,0.864
		c-0.552,0.223-1.931-0.729-1.886-0.895c0.045-0.166,0.177-0.722,0.102-1.065C78.507,21.747,79.638,21.656,80.111,22.261"/>
	<path fill="#864503" d="M78.538,10.635c1.279-0.597,3.807,0.854,4.292,2.09c0.486,1.237,0.737,3.089-0.114,3.955
		c-0.851,0.865-6.208,3.657-6.208,3.657s-2.182-1.511-2.608-2.536c-0.427-1.025-0.65-3.242,0.33-4.991
		C75.211,11.062,77.131,10.336,78.538,10.635"/>
	<path fill="#FFE2C9" d="M82.59,15.626c0,0,0.54,3.643,0,4.948c-0.81,1.962-3.292,1.792-4.388,1.407
		c-1.807-0.635-2.606-3.796-2.778-4.734c0,0,2.986-1.237,3.285-4.863C78.709,12.384,81.183,15.796,82.59,15.626"/>
	<path fill="#D2A580" d="M79.945,15.839c0,0-0.085,1.109,0.256,1.322c0.342,0.214,0.94-0.423,1.131-0.149s0.17,0.619-0.257,0.789
		c0,0,0.979-0.214,0.372-0.981c-0.372-0.469-0.946,0.363-1.096,0.171C80.201,16.799,79.945,16.117,79.945,15.839"/>
	<path fill="#E4AC99" d="M80.69,21.08c-0.173,0.145-0.363,0.241-0.575,0.262c-0.883,0.089-1.767-1.188-2.187-2.012
		C78.647,19.349,80.201,19.57,80.69,21.08"/>
	<path fill="#7A4316" d="M77.685,18.654c0.128-0.085,4.267-0.298,4.267-0.298s-0.388,1.992-1.261,2.724
		c-0.489-1.51-2.043-1.731-2.762-1.75C77.74,18.96,77.646,18.681,77.685,18.654"/>
	<path fill="#131416" d="M78.986,16.693c0,0-0.405-0.64-0.917-0.534c-0.513,0.107-0.811,0.512-0.747,0.853
		C77.322,17.012,77.897,15.989,78.986,16.693"/>
	<path fill="#131416" d="M82.05,16.306c0,0-0.348-0.548-0.785-0.456c-0.438,0.09-0.693,0.438-0.639,0.73
		C80.626,16.58,81.118,15.704,82.05,16.306"/>
	<path fill="#442405" d="M78.581,14.474c0,0-1.403,0.391-1.643,0.811C76.938,15.285,76.943,14.083,78.581,14.474"/>
	<path fill="#442405" d="M80.395,14.445c0,0,0.939-0.714,1.557,0.583C81.951,15.029,81.172,14.396,80.395,14.445"/>
	<path fill="#FFE2C9" d="M75.564,17.291c0,0-0.81-0.715-1.191-0.262c-0.381,0.453,0.048,1.645,0.596,1.834
		c0.548,0.191,0.885,0.43,1.122,0C76.327,18.434,75.564,17.291,75.564,17.291"/>
	<path fill="#FFE2C9" d="M82.665,16.209c0,0,0.287-0.607,0.399-0.062s0.234,1.983-0.243,2.08
		C82.346,18.324,82.665,16.209,82.665,16.209"/>
	<path fill="#4E5F83" d="M74.891,17.588c0.221-0.33,1.031,0.384,0.884,0.767c-0.147,0.384-0.639,0.506-0.884,0.128
		C74.571,17.991,74.763,17.78,74.891,17.588"/>
	<path fill="#4E5F83" d="M83.129,16.58c0,0,0.305-0.112,0.336,0.432c0.032,0.544-0.602,0.64-0.602,0.64S82.57,16.851,83.129,16.58"
		/>
	<path fill="#4E5F83" d="M75.183,18.654c0,0,0.596,4.021,4.631,5.62c0,0,0.004,4.703-0.827,7.519s-2.688,4.99-5.087,4.607
		c-2.399-0.385-3.807-2.592-3.807-2.592v-0.832h-0.449v0.8c0,0,1.217,2.751,4.192,3.167c2.975,0.416,4.734-1.919,5.726-5.022
		c0.992-3.103,0.833-7.582,0.833-7.582s4.326-2.141,2.995-7.005c0,0-0.327-0.27-0.238,0.217c0.089,0.486,0.89,4.261-2.917,6.34
		c0,0-3.363-0.938-4.721-5.236C75.514,18.654,75.218,17.961,75.183,18.654"/>
	<path fill="#647FAD" d="M69.452,32.688c0.181-0.446-0.341-4.82-0.512-5.563c-0.105-0.463-0.443-0.658-0.684-0.739
		c0.325-0.042,0.567-0.066,0.642-0.053c0.256,0.042,0.554,0.177,0.746,0.792c0.192,0.615,0.896,5.669,0.448,5.851
		c-0.166,0.067-0.658,0.146-1.236,0.208C69.082,33.091,69.354,32.933,69.452,32.688"/>
	<path fill="#4E5F83" d="M65.558,26.802c0.605-0.094,1.904-0.312,2.699-0.416c0.24,0.081,0.578,0.276,0.684,0.739
		c0.171,0.743,0.692,5.117,0.512,5.563c-0.098,0.245-0.37,0.403-0.596,0.496c-0.979,0.105-2.204,0.164-2.506,0.042
		C65.87,33.031,64.978,26.892,65.558,26.802"/>
	<path fill="#FFFFFF" d="M65.791,27.424c0.015,0.185,0.178,0.322,0.363,0.306l0.541-0.047c0.186-0.016,0.322-0.179,0.306-0.364
		c-0.015-0.185-0.178-0.322-0.364-0.306l-0.54,0.047C65.911,27.076,65.774,27.24,65.791,27.424"/>
	<path fill="#FFFFFF" d="M69.439,24.333c-0.009-0.157-0.253-0.214-0.313-0.058c-0.124,0.324-0.197,0.726-0.195,1.072
		c0.002,0.203,0.276,0.178,0.328,0.015C69.357,25.047,69.464,24.664,69.439,24.333"/>
	<path fill="#FFFFFF" d="M67.183,24.204c-0.062-0.176-0.304-0.103-0.303,0.067c0.001,0.281,0.067,0.592,0.188,0.846
		c0.07,0.149,0.338,0.121,0.304-0.067C67.32,24.771,67.274,24.473,67.183,24.204"/>
	<path fill="#FFFFFF" d="M65.822,25.601c-0.149-0.221-0.283-0.465-0.452-0.67c-0.104-0.128-0.343-0.032-0.271,0.141
		c0.11,0.27,0.294,0.525,0.49,0.739C65.713,25.946,65.918,25.745,65.822,25.601"/>
	<path fill="#FFFFFF" d="M64.41,26.82c-0.18-0.127-0.363-0.265-0.574-0.335c-0.071-0.023-0.143-0.021-0.194,0.041
		c-0.054,0.063-0.054,0.176,0.018,0.228c0.179,0.13,0.361,0.266,0.572,0.339c0.071,0.025,0.145,0.02,0.196-0.041
		C64.48,26.989,64.482,26.873,64.41,26.82"/>
	<path fill="#FFE2C9" d="M65.369,27.633c0,0-0.075,0.8,0.276,0.96c0.353,0.16,0.417,0.352,1.184,0.192
		c0.768-0.16,1.632,0.096,1.728,0.352c0.096,0.256-0.447,0.702-0.992,0.703c-0.543,0.001-1.247,0.097-1.247,0.321
		c0,0.224,0.527,0.288,1.112,0.192c0.584-0.096,1.414-0.117,1.575,0.326c0.16,0.442-0.384,0.634-0.896,0.698
		c-0.513,0.064-1.313,0.096-1.408,0.225c-0.097,0.128,0.513,0.319,0.896,0.255c0.384-0.063,1.088,0,1.12,0.32
		c0.032,0.32-1.056,0.48-1.695,0.48s-1.12-0.224-1.376-0.48c-0.256-0.256-0.704-2.143-0.672-3.006
		C65.006,28.305,65.369,27.633,65.369,27.633"/>
</g>
</svg>
