<?xml version="1.0" encoding="utf-8"?>
<!-- Generator: Adobe Illustrator 16.0.0, SVG Export Plug-In . SVG Version: 6.00 Build 0)  -->
<!DOCTYPE svg PUBLIC "-//W3C//DTD SVG 1.1//EN" "http://www.w3.org/Graphics/SVG/1.1/DTD/svg11.dtd">
<svg version="1.1" id="Layer_1" xmlns="http://www.w3.org/2000/svg" xmlns:xlink="http://www.w3.org/1999/xlink" x="0px" y="0px"
	 width="50px" height="50px" viewBox="0 0 50 50" enable-background="new 0 0 50 50" xml:space="preserve">
<path fill-rule="evenodd" clip-rule="evenodd" d="M41.624,13.896c-8.147-0.984-16.33-1.782-24.403-3.246
	c-2.268-0.411-2.866-0.784-2.931-3.167c-0.023-0.839-0.167-2.103-0.895-2.447C11.436,4.107,9.39,3.248,7.398,2.44
	C7.024,2.289,6.403,2.812,5.896,3.021C6.124,3.524,6.2,4.274,6.605,4.486c1.123,0.586,2.152,0.966,3.098,1.379
	c1.844,0.807,2.442,1.685,2.405,3.642c-0.126,6.723,0.032,13.451-0.083,20.173c-0.055,3.244,0.12,6.206,3.556,7.353
	c0.048,0.017,0.519,0.125,0.997,0.233c-0.533,0.792-0.845,1.745-0.845,2.771c0,2.741,2.222,4.963,4.963,4.963
	s4.963-2.222,4.963-4.963c0-0.969-0.289-1.865-0.768-2.629c0-0.004,0-0.008,0-0.013c3.151,0,6.302,0,9.451,0
	c-0.006,0.081-0.014,0.152-0.021,0.23c-0.349,0.679-0.563,1.436-0.563,2.251c0,2.741,2.223,4.963,4.964,4.963
	s4.964-2.222,4.964-4.963c0-1.123-0.387-2.147-1.016-2.979c-0.107-0.153-0.231-0.294-0.358-0.434
	c-0.036-0.038-0.066-0.08-0.104-0.117c-0.353-0.361-0.773-0.657-1.254-0.882c-0.555-0.28-1.164-0.455-1.814-0.51
	c-0.601-0.084-1.214-0.115-1.81-0.119c-6.2-0.045-12.401-0.017-18.602-0.024c-4.06-0.004-4.597-1.108-4.396-4.854
	c4.127,0,8.499-0.035,12.587-0.036c4.104-0.001,8.21,0.053,12.314-0.021c3.709-0.065,5.272-1.817,5.434-5.55
	c0.098-2.268,0.09-4.589,0.053-6.808C44.68,15.051,44.042,14.188,41.624,13.896z M38.751,38.125c1.081,0,1.958,0.877,1.958,1.959
	s-0.877,1.958-1.958,1.958s-1.959-0.876-1.959-1.958S37.67,38.125,38.751,38.125z M20.584,38.125c1.081,0,1.958,0.877,1.958,1.959
	s-0.877,1.958-1.958,1.958c-1.082,0-1.959-0.876-1.959-1.958S19.502,38.125,20.584,38.125z M42.34,24.926
	c-0.05,1.629-1.002,2.588-2.69,2.591c-6.124,0.012-22.93-0.027-22.93-0.027c-1.308,0-2.368-1.06-2.368-2.368V14.403
	c0-0.109,0.018-0.184,0.042-0.245c0.003-0.53,0.009-1.05,0.009-1.589c9.435,1.295,18.579,2.55,27.96,3.838
	C42.363,19.369,42.424,22.149,42.34,24.926z"/>
</svg>
