<?xml version="1.0" encoding="utf-8"?>
<!-- Generator: Adobe Illustrator 16.0.0, SVG Export Plug-In . SVG Version: 6.00 Build 0)  -->
<!DOCTYPE svg PUBLIC "-//W3C//DTD SVG 1.1//EN" "http://www.w3.org/Graphics/SVG/1.1/DTD/svg11.dtd">
<svg version="1.1" id="Layer_1" xmlns="http://www.w3.org/2000/svg" xmlns:xlink="http://www.w3.org/1999/xlink" x="0px" y="0px"
	 width="100px" height="100px" viewBox="0 0 100 100" enable-background="new 0 0 100 100" xml:space="preserve">
<path fill="#FFFFFF" d="M39.964,78.29c-3.288,2.224-0.26,8.062,3.136,8.344c2.229,0.186,3.383-1.882,3.062-3.843
	c-0.32-1.927-2.02-3.912-3.813-4.61c-1.306-0.506-1.864,1.59-0.575,2.091c0.957,0.373,1.647,1.497,2.074,2.367
	c0.289,0.594,0.452,2.032-0.647,1.831c-1.177-0.214-3.573-3.339-2.141-4.307C42.209,79.384,41.127,77.504,39.964,78.29L39.964,78.29
	z"/>
<path fill="#FFFFFF" d="M68.526,69.568c-3.287,2.225-0.261,8.064,3.138,8.345c2.229,0.184,3.384-1.883,3.06-3.841
	c-0.317-1.931-2.019-3.914-3.812-4.613c-1.305-0.506-1.866,1.591-0.578,2.092c0.957,0.373,1.648,1.495,2.075,2.367
	c0.291,0.594,0.452,2.032-0.646,1.83c-1.178-0.214-3.573-3.338-2.141-4.307C70.772,70.661,69.688,68.783,68.526,69.568
	L68.526,69.568z"/>
<path fill="#FFFFFF" d="M35.178,36.054C37.61,44.899,38.385,54,39.333,63.091c0.232,2.22,3.695,1.973,3.461-0.257
	c-0.983-9.403-1.832-18.802-4.347-27.947C37.856,32.729,34.587,33.904,35.178,36.054L35.178,36.054z"/>
<path fill="#FFFFFF" d="M39.744,78.418c-3.507,2.602,0.1,8.874,3.847,9.022c2.458,0.096,3.628-2.231,3.182-4.371
	c-0.443-2.103-2.408-4.203-4.413-4.884c-1.459-0.495-1.973,1.836-0.533,2.324c1.07,0.365,1.882,1.567,2.393,2.503
	c0.346,0.639,0.594,2.213-0.624,2.044c-1.303-0.18-4.087-3.499-2.559-4.631C42.265,79.514,40.985,77.5,39.744,78.418L39.744,78.418z
	"/>
<path fill="#FFFFFF" d="M67.634,69.789c-3.507,2.604,0.099,8.878,3.847,9.022c2.459,0.096,3.629-2.23,3.181-4.368
	c-0.441-2.105-2.407-4.206-4.41-4.888c-1.46-0.494-1.976,1.838-0.536,2.326c1.071,0.364,1.884,1.566,2.395,2.503
	c0.349,0.64,0.595,2.213-0.621,2.043c-1.307-0.179-4.089-3.497-2.56-4.633C70.154,70.884,68.873,68.871,67.634,69.789L67.634,69.789
	z"/>
<path fill="#FFFFFF" d="M27.718,28.692c10-2.461,20.293-4.535,30.625-4.563c14.417-0.04,13.873,19.502,14.327,30.135
	c0.094,2.167,3.45,2.021,3.356-0.146c-0.364-8.518,0.066-28.59-10.304-32.2c-11.684-4.063-27.47,0.728-39.036,3.577
	C24.582,26.013,25.623,29.21,27.718,28.692L27.718,28.692z"/>
<path fill="#FFFFFF" d="M26.838,45.705c11.995,0.176,23.848-2.887,35.118-6.759c2.205-0.757,1.102-4.211-1.113-3.449
	c-10.997,3.778-22.461,6.758-34.163,6.589C24.343,42.05,24.514,45.671,26.838,45.705L26.838,45.705z"/>
<path fill="#FFFFFF" d="M28.325,59.991c13.936-0.728,27.581-3.219,40.04-9.739c2.071-1.083,0.095-4.124-1.962-3.047
	c-11.869,6.209-24.969,8.472-38.235,9.166C25.835,56.493,25.991,60.114,28.325,59.991L28.325,59.991z"/>
<path fill="#FFFFFF" d="M50.807,33C54,41.771,55.534,50.547,56.238,59.83c0.177,2.327,3.8,2.175,3.623-0.157
	c-0.73-9.617-2.295-18.698-5.605-27.79C53.46,29.696,50.004,30.796,50.807,33L50.807,33z"/>
<path fill="#FFFFFF" d="M100,48.187c-17.593,7.005-47.358,19.151-65.542,22.717c-5.437,1.065-12.8,1.029-16.266-4.138
	c-4.771-7.116,0.483-19.986,2.434-27.157C23.982,27.292,25.156,12,9.401,9.007C6.017,8.364,3.47,8.367,0,8.695v8.644
	c6.1-1.431,9.508-2.354,13.229,2.73c5.112,6.984-1.932,21.385-3.633,28.646C8.05,55.328,7.45,62.768,10.058,69.185
	c4.553,11.205,18.235,11.111,28.266,9.642C50.518,77.04,82.075,65.242,100,58.186V48.187z"/>
</svg>
