<?xml version="1.0" encoding="utf-8"?>
<!-- Generator: Adobe Illustrator 16.0.0, SVG Export Plug-In . SVG Version: 6.00 Build 0)  -->
<!DOCTYPE svg PUBLIC "-//W3C//DTD SVG 1.1//EN" "http://www.w3.org/Graphics/SVG/1.1/DTD/svg11.dtd">
<svg version="1.1" id="Layer_1" xmlns="http://www.w3.org/2000/svg" xmlns:xlink="http://www.w3.org/1999/xlink" x="0px" y="0px"
	 width="161px" height="40px" viewBox="-1 3.125 161 40" enable-background="new -1 3.125 161 40" xml:space="preserve">
<rect x="-1" y="3.125" opacity="0" fill="#706F6F" width="161" height="40"/>
<g>
	<path fill-rule="evenodd" clip-rule="evenodd" fill="#96C11F" d="M78.771,34.307c-2.016,0-3.93,0.008-5.846-0.021
		c-0.127-0.003-0.346-0.301-0.358-0.474c-0.105-1.433-0.172-2.868-0.251-4.303c-0.236-4.306-0.475-8.609-0.708-12.913
		c-0.063-1.133-0.109-2.267-0.28-3.409c-0.263,1.434-0.525,2.867-0.785,4.301c-0.846,4.686-1.674,9.375-2.552,14.058
		c-0.118,0.629-0.401,1.265-0.75,1.807c-1.243,1.922-3.694,1.889-4.972-0.018c-0.67-1.002-0.788-2.161-0.995-3.295
		c-0.746-4.097-1.487-8.195-2.229-12.293c-0.216-1.196-0.431-2.393-0.649-3.589c-0.034-0.182-0.095-0.359-0.27-0.522
		c-0.049,0.705-0.108,1.408-0.145,2.112c-0.136,2.631-0.254,5.263-0.398,7.894c-0.186,3.408-0.394,6.814-0.579,10.222
		c-0.018,0.341-0.15,0.449-0.471,0.449c-1.738-0.007-3.477-0.014-5.216,0.004c-0.487,0.007-0.506-0.261-0.47-0.613
		c0.132-1.329,0.263-2.66,0.396-3.99c0.225-2.243,0.454-4.484,0.68-6.728c0.265-2.598,0.521-5.199,0.797-7.797
		c0.142-1.327,0.262-2.661,0.495-3.975c0.541-3.029,2.415-3.93,5.464-3.639c2.202,0.211,3.52,1.665,3.934,4.109
		c0.483,2.849,0.892,5.71,1.328,8.567c0.215,1.419,0.417,2.84,0.632,4.258c0.026,0.174,0.098,0.335,0.295,0.52
		c0.075-0.343,0.167-0.685,0.221-1.034c0.608-3.998,1.198-8,1.831-11.995c0.111-0.7,0.33-1.404,0.623-2.049
		c0.817-1.798,2.567-2.665,4.714-2.419c2.39,0.274,3.431,1.083,3.999,3.136c0.121,0.44,0.223,0.893,0.271,1.347
		c0.336,3.193,0.652,6.39,0.979,9.584c0.306,2.996,0.62,5.993,0.922,8.988C78.552,31.794,78.65,33.004,78.771,34.307z"/>
	<path fill-rule="evenodd" clip-rule="evenodd" fill="#96C11F" d="M14.501,25.013c0.163-1.06,0.328-2.116,0.49-3.174
		c0.517-3.368,1.03-6.737,1.557-10.103c0.056-0.373,0.16-0.743,0.284-1.099c0.8-2.306,2.65-3.424,5.098-3.095
		c0.295,0.041,0.593,0.074,0.887,0.13c1.63,0.315,2.63,1.338,2.977,2.912c0.295,1.338,0.458,2.709,0.611,4.073
		c0.297,2.676,0.549,5.358,0.815,8.037c0.257,2.604,0.503,5.203,0.761,7.803c0.103,1.031,0.208,2.064,0.341,3.092
		c0.069,0.532-0.061,0.75-0.651,0.736c-1.617-0.037-3.236-0.029-4.854-0.002c-0.494,0.009-0.647-0.159-0.67-0.642
		c-0.13-2.751-0.295-5.498-0.445-8.252c-0.209-3.824-0.413-7.649-0.623-11.475c-0.007-0.126-0.047-0.252-0.223-0.394
		c-0.142,0.741-0.292,1.479-0.427,2.222c-0.906,4.998-1.816,9.997-2.709,15c-0.185,1.029-0.41,2.027-1.096,2.867
		c-1.234,1.502-3.337,1.489-4.557-0.024c-0.763-0.947-0.944-2.087-1.15-3.228C9.921,24.887,8.922,19.38,7.924,13.873
		c-0.017-0.091-0.041-0.182-0.17-0.272c-0.043,0.362-0.109,0.722-0.127,1.085c-0.139,2.631-0.262,5.261-0.401,7.894
		c-0.198,3.745-0.399,7.493-0.619,11.238c-0.01,0.168-0.2,0.462-0.309,0.465c-1.951,0.026-3.903,0.021-5.911,0.021
		c0.134-1.377,0.259-2.681,0.39-3.984c0.22-2.203,0.443-4.406,0.665-6.608c0.225-2.222,0.449-4.444,0.676-6.667
		c0.169-1.667,0.335-3.334,0.525-4.998c0.057-0.491,0.159-0.985,0.298-1.46c0.601-2.046,1.807-2.933,4.117-3.063
		c2.944-0.167,4.741,1.392,5.212,4.503c0.632,4.177,1.272,8.353,1.911,12.528c0.024,0.163,0.08,0.318,0.12,0.477
		C14.366,25.024,14.434,25.019,14.501,25.013z"/>
	<path fill-rule="evenodd" clip-rule="evenodd" fill="#96C11F" d="M128.619,21.174c0.01,7.498-5.983,13.586-13.378,13.592
		c-7.334,0.004-13.428-6.091-13.435-13.434c-0.006-7.622,5.961-13.818,13.31-13.822C122.623,7.506,128.607,13.563,128.619,21.174z
		 M108.417,21.122c-0.007,3.913,3.004,7.012,6.813,7.013c3.761,0.001,6.828-3.121,6.841-6.959c0.013-3.853-3.076-7.026-6.846-7.03
		C111.464,14.141,108.424,17.258,108.417,21.122z"/>
	<path fill-rule="evenodd" clip-rule="evenodd" fill="#96C11F" d="M140.093,28.027c1.076,0,1.993,0,2.906,0
		c1.917,0,3.837,0.02,5.752-0.014c0.565-0.009,0.709,0.179,0.698,0.723c-0.034,1.658-0.024,3.316-0.005,4.973
		c0.005,0.418-0.079,0.614-0.553,0.609c-4.534-0.019-9.071,0.029-13.604-0.044c-3.015-0.049-4.7-2.712-3.526-5.507
		c0.412-0.984,1.001-1.904,1.579-2.809c2.36-3.702,4.749-7.386,7.124-11.077c0.105-0.163,0.188-0.339,0.329-0.592
		c-0.288-0.015-0.494-0.037-0.7-0.037c-2.221-0.002-4.436-0.012-6.652,0.007c-0.437,0.004-0.593-0.108-0.588-0.568
		c0.027-1.718,0.027-3.436,0-5.153c-0.007-0.464,0.157-0.569,0.591-0.567c3.836,0.017,7.668,0.003,11.505,0.03
		c0.59,0.004,1.2,0.096,1.767,0.262c1.922,0.561,2.555,1.985,2.435,4.066c-0.065,1.105-0.574,2.063-1.149,2.984
		c-2.476,3.959-4.952,7.917-7.426,11.878C140.43,27.423,140.303,27.663,140.093,28.027z"/>
	<path fill-rule="evenodd" clip-rule="evenodd" fill="#96C11F" d="M90.017,15.631c4.893-0.131,9.496,4.284,9.44,9.602
		c-0.054,5.199-4.319,9.543-9.467,9.534c-5.123-0.01-9.421-4.396-9.419-9.593C80.574,19.726,85.256,15.499,90.017,15.631z
		 M86.355,25.199c0.001,2.232,1.565,3.896,3.663,3.896c2.074,0,3.716-1.716,3.717-3.889c0.002-2.18-1.701-3.98-3.74-3.957
		C87.932,21.271,86.354,22.985,86.355,25.199z"/>
	<path fill-rule="evenodd" clip-rule="evenodd" fill="#96C11F" d="M30.189,25.2c0-5.289,4.229-9.571,9.449-9.569
		c5.125,0.001,9.428,4.373,9.425,9.575c-0.003,5.173-4.349,9.551-9.46,9.563C34.336,34.782,30.042,30.107,30.189,25.2z
		 M43.293,25.229c0.006-2.228-1.639-4.003-3.692-3.981c-2.052,0.021-3.703,1.771-3.706,3.925c-0.002,2.18,1.626,3.917,3.68,3.923
		C41.664,29.1,43.286,27.414,43.293,25.229z"/>
	<path fill-rule="evenodd" clip-rule="evenodd" fill="#706F6F" d="M145.498,37.633c0.706-0.64,1.471-0.919,2.388-0.63
		c0.948,0.295,1.541,1.047,1.551,2.029c0.006,0.998-0.015,1.998,0.008,2.993c0.009,0.398-0.093,0.583-0.528,0.574
		c-1.582-0.026-1.267,0.132-1.295-1.243c-0.015-0.68-0.011-1.357-0.005-2.036c0.005-0.399-0.167-0.668-0.574-0.694
		c-0.416-0.024-0.632,0.249-0.645,0.632c-0.032,0.896-0.05,1.793-0.026,2.691c0.014,0.497-0.157,0.666-0.653,0.654
		c-1.338-0.035-1.097,0.088-1.116-1.123c-0.009-0.678,0.003-1.356-0.004-2.035c-0.003-0.444-0.15-0.828-0.665-0.813
		c-0.471,0.013-0.611,0.377-0.611,0.803c0,0.877-0.016,1.756,0.007,2.634c0.009,0.388-0.119,0.533-0.511,0.53
		c-1.627-0.018-1.288,0.114-1.311-1.226c-0.015-0.857-0.077-1.726,0.04-2.568c0.233-1.701,2.096-2.462,3.51-1.487
		C145.188,37.407,145.316,37.502,145.498,37.633z"/>
	<path fill-rule="evenodd" clip-rule="evenodd" fill="#706F6F" d="M140.574,39.83c0,1.594-1.278,2.922-2.838,2.951
		c-1.521,0.029-2.942-1.398-2.943-2.96c-0.002-1.572,1.381-2.942,2.951-2.933C139.298,36.896,140.574,38.224,140.574,39.83z
		 M138.856,39.825c0-0.676-0.496-1.214-1.13-1.228c-0.618-0.015-1.159,0.538-1.171,1.197c-0.015,0.679,0.544,1.282,1.173,1.267
		C138.356,41.047,138.857,40.498,138.856,39.825z"/>
	<path fill-rule="evenodd" clip-rule="evenodd" fill="#706F6F" d="M133.01,42.595c-1.688-0.02-2.781-1.101-2.785-2.757
		c-0.003-1.655,1.149-2.809,2.819-2.822c0.177,0,0.38-0.05,0.533,0.014c0.155,0.068,0.303,0.225,0.393,0.38
		c0.058,0.105-0.005,0.274,0.015,0.412c0.076,0.579-0.084,0.85-0.757,0.844c-0.839-0.008-1.212,0.454-1.181,1.236
		c0.023,0.712,0.417,1.058,1.214,1.069c0.726,0.011,0.689,0.013,0.732,0.903c0.029,0.589-0.177,0.806-0.743,0.721
		C133.173,42.583,133.088,42.595,133.01,42.595z"/>
	<path fill-rule="evenodd" clip-rule="evenodd" fill="#706F6F" d="M129.449,41.604c0.003,0.641-0.483,1.156-1.105,1.175
		c-0.637,0.019-1.159-0.522-1.152-1.192c0.01-0.661,0.472-1.113,1.14-1.11S129.447,40.928,129.449,41.604z"/>
	<g>
		<g>
			<path fill="#706F6F" d="M150.267,8.017V4.048h-1.483V3.52h3.57v0.528h-1.488v3.969H150.267z"/>
			<path fill="#706F6F" d="M150.992,8.146h-0.851V4.174h-1.483V3.389h3.818v0.786h-1.484V8.146z M150.395,7.89h0.338V3.918h1.495
				V3.645h-3.316v0.273h1.483V7.89z"/>
		</g>
		<g>
			<path fill="#706F6F" d="M153.289,8.017V3.52h0.9l1.063,3.183c0.102,0.299,0.172,0.517,0.221,0.666
				c0.04-0.165,0.125-0.405,0.23-0.718l1.083-3.13h0.802v4.498h-0.576V4.25l-1.309,3.767h-0.534l-1.308-3.83v3.83H153.289z"/>
			<path fill="#706F6F" d="M157.713,8.146h-0.825v-3.14l-1.097,3.14h-0.717l-1.079-3.19v3.19h-0.828V3.389h1.117l0.027,0.089
				l1.063,3.185c0.036,0.109,0.067,0.201,0.098,0.292c0.03-0.101,0.07-0.217,0.116-0.347l1.102-3.219h1.022V8.146z M157.139,7.89
				h0.32V3.645h-0.32V7.89z M155.261,7.89h0.354l1.476-4.245h-0.215l-1.049,3.044c-0.107,0.318-0.183,0.555-0.236,0.721
				l-0.117,0.391l-0.126-0.393c-0.043-0.149-0.121-0.37-0.217-0.665l-1.035-3.099h-0.283L155.261,7.89z M153.418,7.89h0.318V3.645
				h-0.318V7.89z"/>
		</g>
	</g>
</g>
</svg>
