<?xml version="1.0" encoding="utf-8"?>
<!-- Generator: Adobe Illustrator 16.0.0, SVG Export Plug-In . SVG Version: 6.00 Build 0)  -->
<!DOCTYPE svg PUBLIC "-//W3C//DTD SVG 1.1//EN" "http://www.w3.org/Graphics/SVG/1.1/DTD/svg11.dtd">
<svg version="1.1" id="Layer_1" xmlns="http://www.w3.org/2000/svg" xmlns:xlink="http://www.w3.org/1999/xlink" x="0px" y="0px"
	 width="50px" height="50px" viewBox="0 0 50 50" enable-background="new 0 0 50 50" xml:space="preserve">
<path fill="#414042" d="M33.833,30.5l-8.106-5.489c1.976-3.951,0.8-8.87-2.936-11.459c-4.093-2.838-9.733-1.817-12.572,2.277
	c-2.838,4.095-1.817,9.735,2.277,12.573c3.734,2.589,8.752,1.966,11.76-1.27l8.107,5.487c0.585,0.408,1.39,0.262,1.795-0.324
	C34.565,31.71,34.42,30.907,33.833,30.5z M17.704,27.762c-3.729,0-6.751-3.023-6.751-6.75c0-3.728,3.022-6.75,6.751-6.75
	c3.727,0,6.749,3.022,6.749,6.75C24.453,24.739,21.431,27.762,17.704,27.762z"/>
</svg>
