<?xml version="1.0" encoding="utf-8"?>
<!-- Generator: Adobe Illustrator 16.0.0, SVG Export Plug-In . SVG Version: 6.00 Build 0)  -->
<!DOCTYPE svg PUBLIC "-//W3C//DTD SVG 1.1//EN" "http://www.w3.org/Graphics/SVG/1.1/DTD/svg11.dtd">
<svg version="1.1" id="Layer_1" xmlns="http://www.w3.org/2000/svg" xmlns:xlink="http://www.w3.org/1999/xlink" x="0px" y="0px"
	 width="140.667px" height="21.167px" viewBox="0 0 140.667 21.167" enable-background="new 0 0 140.667 21.167"
	 xml:space="preserve">
<path fill-rule="evenodd" clip-rule="evenodd" fill="#414042" d="M7.666,20.891c-1.603,0-3.164,0-4.766,0c0-3.607,0-7.215,0-10.858
	c-0.986,0-1.932,0-2.9,0c0-1.234,0-2.435,0-3.671c0.949,0,1.894,0,2.862,0c0-0.341,0.006-0.65,0-0.958
	C2.835,4.096,3.062,2.854,3.801,1.743C4.445,0.775,5.365,0.27,6.491,0.091c1.457-0.232,2.919-0.227,4.385-0.131
	c0.047,0.004,0.093,0.024,0.153,0.039c0,1.177,0,2.351,0,3.56c-0.29,0.015-0.575,0.032-0.862,0.04
	C9.885,3.606,9.603,3.61,9.322,3.606C8.61,3.592,8.088,3.946,7.845,4.61C7.683,5.053,7.622,5.829,7.712,6.35
	c1.083,0,2.168,0,3.279,0c0,1.228,0,2.436,0,3.67c-1.097,0-2.191,0-3.326,0C7.666,13.655,7.666,17.264,7.666,20.891z"/>
<path fill-rule="evenodd" clip-rule="evenodd" fill="#414042" d="M34.28,16.56c1.429,0.144,2.788-0.05,4.092-0.604
	c0.626-0.267,1.49-0.784,1.761-1.054c-0.039-0.021-0.081-0.014-0.117-0.016c-0.046-0.005-0.092-0.005-0.138-0.01
	c-0.041-0.003-0.08-0.011-0.121-0.017c-0.041-0.004-0.082-0.006-0.122-0.012c-0.04-0.006-0.08-0.015-0.12-0.023
	c-0.045-0.009-0.091-0.019-0.135-0.028c-0.04-0.009-0.079-0.019-0.118-0.028c-0.041-0.01-0.08-0.021-0.118-0.031
	c-0.044-0.013-0.089-0.025-0.133-0.039c-0.039-0.011-0.077-0.025-0.116-0.039c-0.038-0.016-0.076-0.029-0.114-0.045
	c-0.038-0.016-0.076-0.03-0.113-0.045c-0.042-0.018-0.084-0.037-0.126-0.057c-0.037-0.017-0.073-0.036-0.109-0.054
	c-0.037-0.019-0.073-0.037-0.108-0.057c-0.042-0.021-0.08-0.045-0.121-0.069c-0.035-0.02-0.07-0.041-0.104-0.063
	c-0.034-0.021-0.069-0.044-0.103-0.067s-0.067-0.047-0.101-0.07c-0.037-0.027-0.074-0.055-0.11-0.082
	c-0.032-0.025-0.063-0.05-0.095-0.078c-0.032-0.026-0.063-0.052-0.094-0.079c-0.03-0.027-0.061-0.055-0.09-0.083
	c-0.034-0.031-0.067-0.063-0.099-0.096c-0.029-0.029-0.058-0.058-0.086-0.088c-0.028-0.029-0.056-0.059-0.083-0.09
	c-0.03-0.034-0.06-0.069-0.089-0.104c-0.027-0.033-0.053-0.064-0.078-0.096c-0.024-0.033-0.049-0.065-0.073-0.099
	s-0.047-0.066-0.071-0.101c-0.026-0.037-0.052-0.076-0.075-0.115c-0.023-0.034-0.043-0.068-0.064-0.103
	c-0.021-0.036-0.042-0.07-0.062-0.107c-0.021-0.04-0.043-0.081-0.064-0.122c-0.018-0.036-0.036-0.074-0.054-0.109
	c-0.017-0.037-0.035-0.074-0.052-0.112c-0.016-0.038-0.03-0.076-0.045-0.113c-0.018-0.043-0.036-0.085-0.05-0.128
	c-0.012-0.037-0.021-0.076-0.034-0.123c0.203,0.02,0.394,0.045,0.586,0.053c0.193,0.01,0.387,0.008,0.582-0.016
	c0.191-0.025,0.383-0.046,0.6-0.117c-1.125-0.273-1.985-0.871-2.584-1.826c-0.408-0.651-0.606-1.365-0.6-2.131
	c0.055-0.032,0.086,0.005,0.12,0.022c0.305,0.156,0.625,0.273,0.96,0.346c0.195,0.043,0.391,0.078,0.59,0.083
	c0.023,0.001,0.051,0.011,0.074-0.024c-1.068-0.806-1.661-1.864-1.711-3.214c-0.031-0.85,0.285-1.75,0.554-2.102
	c0.153,0.171,0.302,0.346,0.457,0.513c0.153,0.165,0.31,0.326,0.472,0.481c0.165,0.161,0.335,0.314,0.51,0.465
	c0.17,0.146,0.345,0.287,0.525,0.422c0.183,0.138,0.371,0.27,0.562,0.398c0.186,0.125,0.377,0.245,0.571,0.358
	c0.198,0.115,0.399,0.227,0.604,0.331c0.2,0.1,0.404,0.196,0.609,0.285c0.21,0.091,0.424,0.176,0.639,0.255
	c0.21,0.076,0.424,0.146,0.638,0.21c0.22,0.064,0.442,0.125,0.665,0.178c0.218,0.05,0.438,0.095,0.659,0.133
	c0.226,0.039,0.453,0.076,0.681,0.1c0.222,0.021,0.445,0.061,0.68,0.04c-0.208-1.044-0.075-2.029,0.466-2.943
	c0.416-0.706,0.997-1.234,1.736-1.59c1.474-0.707,3.362-0.479,4.667,0.866c0.099,0.009,0.196-0.026,0.294-0.05
	c0.749-0.177,1.458-0.455,2.128-0.835c0.026-0.015,0.054-0.029,0.081-0.043c0.008-0.004,0.02-0.002,0.028-0.004
	c-0.018,0.235-0.326,0.83-0.633,1.222C52.346,4.34,52,4.644,51.59,4.912c0.094,0.029,0.159-0.006,0.225-0.012
	c0.067-0.008,0.131-0.021,0.196-0.031c0.071-0.013,0.142-0.025,0.211-0.039c0.065-0.014,0.128-0.031,0.193-0.046
	c0.069-0.017,0.138-0.032,0.208-0.049c0.065-0.017,0.128-0.036,0.191-0.054c0.069-0.019,0.137-0.04,0.205-0.061
	c0.063-0.02,0.126-0.041,0.189-0.063c0.067-0.023,0.135-0.049,0.201-0.074c0.062-0.023,0.124-0.049,0.185-0.073
	c0.065-0.024,0.13-0.052,0.202-0.079c-0.038,0.127-0.247,0.414-0.555,0.769c-0.208,0.24-0.423,0.472-0.661,0.681
	c-0.237,0.21-0.482,0.41-0.739,0.625c0,0.015-0.007,0.049-0.007,0.084c0,0.087,0.003,0.174,0.004,0.26
	c0.021,1.22-0.167,2.411-0.531,3.573c-0.455,1.447-1.15,2.769-2.11,3.945c-1.547,1.898-3.503,3.156-5.884,3.748
	c-0.431,0.107-0.867,0.186-1.307,0.243c-0.788,0.105-1.579,0.131-2.369,0.08c-1.351-0.088-2.647-0.408-3.885-0.958
	c-0.458-0.204-0.899-0.436-1.327-0.697c-0.04-0.023-0.078-0.049-0.116-0.074C34.304,16.605,34.301,16.595,34.28,16.56z"/>
<path fill-rule="evenodd" clip-rule="evenodd" fill="#414042" d="M77.022,16.239c0-3.889,0-7.779,0-11.668
	c0.007-0.028,0.019-0.054,0.021-0.083c0.05-0.644,0.245-1.24,0.594-1.784c0.583-0.906,1.396-1.495,2.444-1.746
	c0.226-0.054,0.458-0.076,0.688-0.111c3.86,0,7.723,0,11.584,0c0.077,0.008,0.154,0.018,0.232,0.027
	c0.736,0.088,1.401,0.353,1.984,0.813c0.726,0.572,1.204,1.306,1.418,2.207c0.05,0.208,0.075,0.423,0.111,0.634
	c0,3.911,0,7.822,0,11.733c-0.01,0.066-0.021,0.134-0.029,0.201c-0.108,0.855-0.453,1.604-1.046,2.229
	c-0.762,0.802-1.7,1.242-2.811,1.245c-3.725,0.01-7.448,0.003-11.175,0.005c-0.779,0.001-1.505-0.184-2.161-0.61
	c-0.975-0.629-1.575-1.515-1.789-2.66C77.063,16.53,77.045,16.384,77.022,16.239z M81.805,4.551c0,3.898,0,7.775,0,11.672
	c3.548-1.946,7.084-3.885,10.643-5.836C88.888,8.434,85.354,6.498,81.805,4.551z"/>
<g>
	<path fill-rule="evenodd" clip-rule="evenodd" fill="#414042" d="M135.303,0.163c-0.556,0.302-1.101,0.636-1.678,0.89
		c-0.23,0.102-0.539,0.025-0.812,0.028c-0.231,0.002-0.464,0-0.771,0c0.159,0.146,0.262,0.239,0.361,0.332
		c1.441,1.344,1.893,3.338,1.136,5.024c-0.368,0.817-1.018,1.389-1.688,1.943c-0.238,0.197-0.445,0.431-0.667,0.644
		c-0.41,0.39-0.439,1.293,0.067,1.698c0.67,0.533,1.317,1.092,1.968,1.649c0.678,0.58,1.241,1.253,1.45,2.139
		c0.403,1.706-0.131,3.137-1.386,4.313c-0.975,0.914-2.166,1.419-3.463,1.666c-1.772,0.339-3.534,0.328-5.252-0.307
		c-0.902-0.334-1.685-0.84-2.22-1.667c-0.983-1.519-0.335-3.411,0.687-4.349c1.014-0.931,2.256-1.373,3.574-1.618
		c0.783-0.145,1.581-0.221,2.417-0.334c-0.67-0.804-1.028-1.689-0.505-2.763c-0.431,0-0.82,0.012-1.208-0.002
		c-1.945-0.072-3.577-1.389-3.994-3.271c-0.361-1.624,0.127-3.035,1.238-4.229c0.956-1.027,2.175-1.564,3.556-1.72
		c0.737-0.084,1.481-0.125,2.223-0.134c1.554-0.021,3.107-0.007,4.66-0.007c0.099,0,0.193,0,0.291,0
		C135.293,0.111,135.299,0.137,135.303,0.163z M128.966,19.538c0.483-0.055,0.974-0.078,1.451-0.171
		c0.995-0.197,1.818-0.673,2.281-1.621c0.521-1.067,0.251-2.275-0.744-3.158c-0.581-0.517-1.228-0.962-1.849-1.435
		c-0.064-0.048-0.152-0.086-0.23-0.087c-1.363-0.024-2.711,0.087-3.954,0.712c-0.987,0.498-1.632,1.264-1.64,2.433
		c-0.009,1.109,0.529,1.914,1.44,2.493C126.71,19.333,127.814,19.501,128.966,19.538z M131.476,5.85
		c-0.049-0.366-0.078-0.761-0.157-1.146c-0.246-1.195-0.717-2.276-1.652-3.105c-1.368-1.211-3.565-0.501-3.913,1.294
		c-0.107,0.563-0.111,1.162-0.05,1.734c0.112,1.093,0.491,2.1,1.2,2.963c0.611,0.745,1.367,1.147,2.363,1.054
		c0.982-0.091,1.905-0.847,2.09-1.784C131.421,6.539,131.435,6.208,131.476,5.85z"/>
	<path fill-rule="evenodd" clip-rule="evenodd" fill="#414042" d="M138.28,8.807c0.695,0,1.351,0,2.025,0c0,0.433,0,0.838,0,1.283
		c-0.672,0-1.335,0-2.025,0c0,0.609-0.01,1.181,0.006,1.753c0.006,0.244-0.059,0.342-0.314,0.318
		c-0.242-0.021-0.49-0.015-0.733-0.001c-0.2,0.012-0.26-0.064-0.258-0.258c0.01-0.591,0.004-1.183,0.004-1.812
		c-0.689,0-1.352,0-2.03,0c0-0.437,0-0.836,0-1.273c0.664,0,1.327,0,2.03,0c0-0.527-0.004-1.022,0.001-1.517
		c0.007-0.663-0.089-0.568,0.561-0.573c0.734-0.004,0.734,0,0.734,0.74C138.28,7.899,138.28,8.33,138.28,8.807z"/>
</g>
</svg>
