<?xml version="1.0" encoding="utf-8"?>
<!-- Generator: Adobe Illustrator 16.0.0, SVG Export Plug-In . SVG Version: 6.00 Build 0)  -->
<!DOCTYPE svg PUBLIC "-//W3C//DTD SVG 1.1//EN" "http://www.w3.org/Graphics/SVG/1.1/DTD/svg11.dtd">
<svg version="1.1" id="Layer_1" xmlns="http://www.w3.org/2000/svg" xmlns:xlink="http://www.w3.org/1999/xlink" x="0px" y="0px"
	 width="140.667px" height="21.167px" viewBox="0 0 140.667 21.167" enable-background="new 0 0 140.667 21.167"
	 xml:space="preserve">
<path fill="#FFFFFF" d="M7.666,20.891c-1.603,0-3.164,0-4.766,0c0-3.606,0-7.216,0-10.858c-0.986,0-1.932,0-2.9,0
	c0-1.234,0-2.435,0-3.671c0.949,0,1.894,0,2.862,0c0-0.341,0.006-0.65,0-0.958c-0.027-1.308,0.2-2.55,0.939-3.661
	c0.644-0.968,1.564-1.473,2.69-1.652C7.948-0.141,9.41-0.136,10.876-0.04c0.047,0.004,0.093,0.024,0.153,0.039
	c0,1.177,0,2.351,0,3.56c-0.29,0.015-0.575,0.032-0.862,0.04C9.885,3.606,9.603,3.61,9.322,3.606C8.61,3.592,8.088,3.946,7.845,4.61
	C7.683,5.053,7.622,5.829,7.712,6.35c1.083,0,2.168,0,3.279,0c0,1.228,0,2.436,0,3.67c-1.097,0-2.191,0-3.326,0
	C7.666,13.655,7.666,17.264,7.666,20.891z"/>
<path fill="#FFFFFF" d="M34.28,16.56c1.429,0.145,2.788-0.051,4.092-0.604c0.626-0.268,1.49-0.785,1.761-1.055
	c-0.039-0.021-0.081-0.014-0.117-0.016c-0.046-0.006-0.092-0.006-0.138-0.01c-0.041-0.004-0.08-0.012-0.121-0.018
	c-0.041-0.004-0.082-0.006-0.122-0.012c-0.04-0.006-0.08-0.016-0.12-0.023c-0.045-0.009-0.091-0.019-0.135-0.027
	c-0.04-0.01-0.079-0.02-0.118-0.028c-0.041-0.011-0.08-0.021-0.118-0.031c-0.044-0.013-0.089-0.024-0.133-0.038
	c-0.039-0.012-0.077-0.025-0.116-0.039c-0.038-0.017-0.076-0.029-0.114-0.045c-0.038-0.017-0.076-0.031-0.113-0.046
	c-0.042-0.019-0.084-0.036-0.126-0.057c-0.037-0.017-0.073-0.036-0.109-0.054c-0.037-0.02-0.073-0.037-0.108-0.058
	c-0.042-0.021-0.08-0.045-0.121-0.069c-0.035-0.02-0.07-0.041-0.104-0.063c-0.034-0.021-0.069-0.044-0.103-0.066
	c-0.034-0.023-0.067-0.048-0.101-0.07c-0.037-0.027-0.074-0.055-0.11-0.082c-0.032-0.025-0.063-0.051-0.095-0.078
	c-0.032-0.026-0.063-0.053-0.094-0.079c-0.03-0.026-0.061-0.056-0.09-0.083c-0.034-0.031-0.067-0.063-0.099-0.096
	c-0.029-0.029-0.058-0.059-0.086-0.088c-0.028-0.029-0.056-0.06-0.083-0.09c-0.03-0.035-0.06-0.07-0.089-0.104
	c-0.027-0.033-0.053-0.063-0.078-0.097c-0.024-0.032-0.049-0.064-0.073-0.099s-0.047-0.065-0.071-0.101
	c-0.026-0.037-0.052-0.076-0.075-0.115c-0.023-0.034-0.043-0.068-0.064-0.104s-0.042-0.069-0.062-0.106
	c-0.021-0.04-0.043-0.081-0.064-0.122c-0.018-0.036-0.036-0.074-0.054-0.109c-0.017-0.037-0.035-0.074-0.052-0.111
	c-0.016-0.038-0.03-0.076-0.045-0.113c-0.018-0.043-0.036-0.085-0.05-0.128c-0.012-0.037-0.021-0.076-0.034-0.123
	c0.203,0.021,0.394,0.045,0.586,0.054c0.193,0.01,0.387,0.008,0.582-0.017c0.191-0.024,0.383-0.046,0.6-0.117
	c-1.125-0.272-1.985-0.871-2.584-1.826c-0.408-0.651-0.606-1.365-0.6-2.131c0.055-0.032,0.086,0.005,0.12,0.022
	c0.305,0.156,0.625,0.273,0.96,0.346c0.195,0.043,0.391,0.078,0.59,0.083c0.023,0.001,0.051,0.011,0.074-0.024
	c-1.068-0.806-1.661-1.864-1.711-3.214c-0.031-0.85,0.285-1.75,0.554-2.102c0.153,0.171,0.302,0.346,0.457,0.513
	c0.153,0.165,0.31,0.326,0.472,0.481c0.165,0.161,0.335,0.314,0.51,0.465c0.17,0.146,0.345,0.287,0.525,0.422
	c0.183,0.138,0.371,0.27,0.562,0.398c0.186,0.125,0.377,0.245,0.571,0.358c0.198,0.115,0.399,0.227,0.604,0.331
	c0.2,0.1,0.404,0.196,0.609,0.285c0.21,0.091,0.424,0.176,0.639,0.255c0.21,0.076,0.424,0.146,0.638,0.21
	c0.22,0.064,0.442,0.125,0.665,0.178c0.218,0.05,0.438,0.095,0.659,0.133c0.226,0.039,0.453,0.076,0.681,0.1
	c0.222,0.021,0.445,0.061,0.68,0.04c-0.208-1.044-0.075-2.029,0.466-2.943c0.416-0.706,0.997-1.234,1.736-1.59
	c1.474-0.707,3.362-0.479,4.667,0.866c0.099,0.009,0.196-0.026,0.294-0.05c0.749-0.177,1.458-0.455,2.128-0.835
	c0.026-0.015,0.054-0.029,0.081-0.043c0.008-0.004,0.02-0.002,0.028-0.004c-0.018,0.235-0.326,0.83-0.633,1.222
	C52.346,4.34,52,4.644,51.59,4.912c0.094,0.029,0.159-0.006,0.225-0.012c0.067-0.008,0.131-0.021,0.196-0.031
	c0.071-0.013,0.142-0.025,0.211-0.039c0.065-0.014,0.128-0.031,0.193-0.046c0.069-0.017,0.138-0.032,0.208-0.049
	c0.065-0.017,0.128-0.036,0.191-0.054c0.069-0.019,0.137-0.04,0.205-0.061c0.063-0.02,0.126-0.041,0.189-0.063
	c0.067-0.023,0.135-0.049,0.201-0.074c0.062-0.023,0.124-0.049,0.185-0.073c0.065-0.024,0.13-0.052,0.202-0.079
	c-0.038,0.127-0.247,0.414-0.555,0.769c-0.208,0.24-0.423,0.472-0.661,0.681c-0.237,0.21-0.482,0.41-0.739,0.625
	c0,0.015-0.007,0.049-0.007,0.084c0,0.087,0.003,0.174,0.004,0.26c0.021,1.22-0.167,2.411-0.531,3.573
	c-0.455,1.447-1.15,2.768-2.11,3.945c-1.547,1.897-3.503,3.155-5.884,3.748c-0.431,0.106-0.867,0.187-1.307,0.243
	c-0.788,0.105-1.579,0.131-2.369,0.08c-1.351-0.088-2.647-0.408-3.885-0.959c-0.458-0.203-0.899-0.436-1.327-0.696
	c-0.04-0.022-0.078-0.05-0.116-0.074C34.304,16.605,34.301,16.595,34.28,16.56z"/>
<path fill="#FFFFFF" d="M77.022,16.24c0-3.89,0-7.78,0-11.669c0.007-0.028,0.019-0.054,0.021-0.083
	c0.051-0.644,0.246-1.24,0.595-1.784c0.583-0.906,1.396-1.495,2.444-1.746c0.226-0.054,0.457-0.076,0.688-0.111
	c3.859,0,7.723,0,11.584,0c0.077,0.008,0.154,0.018,0.232,0.027c0.735,0.088,1.4,0.353,1.983,0.813
	c0.726,0.572,1.204,1.306,1.418,2.207c0.05,0.208,0.075,0.423,0.111,0.634c0,3.911,0,7.822,0,11.733
	c-0.011,0.066-0.021,0.134-0.029,0.201c-0.108,0.854-0.452,1.604-1.046,2.229c-0.762,0.803-1.699,1.242-2.811,1.245
	c-3.726,0.01-7.448,0.003-11.176,0.005c-0.779,0.001-1.504-0.184-2.16-0.609c-0.976-0.629-1.576-1.516-1.789-2.66
	C77.063,16.53,77.044,16.384,77.022,16.24z M81.805,4.551c0,3.898,0,7.775,0,11.672c3.548-1.946,7.084-3.886,10.644-5.836
	C88.888,8.434,85.354,6.498,81.805,4.551z"/>
<g>
	<path fill="#FFFFFF" d="M135.303,0.163c-0.556,0.302-1.101,0.636-1.679,0.89c-0.229,0.102-0.539,0.025-0.812,0.028
		c-0.231,0.002-0.464,0-0.771,0c0.158,0.146,0.262,0.239,0.36,0.332c1.44,1.344,1.894,3.338,1.136,5.024
		c-0.367,0.817-1.018,1.389-1.688,1.943c-0.238,0.197-0.445,0.431-0.667,0.644c-0.41,0.39-0.438,1.293,0.067,1.698
		c0.67,0.533,1.316,1.092,1.967,1.648c0.679,0.58,1.242,1.254,1.451,2.139c0.402,1.707-0.131,3.138-1.387,4.314
		c-0.975,0.913-2.166,1.418-3.463,1.666c-1.771,0.338-3.533,0.327-5.252-0.308c-0.902-0.334-1.686-0.841-2.22-1.667
		c-0.983-1.52-0.335-3.411,0.687-4.35c1.014-0.931,2.256-1.373,3.574-1.617c0.783-0.146,1.581-0.221,2.417-0.334
		c-0.67-0.805-1.028-1.689-0.505-2.763c-0.432,0-0.82,0.012-1.208-0.002c-1.944-0.072-3.577-1.389-3.994-3.271
		c-0.36-1.624,0.127-3.035,1.238-4.229c0.956-1.027,2.175-1.564,3.556-1.72c0.737-0.084,1.48-0.125,2.223-0.134
		c1.555-0.021,3.107-0.007,4.66-0.007c0.1,0,0.193,0,0.291,0C135.292,0.111,135.298,0.137,135.303,0.163z M128.966,19.539
		c0.482-0.056,0.974-0.078,1.451-0.172c0.994-0.197,1.817-0.673,2.281-1.621c0.521-1.066,0.25-2.274-0.744-3.158
		c-0.582-0.517-1.229-0.961-1.85-1.435c-0.064-0.048-0.152-0.086-0.23-0.087c-1.362-0.023-2.711,0.087-3.953,0.712
		c-0.987,0.498-1.633,1.265-1.641,2.433c-0.009,1.109,0.529,1.914,1.44,2.494C126.71,19.333,127.814,19.501,128.966,19.539z
		 M131.476,5.85c-0.049-0.366-0.078-0.761-0.157-1.146c-0.245-1.195-0.717-2.276-1.651-3.105c-1.369-1.211-3.565-0.501-3.914,1.294
		c-0.106,0.563-0.11,1.162-0.049,1.734c0.111,1.093,0.49,2.1,1.199,2.963c0.611,0.745,1.367,1.147,2.363,1.054
		c0.982-0.091,1.904-0.847,2.09-1.784C131.421,6.539,131.435,6.208,131.476,5.85z"/>
	<path fill="#FFFFFF" d="M138.28,8.807c0.695,0,1.351,0,2.025,0c0,0.433,0,0.838,0,1.283c-0.673,0-1.335,0-2.025,0
		c0,0.609-0.01,1.181,0.007,1.753c0.006,0.244-0.06,0.342-0.314,0.318c-0.242-0.021-0.49-0.016-0.733-0.002
		c-0.2,0.012-0.26-0.063-0.258-0.258c0.011-0.591,0.004-1.183,0.004-1.812c-0.688,0-1.353,0-2.03,0c0-0.437,0-0.836,0-1.273
		c0.664,0,1.328,0,2.03,0c0-0.527-0.004-1.022,0.001-1.517c0.008-0.663-0.089-0.568,0.561-0.573c0.734-0.004,0.734,0,0.734,0.74
		C138.28,7.899,138.28,8.33,138.28,8.807z"/>
</g>
</svg>
