<?xml version="1.0" encoding="utf-8"?>
<!-- Generator: Adobe Illustrator 16.0.0, SVG Export Plug-In . SVG Version: 6.00 Build 0)  -->
<!DOCTYPE svg PUBLIC "-//W3C//DTD SVG 1.1//EN" "http://www.w3.org/Graphics/SVG/1.1/DTD/svg11.dtd">
<svg version="1.1" id="Layer_1" xmlns="http://www.w3.org/2000/svg" xmlns:xlink="http://www.w3.org/1999/xlink" x="0px" y="0px"
	 width="43.667px" height="6.524px" viewBox="0 0 43.667 6.524" enable-background="new 0 0 43.667 6.524" xml:space="preserve">
<path fill-rule="evenodd" clip-rule="evenodd" fill="#727272" d="M24.355,5.929c0.491,0.049,0.957-0.017,1.405-0.208
	c0.215-0.092,0.511-0.269,0.604-0.362c-0.014-0.008-0.027-0.005-0.039-0.005c-0.017-0.002-0.032-0.002-0.049-0.004
	c-0.013-0.001-0.027-0.003-0.042-0.005c-0.013-0.002-0.027-0.003-0.041-0.005c-0.014-0.001-0.028-0.005-0.042-0.008
	c-0.016-0.002-0.031-0.006-0.046-0.01c-0.015-0.003-0.028-0.006-0.041-0.009c-0.015-0.003-0.028-0.006-0.042-0.01
	c-0.016-0.004-0.03-0.009-0.045-0.014c-0.014-0.004-0.026-0.008-0.041-0.014c-0.013-0.005-0.025-0.01-0.04-0.015
	c-0.012-0.006-0.024-0.011-0.038-0.016c-0.016-0.006-0.029-0.013-0.044-0.02c-0.013-0.006-0.025-0.013-0.037-0.019
	c-0.013-0.006-0.026-0.012-0.038-0.02c-0.014-0.007-0.028-0.015-0.042-0.024c-0.012-0.006-0.024-0.013-0.036-0.021
	c-0.012-0.008-0.024-0.015-0.035-0.024c-0.012-0.007-0.023-0.016-0.035-0.023c-0.013-0.01-0.025-0.019-0.038-0.028
	c-0.011-0.009-0.022-0.018-0.032-0.028c-0.011-0.008-0.022-0.017-0.032-0.026c-0.011-0.009-0.022-0.019-0.032-0.029
	c-0.011-0.01-0.022-0.022-0.034-0.033c-0.01-0.009-0.019-0.02-0.029-0.03c-0.009-0.01-0.019-0.02-0.028-0.03
	c-0.01-0.011-0.021-0.024-0.03-0.036c-0.009-0.011-0.018-0.022-0.027-0.033c-0.008-0.011-0.017-0.022-0.025-0.033
	c-0.008-0.012-0.016-0.023-0.024-0.035c-0.009-0.013-0.018-0.025-0.026-0.04c-0.008-0.012-0.015-0.023-0.022-0.036
	c-0.007-0.012-0.015-0.024-0.021-0.036C25.187,4.628,25.18,4.613,25.172,4.6c-0.006-0.012-0.012-0.026-0.018-0.037
	c-0.006-0.013-0.012-0.026-0.018-0.039c-0.006-0.013-0.011-0.027-0.016-0.04c-0.006-0.015-0.013-0.029-0.018-0.043
	c-0.004-0.013-0.007-0.026-0.012-0.043c0.07,0.007,0.135,0.016,0.201,0.019c0.066,0.002,0.133,0.001,0.199-0.006
	c0.066-0.008,0.131-0.016,0.207-0.04c-0.387-0.094-0.683-0.299-0.887-0.627c-0.141-0.223-0.208-0.468-0.207-0.732
	c0.018-0.011,0.03,0.002,0.041,0.008c0.105,0.053,0.214,0.094,0.33,0.119c0.067,0.015,0.134,0.026,0.202,0.028
	c0.008,0,0.017,0.003,0.025-0.008c-0.366-0.276-0.57-0.64-0.587-1.104c-0.011-0.292,0.098-0.601,0.19-0.721
	c0.052,0.059,0.103,0.118,0.157,0.176c0.052,0.056,0.106,0.112,0.162,0.165c0.056,0.055,0.115,0.108,0.175,0.16
	c0.059,0.051,0.119,0.099,0.181,0.145c0.063,0.048,0.127,0.093,0.192,0.137c0.064,0.043,0.13,0.084,0.196,0.123
	c0.068,0.04,0.137,0.077,0.207,0.113c0.069,0.035,0.139,0.068,0.209,0.098c0.072,0.031,0.146,0.06,0.219,0.087
	c0.073,0.027,0.145,0.051,0.22,0.073c0.074,0.022,0.151,0.043,0.228,0.061c0.075,0.018,0.15,0.033,0.227,0.046
	c0.076,0.014,0.155,0.026,0.232,0.034c0.077,0.007,0.153,0.021,0.234,0.014c-0.072-0.358-0.027-0.696,0.159-1.011
	c0.144-0.242,0.343-0.424,0.596-0.545c0.507-0.243,1.156-0.165,1.602,0.297c0.035,0.002,0.068-0.009,0.102-0.017
	c0.256-0.062,0.501-0.156,0.73-0.287c0.009-0.006,0.019-0.01,0.027-0.016c0.003-0.001,0.007,0,0.01-0.001
	c-0.006,0.081-0.112,0.285-0.218,0.42c-0.098,0.126-0.218,0.231-0.358,0.323c0.032,0.01,0.055-0.002,0.078-0.004
	c0.023-0.002,0.045-0.008,0.067-0.011c0.025-0.005,0.049-0.008,0.072-0.013c0.023-0.005,0.045-0.011,0.067-0.016
	c0.024-0.007,0.048-0.011,0.071-0.017c0.022-0.006,0.044-0.012,0.066-0.019c0.023-0.007,0.047-0.014,0.071-0.022
	c0.021-0.006,0.043-0.014,0.064-0.021c0.023-0.007,0.046-0.017,0.07-0.025c0.02-0.008,0.041-0.018,0.063-0.026
	c0.022-0.008,0.044-0.018,0.069-0.027c-0.014,0.044-0.084,0.142-0.19,0.265c-0.072,0.083-0.146,0.163-0.227,0.233
	c-0.082,0.073-0.165,0.142-0.254,0.216c0,0.004-0.001,0.016-0.001,0.028c0,0.03,0,0.06,0.001,0.089
	c0.007,0.419-0.058,0.829-0.183,1.228c-0.156,0.497-0.395,0.951-0.724,1.354c-0.532,0.652-1.203,1.084-2.021,1.287
	c-0.147,0.037-0.297,0.064-0.449,0.083c-0.269,0.036-0.541,0.045-0.813,0.027C25.73,6.509,25.286,6.4,24.86,6.211
	c-0.157-0.071-0.308-0.15-0.455-0.24c-0.014-0.007-0.027-0.017-0.04-0.025C24.363,5.944,24.361,5.941,24.355,5.929z"/>
<path fill-rule="evenodd" clip-rule="evenodd" fill="#727272" d="M37.759,5.407c0-1.199,0-2.397,0-3.595
	c0.001-0.009,0.004-0.018,0.005-0.027c0.016-0.198,0.076-0.382,0.184-0.549c0.179-0.28,0.43-0.461,0.753-0.538
	c0.069-0.017,0.141-0.023,0.211-0.034c1.19,0,2.38,0,3.57,0c0.024,0.003,0.048,0.006,0.072,0.008
	c0.226,0.028,0.431,0.108,0.611,0.251c0.224,0.176,0.372,0.402,0.437,0.68c0.016,0.064,0.024,0.13,0.034,0.196
	c0,1.204,0,2.41,0,3.616c-0.003,0.02-0.006,0.041-0.008,0.061c-0.034,0.265-0.14,0.495-0.322,0.688
	c-0.234,0.247-0.525,0.383-0.866,0.383c-1.147,0.003-2.295,0.001-3.444,0.001c-0.24,0-0.463-0.057-0.665-0.188
	c-0.3-0.194-0.486-0.467-0.551-0.819C37.771,5.497,37.765,5.452,37.759,5.407z M39.232,1.806c0,1.201,0,2.396,0,3.595
	c1.093-0.6,2.182-1.197,3.279-1.797C41.414,3.002,40.326,2.406,39.232,1.806z"/>
<path fill-rule="evenodd" clip-rule="evenodd" fill="#727272" d="M2.391,6.548c-0.5,0-0.987,0-1.486,0c0-1.124,0-2.25,0-3.386
	c-0.308,0-0.603,0-0.905,0c0-0.385,0-0.76,0-1.146c0.296,0,0.591,0,0.893,0c0-0.107,0.001-0.203,0-0.299
	C0.885,1.309,0.955,0.922,1.186,0.576c0.2-0.302,0.488-0.459,0.839-0.517c0.454-0.072,0.91-0.07,1.368-0.04
	C3.407,0.021,3.421,0.027,3.44,0.031c0,0.368,0,0.734,0,1.111c-0.091,0.004-0.179,0.01-0.27,0.013
	C3.083,1.157,2.996,1.158,2.908,1.157c-0.222-0.005-0.385,0.106-0.46,0.314C2.396,1.608,2.377,1.85,2.406,2.013
	c0.337,0,0.676,0,1.022,0c0,0.383,0,0.76,0,1.145c-0.342,0-0.683,0-1.037,0C2.391,4.291,2.391,5.417,2.391,6.548z"/>
<g>
	<path fill-rule="evenodd" clip-rule="evenodd" fill="#727272" d="M15.074,6.545c-0.461,0-0.899,0-1.35,0c0-1.286,0-2.56,0-3.849
		c0.447,0,0.885,0,1.34,0c0,0.166,0,0.323,0,0.543c0.246-0.323,0.527-0.489,0.87-0.563c0.946-0.2,1.754,0.376,1.859,1.338
		c0.021,0.186,0.024,0.374,0.025,0.562c0.003,0.648,0.001,1.297,0.001,1.963c-0.456,0-0.9,0-1.376,0c0-0.069,0-0.139,0-0.21
		c0.001-0.569,0.003-1.138-0.002-1.706c-0.001-0.147-0.014-0.295-0.044-0.438c-0.075-0.342-0.354-0.545-0.686-0.516
		c-0.342,0.029-0.625,0.305-0.63,0.641c-0.01,0.649-0.005,1.298-0.007,1.947C15.074,6.345,15.074,6.432,15.074,6.545z"/>
	<path fill-rule="evenodd" clip-rule="evenodd" fill="#727272" d="M12.964,6.548c-0.4,0-0.787,0-1.191,0c0-1.284,0-2.562,0-3.854
		c0.396,0,0.786,0,1.191,0C12.964,3.977,12.964,5.25,12.964,6.548z"/>
	<path fill-rule="evenodd" clip-rule="evenodd" fill="#727272" d="M12.35,2.188c-0.439,0.003-0.748-0.272-0.744-0.665
		c0.004-0.396,0.307-0.671,0.742-0.673c0.433-0.001,0.726,0.274,0.726,0.68C13.072,1.925,12.789,2.184,12.35,2.188z"/>
</g>
</svg>
