<?xml version="1.0" encoding="utf-8"?>
<!-- Generator: Adobe Illustrator 16.0.0, SVG Export Plug-In . SVG Version: 6.00 Build 0)  -->
<!DOCTYPE svg PUBLIC "-//W3C//DTD SVG 1.1//EN" "http://www.w3.org/Graphics/SVG/1.1/DTD/svg11.dtd">
<svg version="1.1" id="Layer_1" xmlns="http://www.w3.org/2000/svg" xmlns:xlink="http://www.w3.org/1999/xlink" x="0px" y="0px"
	 width="140.667px" height="21.167px" viewBox="0 0 140.667 21.167" enable-background="new 0 0 140.667 21.167"
	 xml:space="preserve">
<path fill="#FFFFFF" d="M49.666,20.994c-1.603,0-3.164,0-4.766,0c0-3.605,0-7.215,0-10.858c-0.986,0-1.932,0-2.9,0
	c0-1.234,0-2.435,0-3.671c0.949,0,1.894,0,2.862,0c0-0.341,0.006-0.65,0-0.958c-0.027-1.308,0.2-2.55,0.939-3.661
	c0.644-0.968,1.564-1.473,2.69-1.652c1.457-0.232,2.919-0.227,4.385-0.131c0.047,0.004,0.093,0.024,0.153,0.039
	c0,1.177,0,2.351,0,3.56c-0.29,0.015-0.575,0.032-0.862,0.04c-0.282,0.007-0.564,0.011-0.845,0.007
	c-0.712-0.014-1.234,0.34-1.477,1.004c-0.162,0.443-0.223,1.219-0.133,1.74c1.083,0,2.168,0,3.279,0c0,1.228,0,2.436,0,3.67
	c-1.097,0-2.191,0-3.326,0C49.666,13.757,49.666,17.367,49.666,20.994z"/>
<g>
	<path fill="#FFFFFF" d="M135.303,0.264c-0.556,0.302-1.101,0.636-1.679,0.89c-0.229,0.102-0.539,0.025-0.813,0.028
		c-0.23,0.002-0.464,0-0.771,0c0.158,0.146,0.263,0.239,0.36,0.332c1.44,1.344,1.894,3.338,1.136,5.024
		c-0.367,0.817-1.018,1.389-1.688,1.943c-0.238,0.197-0.445,0.431-0.667,0.644c-0.41,0.39-0.438,1.293,0.067,1.698
		c0.67,0.533,1.315,1.092,1.967,1.648c0.679,0.58,1.242,1.255,1.451,2.14c0.401,1.707-0.131,3.137-1.388,4.313
		c-0.975,0.914-2.166,1.42-3.463,1.666c-1.771,0.34-3.532,0.328-5.252-0.307c-0.901-0.334-1.687-0.842-2.22-1.668
		c-0.983-1.52-0.336-3.41,0.688-4.35c1.014-0.932,2.256-1.374,3.573-1.618c0.783-0.146,1.581-0.221,2.417-0.334
		c-0.67-0.805-1.027-1.688-0.505-2.762c-0.433,0-0.82,0.012-1.208-0.002c-1.943-0.072-3.577-1.389-3.994-3.271
		c-0.359-1.624,0.127-3.035,1.238-4.229c0.955-1.027,2.175-1.564,3.556-1.72c0.737-0.084,1.479-0.125,2.224-0.134
		c1.555-0.021,3.106-0.007,4.66-0.007c0.1,0,0.192,0,0.291,0C135.292,0.211,135.298,0.238,135.303,0.264z M128.966,19.64
		c0.482-0.057,0.974-0.078,1.451-0.172c0.994-0.197,1.816-0.674,2.281-1.621c0.521-1.066,0.25-2.273-0.744-3.158
		c-0.582-0.518-1.229-0.961-1.851-1.436c-0.063-0.047-0.151-0.086-0.229-0.086c-1.362-0.023-2.711,0.086-3.953,0.711
		c-0.987,0.498-1.633,1.266-1.642,2.434c-0.009,1.109,0.529,1.914,1.44,2.494C126.71,19.435,127.814,19.603,128.966,19.64z
		 M131.476,5.951c-0.049-0.366-0.078-0.761-0.157-1.146c-0.245-1.195-0.717-2.276-1.651-3.105c-1.369-1.211-3.564-0.501-3.914,1.294
		c-0.105,0.563-0.109,1.162-0.049,1.734c0.111,1.093,0.49,2.1,1.199,2.963c0.611,0.745,1.367,1.147,2.363,1.054
		c0.982-0.091,1.904-0.847,2.09-1.784C131.421,6.64,131.435,6.309,131.476,5.951z"/>
	<path fill="#FFFFFF" d="M138.28,8.908c0.695,0,1.351,0,2.025,0c0,0.433,0,0.838,0,1.283c-0.673,0-1.335,0-2.025,0
		c0,0.609-0.01,1.181,0.007,1.753c0.006,0.244-0.06,0.342-0.313,0.318c-0.242-0.021-0.49-0.017-0.733-0.002
		c-0.199,0.012-0.26-0.063-0.258-0.259c0.012-0.591,0.004-1.183,0.004-1.812c-0.688,0-1.354,0-2.029,0c0-0.437,0-0.836,0-1.273
		c0.664,0,1.328,0,2.029,0c0-0.527-0.004-1.022,0.001-1.517c0.009-0.663-0.089-0.568,0.562-0.573c0.734-0.004,0.734,0,0.734,0.74
		C138.28,8,138.28,8.431,138.28,8.908z"/>
</g>
<path fill="#FFFFFF" d="M92.233,0.101H81.842c-2.861,0-5.19,2.324-5.19,5.176v10.439c0,2.852,2.329,5.176,5.19,5.176h10.391
	c2.863,0,5.191-2.324,5.191-5.176V5.277C97.424,2.425,95.096,0.101,92.233,0.101L92.233,0.101z M95.502,15.716
	c0,1.795-1.467,3.258-3.27,3.258H81.842c-1.802,0-3.269-1.463-3.269-3.258V8.974h4.108c-0.301,0.633-0.469,1.342-0.469,2.088
	c0,2.709,2.212,4.915,4.932,4.915c2.719,0,4.93-2.205,4.93-4.915c0-0.746-0.168-1.455-0.469-2.088h3.896V15.716L95.502,15.716z
	 M85.097,11.062c0-1.125,0.918-2.043,2.048-2.043c1.127,0,2.047,0.918,2.047,2.043c0,1.125-0.92,2.042-2.047,2.042
	C86.015,13.103,85.097,12.187,85.097,11.062L85.097,11.062z M95.502,7.056h-5.504c-0.807-0.57-1.79-0.908-2.854-0.908
	s-2.048,0.338-2.854,0.908h-5.717V5.277c0-1.799,1.467-3.258,3.269-3.258h10.391c1.803,0,3.27,1.459,3.27,3.258V7.056L95.502,7.056
	L95.502,7.056z M93.42,3.181h-1.784c-0.316,0-0.577,0.258-0.577,0.574v1.777c0,0.314,0.261,0.574,0.577,0.574h1.784
	c0.316,0,0.574-0.26,0.574-0.574V3.755C93.995,3.439,93.737,3.181,93.42,3.181z"/>
</svg>
