<?xml version="1.0" encoding="utf-8"?>
<!-- Generator: Adobe Illustrator 16.0.0, SVG Export Plug-In . SVG Version: 6.00 Build 0)  -->
<!DOCTYPE svg PUBLIC "-//W3C//DTD SVG 1.1//EN" "http://www.w3.org/Graphics/SVG/1.1/DTD/svg11.dtd">
<svg version="1.1" id="Layer_1" xmlns="http://www.w3.org/2000/svg" xmlns:xlink="http://www.w3.org/1999/xlink" x="0px" y="0px"
	 width="50px" height="50px" viewBox="0 0 50 50" enable-background="new 0 0 50 50" xml:space="preserve">
<path fill-rule="evenodd" clip-rule="evenodd" d="M13.143,42.185c0.574-3.483,1.244-6.982,1.667-10.511
	c0.108-0.905-0.301-2.15-0.925-2.818c-2.251-2.414-4.719-4.623-7.048-6.965c-0.493-0.497-0.748-1.23-1.112-1.855
	c0.71-0.358,1.386-0.909,2.136-1.042c3.168-0.559,6.387-0.863,9.525-1.547c1.03-0.225,2.213-1.126,2.735-2.051
	c1.621-2.871,2.909-5.927,4.424-8.861c0.958-1.857,1.812-1.853,2.792,0.008c1.496,2.848,2.945,5.726,4.282,8.651
	c0.663,1.455,1.496,2.21,3.188,2.364c3.2,0.292,6.381,0.835,9.553,1.374c0.659,0.112,1.424,0.533,1.785,1.056
	c0.164,0.236-0.432,1.178-0.867,1.62c-2.258,2.294-4.508,4.604-6.9,6.755c-1.235,1.11-1.538,2.218-1.207,3.796
	c0.627,2.981,1.114,5.995,1.569,9.009c0.116,0.772-0.108,1.596-0.175,2.396c-0.853-0.171-1.789-0.174-2.545-0.542
	c-2.817-1.371-5.527-2.97-8.383-4.246c-0.902-0.405-2.297-0.419-3.188-0.008c-3.072,1.418-6.021,3.102-9.016,4.684
	C14.058,44.177,13.141,44.058,13.143,42.185z M42.576,20.973c-3.325-0.501-6.218-1.06-9.139-1.332
	c-1.777-0.165-2.689-0.998-3.387-2.535c-1.201-2.649-2.57-5.222-4.104-8.297c-1.573,3.202-2.944,5.81-4.14,8.495
	c-0.662,1.487-1.608,2.179-3.231,2.364c-2.945,0.334-5.868,0.879-9.1,1.382c2.196,2.238,3.911,4.233,5.885,5.927
	c1.754,1.504,2.299,3.072,1.758,5.326c-0.622,2.59-0.905,5.261-1.415,8.382c2.312-1.197,4.306-1.97,6-3.166
	c2.916-2.061,5.58-2.195,8.542-0.08c1.714,1.226,3.746,2.006,6.145,3.25c-0.603-3.496-1.01-6.334-1.604-9.13
	c-0.354-1.664-0.041-2.871,1.254-4.052C38.207,25.534,40.199,23.371,42.576,20.973z"/>
</svg>
