<?xml version="1.0" encoding="utf-8"?>
<!-- Generator: Adobe Illustrator 16.0.0, SVG Export Plug-In . SVG Version: 6.00 Build 0)  -->
<!DOCTYPE svg PUBLIC "-//W3C//DTD SVG 1.1//EN" "http://www.w3.org/Graphics/SVG/1.1/DTD/svg11.dtd">
<svg version="1.1" id="Layer_1" xmlns="http://www.w3.org/2000/svg" xmlns:xlink="http://www.w3.org/1999/xlink" x="0px" y="0px"
	 width="50px" height="50px" viewBox="0 0 50 50" enable-background="new 0 0 50 50" xml:space="preserve">
<path fill-rule="evenodd" clip-rule="evenodd" d="M39.775,43.048c2.185-0.658,3.289-1.843,3.075-4.21
	c-0.222-2.463-0.168-4.919-3.142-6.021c-2.47-0.914-4.878-2.031-7.206-3.262c-0.678-0.357-0.986-1.413-1.465-2.149
	c0.926-0.016,1.949-0.296,2.758,0.003c2.287,0.847,4.464,1.982,6.724,2.905c5.147,2.103,6.791,8.933,4.328,12.731
	c-0.486,0.749-1.467,1.287-2.332,1.663c-11.295,4.904-22.605,4.896-33.954,0.096c-2.08-0.879-2.975-2.223-3.081-4.461
	c-0.304-6.464,0.962-8.413,7.05-10.764c1.817-0.701,3.478-1.802,5.284-2.54c0.553-0.227,1.35,0.144,2.035,0.241
	c-0.251,0.647-0.321,1.634-0.786,1.884c-2.319,1.246-4.661,2.556-7.151,3.355c-3.217,1.035-3.629,3.385-3.831,6.178
	C7.889,41.39,9.24,42.6,11.609,43.2c2.274,0.576,4.508,1.331,6.791,1.841C28.159,47.221,34.219,44.722,39.775,43.048z"/>
<path fill-rule="evenodd" clip-rule="evenodd" d="M34.696,19.533c-1.372,4.585-4.8,7.105-9.296,7.079
	c-4.393-0.025-7.979-2.407-9.024-6.949c-0.771-3.354-0.998-7.004-0.588-10.417c0.6-4.981,4.629-7.907,10.379-7.747
	c5.999,0.167,8.051,2.941,9.099,7.875C36,12.833,35.251,17.68,34.696,19.533z M19.192,19.848c1.271,3.233,4.178,4.624,7.601,4.015
	c3.727-0.662,5.793-3.733,6.16-9.148c0.38-5.606-1.286-9.464-4.769-10.314c-0.281-0.069-0.565-0.154-0.855-0.191
	C14.75,2.583,18.42,17.883,19.192,19.848z"/>
</svg>
