<?xml version="1.0" encoding="utf-8"?>
<!-- Generator: Adobe Illustrator 16.0.0, SVG Export Plug-In . SVG Version: 6.00 Build 0)  -->
<!DOCTYPE svg PUBLIC "-//W3C//DTD SVG 1.1//EN" "http://www.w3.org/Graphics/SVG/1.1/DTD/svg11.dtd">
<svg version="1.1" id="Layer_1" xmlns="http://www.w3.org/2000/svg" xmlns:xlink="http://www.w3.org/1999/xlink" x="0px" y="0px"
	 width="50px" height="50px" viewBox="0 0 50 50" enable-background="new 0 0 50 50" xml:space="preserve">
<path fill-rule="evenodd" clip-rule="evenodd" d="M25.495,10.224c1.901-1.313,3.483-2.762,5.296-3.59
	c4.663-2.125,10.003-0.242,12.964,4.29c2.904,4.446,3.016,10.59-0.388,14.669c-5.279,6.327-10.935,12.272-16.414,18.396
	c-1.07,1.194-1.879,0.689-2.758-0.289c-5.084-5.647-10.272-11.186-15.259-16.937c-4.481-5.167-4.465-12.38-0.216-17.254
	c4.21-4.829,10.731-4.991,15.645-0.387C24.748,9.48,25.117,9.855,25.495,10.224z M25.76,41.545
	c5.278-5.79,10.568-11.333,15.571-17.173c3.201-3.735,2.856-9.515-0.32-13.104c-3.249-3.671-8.414-3.895-12.086-0.522
	c-3.198,2.935-3.198,2.935-6.395,0c-3.692-3.392-8.825-3.188-12.084,0.477c-3.188,3.584-3.555,9.375-0.356,13.101
	C15.1,30.162,20.404,35.692,25.76,41.545z"/>
</svg>
